<svg width="735" height="956" viewBox="0 0 735 956" fill="none" xmlns="http://www.w3.org/2000/svg">
<mask id="mask0_344_1903" style="mask-type:alpha" maskUnits="userSpaceOnUse" x="2" y="0" width="733" height="956">
<path d="M674 0C707.689 8.37539e-07 735 27.3106 735 61V895C735 928.689 707.689 956 674 956H63C29.3106 956 2 928.689 2 895V61C2.00001 27.3106 29.3106 8.37539e-07 63 0H674Z" fill="#AEF261"/>
</mask>
<g mask="url(#mask0_344_1903)">
<rect x="2" y="-31" width="769" height="1139" fill="#AEF261"/>
<g filter="url(#filter0_f_344_1903)">
<path d="M349.146 1066L882.646 1095.93C882.646 997.297 825.844 668.152 825.844 669.613C773.534 650.764 608.625 681.757 611.06 712.564C587.499 769.184 520.285 695.274 481.199 718.591C438.825 743.869 459.099 783.43 451.61 813.202C444.122 842.973 437.74 857.585 420.561 892.47C405.9 922.241 349.146 1066 349.146 1066Z" fill="#FF801F"/>
</g>
<g filter="url(#filter1_f_344_1903)">
<path d="M536.823 857.659C513.859 800.148 428.134 600.111 399.751 592.919L310.568 609.848C259.535 732.753 294.241 947.581 297.787 959.735C324.924 1052.74 417.661 1034.95 416.241 1037.27C586.613 971.093 532.212 852.957 536.823 857.659Z" fill="#EB8FFC"/>
</g>
<g filter="url(#filter2_f_344_1903)">
<path d="M236.16 751.175C84.0933 649.779 18.6786 762.191 19.8768 755.715C4.73273 778.897 21.5591 770.855 -59.7535 793.154C-160.288 820.725 -367.252 652.223 -378.753 822.654C-390.254 993.084 -72.2011 1215.26 4.97822 1223.64C225.978 1247.64 352.483 1070.39 360.392 1060.5C420.912 984.843 233.45 751.344 236.16 751.175Z" fill="#048A46"/>
</g>
<g filter="url(#filter3_f_344_1903)">
<path d="M176.526 355.564C177.698 293.649 176.38 76.0211 153.016 58.3716L64.2589 39.34C-30.4963 132.782 -81.9366 344.228 -83.3885 356.806C-94.4991 453.052 -2.13156 472.671 -4.33865 474.253C178.36 479.43 174.103 349.44 176.526 355.564Z" fill="#EB8FFC"/>
</g>
<g filter="url(#filter4_f_344_1903)">
<path d="M-74.3233 531.321C77.7436 632.718 143.159 520.306 141.96 526.781C157.105 503.599 140.278 511.641 221.591 489.342C322.125 461.772 529.089 630.273 540.59 459.843C552.091 289.412 358.27 237.723 281.09 229.342C60.0905 205.343 -66.4149 382.592 -74.3237 392.479C-134.844 468.138 -71.6133 531.153 -74.3233 531.321Z" fill="#FF801F"/>
</g>
<g filter="url(#filter5_f_344_1903)">
<path d="M-165.296 459.64C-13.2296 358.244 52.1854 470.655 50.9871 464.18C66.1313 487.362 103.7 536.407 185.012 558.706C285.547 586.276 492.511 417.775 504.012 588.205C515.513 758.636 290.561 861.619 213.382 870C-7.61794 893.999 -193.141 662.318 -201.05 652.431C-261.57 576.772 -162.586 459.808 -165.296 459.64Z" fill="#AEF261"/>
</g>
<g filter="url(#filter6_f_344_1903)">
<path d="M551.621 108.471C650.7 267.964 818.373 225.568 817.897 227.331C863.083 69.2074 739.817 -99.6753 718.661 -122.5C718.65 -122.512 718.638 -122.523 718.626 -122.532C715.861 -125.072 546.118 -280.052 369.832 -216.506C192.093 -152.437 289.192 25.6944 288.205 29.3573C409.509 183.573 552.434 112.473 551.621 108.471Z" fill="#EB8FFC"/>
</g>
<g filter="url(#filter7_f_344_1903)">
<path d="M547.106 975.559C684.273 847.342 835.138 931.907 835.138 930.081C837.622 1094.52 674.658 1225.51 648.291 1242.04C648.209 1242.09 648.128 1242.09 648.048 1242.04H287.018L287.018 909.259C476.422 1036.75 548.932 971.906 547.106 975.559Z" fill="#EB8FFC"/>
</g>
<g filter="url(#filter8_f_344_1903)">
<path d="M669.049 71.7405C676.989 -0.838364 609.778 -65.8356 580.43 -92H869.049V458H561.049C423.223 296.998 541.776 224.893 568.029 196.965C637.022 151.511 658.004 112.63 669.049 71.7405Z" fill="#048A46"/>
</g>
<g filter="url(#filter9_f_344_1903)">
<path d="M974.144 548.503C942.236 618.503 813.162 625.594 756.144 571.003C732.644 548.503 736.812 528.163 655.499 505.864C554.964 478.294 348.001 646.795 336.5 476.365C324.999 305.934 518.82 254.245 596 245.864C816.999 221.865 942.735 332.116 950.644 342.003C1011.16 417.661 1012.27 464.868 974.144 548.503Z" fill="#AEF261"/>
</g>
<g filter="url(#filter10_f_344_1903)">
<path d="M50.6421 170.473L-375.105 165.359C-375.105 263.988 -318.303 533.208 -318.303 531.747C-265.993 550.596 -208.837 494.792 -211.272 463.985C-187.711 407.365 -120.497 481.275 -81.4109 457.958C-39.037 432.68 -59.3107 393.119 -51.8222 363.348C-44.3337 333.576 -37.9512 318.965 -20.7724 284.079C-6.112 254.308 50.6421 170.473 50.6421 170.473Z" fill="#FF801F"/>
</g>
</g>
<path d="M172.679 622.216C171.315 629.417 166.896 640.786 161.221 640.786C155.547 640.786 152.219 635.879 149.218 628.659C145.69 620.169 139.928 618.047 137.215 618.047C129.576 618.047 126.666 625.121 125.484 628.659C124.12 632.448 121.119 640.786 113.208 640.786C106.388 640.786 102.549 632.949 100.931 628.659C97.9305 620.7 93.8384 618.047 88.9279 618.047C82.9262 618.047 79.3797 624.995 78.2885 628.659C76.7608 632.297 74.1964 633.035 73.1052 632.949H48.5527" stroke="black" stroke-width="2.27393" stroke-linecap="round"/>
<path d="M54.0186 335.317C57.2952 338.359 64.5002 347 71.0005 347C76.0002 347 83.2615 346.693 89.0002 334C98.1267 313.814 103.5 295.963 110.284 295.963C119.295 295.963 126.94 327.901 130.238 341.727C132.585 351.573 137.862 371.244 146.6 371.244C151.788 371.244 157.554 365.396 162.109 341.727C167.775 312.141 181.019 253 192.918 253C200.354 252.999 207.763 294.291 213.77 324.708C222.03 366.53 233.703 363.917 236.475 363.917C239.247 363.917 247.629 364.02 253.909 343.489" stroke="black" stroke-width="2.27393" stroke-linecap="round"/>
<path d="M251.732 350.065C258.916 331.206 266.56 295.721 278.446 295.721C282.692 296.213 292.243 306.053 296.489 341.479C297.55 351.319 302.008 371 311.347 371C315.112 371 323.778 365.095 328.328 341.479C333.988 311.957 347.219 252.945 359.106 252.945C366.535 252.944 373.937 294.146 379.938 324.496C388.19 366.227 399.851 363.619 402.62 363.619C405.389 363.619 415.568 360.376 420.662 341.479C422.431 332.621 429.365 314.905 442.95 314.905H488.504C489.595 314.991 492.159 314.252 493.686 310.61C494.778 306.943 498.324 299.988 504.325 299.988C509.235 299.988 513.326 302.643 516.327 310.61C517.944 314.905 520.419 322.75 527.238 322.75C535.149 322.75 536.785 314.404 538.149 310.61C539.331 307.069 542.241 299.988 549.879 299.988C552.591 299.988 558.353 302.112 561.881 310.61C564.881 317.838 568.482 322.75 574.156 322.75C578.793 322.75 580.703 320.095 582.885 317.818C585.067 315.542 588.068 314.783 590.25 314.783L651.5 314.905C674.595 314.652 701 390.069 701 492.5C701 605.084 679.5 676.409 651.5 676.409" stroke="black" stroke-width="2.27393" stroke-linecap="round"/>
<path d="M652 676.5C637 676.5 634.5 650 633 642C630.365 627.946 623.881 573.67 614.815 573.67C605.749 573.67 595.895 633.693 593.892 646.053C589.429 673.594 581.572 678.712 577.852 677.828C567.391 677.828 562.973 655.761 560.417 646.053C554.14 622.218 545.073 573.67 538.796 573.67C530.427 573.67 519.827 622.218 512.295 646.053C504.484 670.77 500.439 677.828 494.162 677.828C484.398 677.828 479.083 661.057 473.239 646.053C463.956 622.218 449.527 573.67 444.645 573.67C433.952 573.67 433.456 601.916 417.415 646.053C414.354 654.475 410.431 666.147 406.502 670.015C404.501 672.619 398.317 677.828 389.586 677.828C383.341 678.332 372.318 677.828 359.574 651.713C355.754 643.886 351.225 628.231 327.651 628.231H265.171C259.704 628.806 242.936 634.309 239.251 651.713C237.342 660.418 231.612 677.267 220.698 677.267C209.785 677.267 204.581 658.64 203.237 651.713C199.417 632.029 196.961 573.324 187.685 573.324C180.045 573.324 179.773 587.504 172.679 624.109" stroke="black" stroke-width="2.27393"/>
<path d="M50.5529 326.219C51.8469 326.074 53.1531 326.074 54.4471 326.219V326.219C55.741 326.365 57.0145 326.656 58.2435 327.086V327.086C59.4726 327.516 60.6495 328.083 61.752 328.775V328.775C62.8546 329.468 63.8758 330.283 64.7966 331.203V331.203C65.7173 332.124 66.5317 333.145 67.2245 334.248V334.248C67.9173 335.351 68.484 336.527 68.9141 337.756V337.756C69.3442 338.986 69.6348 340.259 69.7806 341.553V341.553C69.9264 342.847 69.9264 344.153 69.7806 345.447V345.447C69.6348 346.741 69.3442 348.014 68.9141 349.244V349.244C68.484 350.473 67.9173 351.649 67.2245 352.752V352.752C66.5317 353.855 65.7173 354.876 64.7966 355.797V355.797C63.8758 356.717 62.8546 357.532 61.752 358.225V358.225C60.6495 358.917 59.4726 359.484 58.2435 359.914V359.914C57.0145 360.344 55.741 360.635 54.447 360.781V360.781C53.1531 360.926 51.8469 360.926 50.5529 360.781V360.781C49.259 360.635 47.9855 360.344 46.7565 359.914V359.914C45.5274 359.484 44.3505 358.917 43.248 358.225V358.225C42.1454 357.532 41.1242 356.717 40.2034 355.797V355.797C39.2827 354.876 38.4683 353.855 37.7755 352.752V352.752C37.0827 351.649 36.516 350.473 36.0859 349.244V349.244C35.6558 348.014 35.3652 346.741 35.2194 345.447V345.447C35.0736 344.153 35.0736 342.847 35.2194 341.553V341.553C35.3652 340.259 35.6558 338.986 36.0859 337.756V337.756C36.516 336.527 37.0827 335.351 37.7755 334.248V334.248C38.4683 333.145 39.2827 332.124 40.2034 331.203V331.203C41.1242 330.283 42.1454 329.468 43.248 328.775V328.775C44.3505 328.083 45.5274 327.516 46.7565 327.086V327.086C47.9855 326.656 49.259 326.365 50.5529 326.219V326.219Z" fill="black"/>
<path d="M438.553 298.219C439.847 298.074 441.153 298.074 442.447 298.219V298.219C443.741 298.365 445.014 298.656 446.244 299.086V299.086C447.473 299.516 448.649 300.083 449.752 300.775V300.775C450.855 301.468 451.876 302.283 452.797 303.203V303.203C453.717 304.124 454.532 305.145 455.225 306.248V306.248C455.917 307.351 456.484 308.527 456.914 309.756V309.756C457.344 310.986 457.635 312.259 457.781 313.553V313.553C457.926 314.847 457.926 316.153 457.781 317.447V317.447C457.635 318.741 457.344 320.014 456.914 321.244V321.244C456.484 322.473 455.917 323.649 455.225 324.752V324.752C454.532 325.855 453.717 326.876 452.797 327.797V327.797C451.876 328.717 450.855 329.532 449.752 330.225V330.225C448.649 330.917 447.473 331.484 446.244 331.914V331.914C445.014 332.344 443.741 332.635 442.447 332.781V332.781C441.153 332.926 439.847 332.926 438.553 332.781V332.781C437.259 332.635 435.986 332.344 434.756 331.914V331.914C433.527 331.484 432.351 330.917 431.248 330.225V330.225C430.145 329.532 429.124 328.717 428.203 327.797V327.797C427.283 326.876 426.468 325.855 425.775 324.752V324.752C425.083 323.649 424.516 322.473 424.086 321.244V321.244C423.656 320.014 423.365 318.741 423.219 317.447V317.447C423.074 316.153 423.074 314.847 423.219 313.553V313.553C423.365 312.259 423.656 310.986 424.086 309.756V309.756C424.516 308.527 425.083 307.351 425.775 306.248V306.248C426.468 305.145 427.283 304.124 428.203 303.203V303.203C429.124 302.283 430.145 301.468 431.248 300.775V300.775C432.351 300.083 433.527 299.516 434.756 299.086V299.086C435.986 298.656 437.259 298.365 438.553 298.219V298.219Z" fill="black"/>
<path d="M575.553 653.219C576.847 653.074 578.153 653.074 579.447 653.219V653.219C580.741 653.365 582.014 653.656 583.244 654.086V654.086C584.473 654.516 585.649 655.083 586.752 655.775V655.775C587.855 656.468 588.876 657.283 589.797 658.203V658.203C590.717 659.124 591.532 660.145 592.225 661.248V661.248C592.917 662.351 593.484 663.527 593.914 664.756V664.756C594.344 665.986 594.635 667.259 594.781 668.553V668.553C594.926 669.847 594.926 671.153 594.781 672.447V672.447C594.635 673.741 594.344 675.014 593.914 676.244V676.244C593.484 677.473 592.917 678.649 592.225 679.752V679.752C591.532 680.855 590.717 681.876 589.797 682.797V682.797C588.876 683.717 587.855 684.532 586.752 685.225V685.225C585.649 685.917 584.473 686.484 583.244 686.914V686.914C582.014 687.344 580.741 687.635 579.447 687.781V687.781C578.153 687.926 576.847 687.926 575.553 687.781V687.781C574.259 687.635 572.986 687.344 571.756 686.914V686.914C570.527 686.484 569.351 685.917 568.248 685.225V685.225C567.145 684.532 566.124 683.717 565.203 682.797V682.797C564.283 681.876 563.468 680.855 562.775 679.752V679.752C562.083 678.649 561.516 677.473 561.086 676.244V676.244C560.656 675.014 560.365 673.741 560.219 672.447V672.447C560.074 671.153 560.074 669.847 560.219 668.553V668.553C560.365 667.259 560.656 665.986 561.086 664.756V664.756C561.516 663.527 562.083 662.351 562.775 661.248V661.248C563.468 660.145 564.283 659.124 565.203 658.203V658.203C566.124 657.283 567.145 656.468 568.248 655.775V655.775C569.351 655.083 570.527 654.516 571.756 654.086V654.086C572.986 653.656 574.259 653.365 575.553 653.219V653.219Z" fill="black"/>
<path d="M218.553 653.219C219.847 653.074 221.153 653.074 222.447 653.219V653.219C223.741 653.365 225.014 653.656 226.244 654.086V654.086C227.473 654.516 228.649 655.083 229.752 655.775V655.775C230.855 656.468 231.876 657.283 232.797 658.203V658.203C233.717 659.124 234.532 660.145 235.225 661.248V661.248C235.917 662.351 236.484 663.527 236.914 664.756V664.756C237.344 665.986 237.635 667.259 237.781 668.553V668.553C237.926 669.847 237.926 671.153 237.781 672.447V672.447C237.635 673.741 237.344 675.014 236.914 676.244V676.244C236.484 677.473 235.917 678.649 235.225 679.752V679.752C234.532 680.855 233.717 681.876 232.797 682.797V682.797C231.876 683.717 230.855 684.532 229.752 685.225V685.225C228.649 685.917 227.473 686.484 226.244 686.914V686.914C225.014 687.344 223.741 687.635 222.447 687.781V687.781C221.153 687.926 219.847 687.926 218.553 687.781V687.781C217.259 687.635 215.986 687.344 214.756 686.914V686.914C213.527 686.484 212.351 685.917 211.248 685.225V685.225C210.145 684.532 209.124 683.717 208.203 682.797V682.797C207.283 681.876 206.468 680.855 205.775 679.752V679.752C205.083 678.649 204.516 677.473 204.086 676.244V676.244C203.656 675.014 203.365 673.741 203.219 672.447V672.447C203.074 671.153 203.074 669.847 203.219 668.553V668.553C203.365 667.259 203.656 665.986 204.086 664.756V664.756C204.516 663.527 205.083 662.351 205.775 661.248V661.248C206.468 660.145 207.283 659.124 208.203 658.203V658.203C209.124 657.283 210.145 656.468 211.248 655.775V655.775C212.351 655.083 213.527 654.516 214.756 654.086V654.086C215.986 653.656 217.259 653.365 218.553 653.219V653.219Z" fill="black"/>
<path d="M50.5529 613.219C51.8469 613.074 53.1531 613.074 54.4471 613.219V613.219C55.741 613.365 57.0145 613.656 58.2435 614.086V614.086C59.4726 614.516 60.6495 615.083 61.752 615.775V615.775C62.8546 616.468 63.8758 617.283 64.7966 618.203V618.203C65.7173 619.124 66.5317 620.145 67.2245 621.248V621.248C67.9173 622.351 68.484 623.527 68.9141 624.756V624.756C69.3442 625.986 69.6348 627.259 69.7806 628.553V628.553C69.9264 629.847 69.9264 631.153 69.7806 632.447V632.447C69.6348 633.741 69.3442 635.014 68.9141 636.244V636.244C68.484 637.473 67.9173 638.649 67.2245 639.752V639.752C66.5317 640.855 65.7173 641.876 64.7966 642.797V642.797C63.8758 643.717 62.8546 644.532 61.752 645.225V645.225C60.6495 645.917 59.4726 646.484 58.2435 646.914V646.914C57.0145 647.344 55.741 647.635 54.447 647.781V647.781C53.1531 647.926 51.8469 647.926 50.5529 647.781V647.781C49.259 647.635 47.9855 647.344 46.7565 646.914V646.914C45.5274 646.484 44.3505 645.917 43.248 645.225V645.225C42.1454 644.532 41.1242 643.717 40.2034 642.797V642.797C39.2827 641.876 38.4683 640.855 37.7755 639.752V639.752C37.0827 638.649 36.516 637.473 36.0859 636.244V636.244C35.6558 635.014 35.3652 633.741 35.2194 632.447V632.447C35.0736 631.153 35.0736 629.847 35.2194 628.553V628.553C35.3652 627.259 35.6558 625.986 36.0859 624.756V624.756C36.516 623.527 37.0827 622.351 37.7755 621.248V621.248C38.4683 620.145 39.2827 619.124 40.2034 618.203V618.203C41.1242 617.283 42.1454 616.468 43.248 615.775V615.775C44.3505 615.083 45.5274 614.516 46.7565 614.086V614.086C47.9855 613.656 49.259 613.365 50.5529 613.219V613.219Z" fill="black"/>
<path d="M318 0C297.5 0.00495739 280.684 5.00906 268.5 18.0059C263.224 23.6336 260.5 27.998 257.5 33.998C255.338 38.3227 253.621 45.0418 253 50.0059C252.5 54.0031 252 63.201 252 64.001C252 66.0011 250.7 70.001 245.5 70.001C240.3 70.001 239 66.0011 239 64.001C239 63.201 238.5 54.0031 238 50.0059C237.379 45.0418 235.662 38.3227 233.5 33.998C230.5 27.998 227.776 23.6336 222.5 18.0059C210.316 5.00906 193.5 0.00495739 173 0L245.5 0.000976562L318 0Z" fill="black"/>
<path d="M415 956C394.5 955.995 377.684 950.991 365.5 937.994C360.224 932.366 357.5 928.002 354.5 922.002C352.338 917.677 350.621 910.958 350 905.994C349.5 901.997 349 892.799 349 891.999C349 889.999 347.7 885.999 342.5 885.999C337.3 885.999 336 889.999 336 891.999C336 892.799 335.5 901.997 335 905.994C334.379 910.958 332.662 917.677 330.5 922.002C327.5 928.002 324.776 932.366 319.5 937.994C307.316 950.991 290.5 955.995 270 956L342.5 955.999L415 956Z" fill="black"/>
<path d="M0 623C0.00495739 602.5 5.00906 585.684 18.0059 573.5C23.6336 568.224 27.998 565.5 33.998 562.5C38.3227 560.338 45.0418 558.621 50.0059 558C54.0031 557.5 63.201 557 64.001 557C66.0011 557 70.001 555.7 70.001 550.5C70.001 545.3 66.0011 544 64.001 544C63.201 544 54.0031 543.5 50.0059 543C45.0418 542.379 38.3227 540.662 33.998 538.5C27.998 535.5 23.6336 532.776 18.0059 527.5C5.00906 515.316 0.00495739 498.5 0 478L0.000976562 550.5L0 623Z" fill="black"/>
<defs>
<filter id="filter0_f_344_1903" x="244.646" y="559.367" width="742.5" height="641.059" filterUnits="userSpaceOnUse" color-interpolation-filters="sRGB">
<feFlood flood-opacity="0" result="BackgroundImageFix"/>
<feBlend mode="normal" in="SourceGraphic" in2="BackgroundImageFix" result="shape"/>
<feGaussianBlur stdDeviation="52.25" result="effect1_foregroundBlur_344_1903"/>
</filter>
<filter id="filter1_f_344_1903" x="178.476" y="488.418" width="467.591" height="653.352" filterUnits="userSpaceOnUse" color-interpolation-filters="sRGB">
<feFlood flood-opacity="0" result="BackgroundImageFix"/>
<feBlend mode="normal" in="SourceGraphic" in2="BackgroundImageFix" result="shape"/>
<feGaussianBlur stdDeviation="52.25" result="effect1_foregroundBlur_344_1903"/>
</filter>
<filter id="filter2_f_344_1903" x="-483.558" y="604.102" width="960.489" height="726.27" filterUnits="userSpaceOnUse" color-interpolation-filters="sRGB">
<feFlood flood-opacity="0" result="BackgroundImageFix"/>
<feBlend mode="normal" in="SourceGraphic" in2="BackgroundImageFix" result="shape"/>
<feGaussianBlur stdDeviation="52.25" result="effect1_foregroundBlur_344_1903"/>
</filter>
<filter id="filter3_f_344_1903" x="-188.816" y="-65.1602" width="470.136" height="644.062" filterUnits="userSpaceOnUse" color-interpolation-filters="sRGB">
<feFlood flood-opacity="0" result="BackgroundImageFix"/>
<feBlend mode="normal" in="SourceGraphic" in2="BackgroundImageFix" result="shape"/>
<feGaussianBlur stdDeviation="52.25" result="effect1_foregroundBlur_344_1903"/>
</filter>
<filter id="filter4_f_344_1903" x="-205.129" y="122.609" width="850.71" height="555.785" filterUnits="userSpaceOnUse" color-interpolation-filters="sRGB">
<feFlood flood-opacity="0" result="BackgroundImageFix"/>
<feBlend mode="normal" in="SourceGraphic" in2="BackgroundImageFix" result="shape"/>
<feGaussianBlur stdDeviation="52.25" result="effect1_foregroundBlur_344_1903"/>
</filter>
<filter id="filter5_f_344_1903" x="-325.181" y="312.566" width="934.117" height="663.676" filterUnits="userSpaceOnUse" color-interpolation-filters="sRGB">
<feFlood flood-opacity="0" result="BackgroundImageFix"/>
<feBlend mode="normal" in="SourceGraphic" in2="BackgroundImageFix" result="shape"/>
<feGaussianBlur stdDeviation="52.25" result="effect1_foregroundBlur_344_1903"/>
</filter>
<filter id="filter6_f_344_1903" x="158.113" y="-336.289" width="774.163" height="671.965" filterUnits="userSpaceOnUse" color-interpolation-filters="sRGB">
<feFlood flood-opacity="0" result="BackgroundImageFix"/>
<feBlend mode="normal" in="SourceGraphic" in2="BackgroundImageFix" result="shape"/>
<feGaussianBlur stdDeviation="52.25" result="effect1_foregroundBlur_344_1903"/>
</filter>
<filter id="filter7_f_344_1903" x="182.518" y="799.898" width="757.148" height="546.68" filterUnits="userSpaceOnUse" color-interpolation-filters="sRGB">
<feFlood flood-opacity="0" result="BackgroundImageFix"/>
<feBlend mode="normal" in="SourceGraphic" in2="BackgroundImageFix" result="shape"/>
<feGaussianBlur stdDeviation="52.25" result="effect1_foregroundBlur_344_1903"/>
</filter>
<filter id="filter8_f_344_1903" x="391.095" y="-196.5" width="582.454" height="759" filterUnits="userSpaceOnUse" color-interpolation-filters="sRGB">
<feFlood flood-opacity="0" result="BackgroundImageFix"/>
<feBlend mode="normal" in="SourceGraphic" in2="BackgroundImageFix" result="shape"/>
<feGaussianBlur stdDeviation="52.25" result="effect1_foregroundBlur_344_1903"/>
</filter>
<filter id="filter9_f_344_1903" x="231.509" y="137.957" width="872.957" height="573.676" filterUnits="userSpaceOnUse" color-interpolation-filters="sRGB">
<feFlood flood-opacity="0" result="BackgroundImageFix"/>
<feBlend mode="normal" in="SourceGraphic" in2="BackgroundImageFix" result="shape"/>
<feGaussianBlur stdDeviation="52.25" result="effect1_foregroundBlur_344_1903"/>
</filter>
<filter id="filter10_f_344_1903" x="-479.605" y="60.8594" width="634.748" height="579.188" filterUnits="userSpaceOnUse" color-interpolation-filters="sRGB">
<feFlood flood-opacity="0" result="BackgroundImageFix"/>
<feBlend mode="normal" in="SourceGraphic" in2="BackgroundImageFix" result="shape"/>
<feGaussianBlur stdDeviation="52.25" result="effect1_foregroundBlur_344_1903"/>
</filter>
</defs>
</svg>
