<svg width="273" height="310" viewBox="0 0 273 310" fill="none" xmlns="http://www.w3.org/2000/svg">
<ellipse cx="117.3" cy="154.736" rx="100.767" ry="63.752" transform="rotate(109.862 117.3 154.736)" fill="#048A46"/>
<path d="M121.749 130.825C119.559 136.886 121.838 141.87 123.251 143.605C127.028 143.99 133.205 138.634 135.821 135.908C139.19 129.293 135.242 125.093 132.846 123.819C127.65 121.942 123.283 127.707 121.749 130.825Z" fill="#AEF261"/>
<path d="M153.257 152.002C140.939 167.132 124.408 165.24 117.683 162.402C110.206 160.517 95.342 153.107 96.9685 131.667C97.6505 128.65 99.4065 122.758 106.471 115.52C109.71 112.203 115.493 104.094 116.759 97.2087C117.658 104.876 112.216 118.819 109.147 125.053C103.203 141.507 114.447 151.035 120.812 153.742C137.62 157.856 146.019 145.716 148.117 139.131C152.42 121.799 157.089 116.554 158.885 116.098C154.025 124.132 154.393 130.792 155.184 133.118C157.012 141.61 154.661 149.246 153.257 152.002Z" fill="#AEF261"/>
<path d="M75.6173 170.461C78.5735 192.088 94.2581 196.775 102.918 199.903C125.65 208.116 140.055 199.858 143.424 196.18C153 185.933 149.681 178.86 146.824 176.604C142.807 174.174 129.633 184.671 123.548 190.223C117.341 193.855 109.555 191.695 106.438 190.161C100.376 187.971 96.5553 182.512 95.4029 180.056C90.4021 158.669 85.7434 153.723 84.0392 153.923C77.9047 154.644 75.8685 165.248 75.6173 170.461Z" fill="#AEF261"/>
</svg>
