<svg width="274" height="274" viewBox="0 0 274 274" fill="none" xmlns="http://www.w3.org/2000/svg">
<ellipse cx="136.995" cy="136.996" rx="110.031" ry="69.6134" transform="rotate(130.307 136.995 136.996)" fill="#EB8FFC"/>
<path d="M150.662 114.239C146.109 119.606 146.539 125.575 147.324 127.888C151.041 129.723 159.404 126.599 163.121 124.808C169.091 119.324 166.653 113.521 164.687 111.304C160.087 107.402 153.42 111.635 150.662 114.239Z" fill="#AEF261"/>
<path d="M174.825 147.924C156.45 158.705 140.258 150.464 134.46 144.996C127.528 140.215 115.146 126.965 124.988 105.649C126.836 102.822 130.881 97.4627 140.869 92.7514C145.448 90.5927 154.459 84.5023 158.38 77.9405C156.376 86.1283 145.489 98.3181 139.971 103.526C127.614 118.094 135.484 132.131 140.964 137.329C156.592 147.949 169.816 138.731 174.474 132.794C185.488 116.702 192.265 113.116 194.277 113.335C186.24 119.701 184.076 126.656 183.999 129.337C182.629 138.723 177.312 145.639 174.825 147.924Z" fill="#AEF261"/>
<path d="M88.3453 137.194C83.121 160.45 97.3811 171.228 105.048 177.732C125.175 194.805 143.063 191.85 147.913 189.371C161.618 182.54 160.92 174.037 158.858 170.639C155.675 166.621 138.192 172.336 129.848 175.696C122.112 177.044 114.97 171.864 112.365 169.106C106.998 164.553 105.172 157.51 104.929 154.558C107.97 130.768 105.09 123.931 103.27 123.485C96.7185 121.883 90.5904 131.957 88.3453 137.194Z" fill="#AEF261"/>
</svg>
