<svg width="296" height="142" viewBox="0 0 296 142" fill="none" xmlns="http://www.w3.org/2000/svg">
<rect y="55.8379" width="284.195" height="87.542" rx="43.771" transform="rotate(-11.3311 0 55.8379)" fill="#AEF261"/>
<path d="M56.8286 97.9398L67.4101 95.8197L68.0796 99.1612L50.6295 102.658L50.57 102.361L58.2882 88.2631C59.0946 86.7627 59.6363 85.4828 59.9131 84.4232C60.2148 83.3587 60.2738 82.3685 60.0903 81.4527C59.8225 80.1161 59.1489 79.1311 58.0694 78.4978C57.0147 77.8596 55.7324 77.6917 54.2225 77.9942C53.0344 78.2323 51.9405 78.7475 50.9407 79.54C49.9657 80.3275 49.0304 81.4417 48.1348 82.8827L47.8378 82.9422L47.7991 78.5089C49.3083 76.4043 51.3253 75.099 53.85 74.5932C55.4589 74.2708 56.9614 74.3173 58.3577 74.7327C59.7787 75.1431 60.9671 75.8705 61.923 76.9147C62.8739 77.9342 63.4956 79.1742 63.7882 80.6345C64.0412 81.8969 63.9649 83.2509 63.5594 84.6967C63.1738 86.1127 62.4046 87.8631 61.2518 89.9478L56.8286 97.9398ZM82.0958 96.739C79.9919 97.1606 78.0115 96.9781 76.1547 96.1916C74.293 95.3803 72.7008 94.0516 71.3783 92.2054C70.0806 90.3543 69.1714 88.1293 68.6506 85.5303C68.1299 82.9313 68.1117 80.5278 68.5961 78.3196C69.1053 76.1064 70.0651 74.2793 71.4755 72.8381C72.881 71.3722 74.6357 70.4285 76.7396 70.0069C78.8435 69.5854 80.814 69.7827 82.651 70.5989C84.5078 71.3854 86.0975 72.7018 87.42 74.5479C88.7424 76.3941 89.6641 78.6167 90.1848 81.2156C90.7055 83.8146 90.7113 86.2206 90.2022 88.4338C89.693 90.6469 88.7357 92.4865 87.3302 93.9524C85.9445 95.3886 84.1997 96.3175 82.0958 96.739ZM81.4263 93.3975C82.8371 93.1148 83.9929 92.4584 84.8936 91.4284C85.7893 90.3735 86.3705 89.0342 86.6373 87.4102C86.9288 85.7813 86.8737 83.9644 86.472 81.9595C86.0703 79.9546 85.4212 78.2567 84.5246 76.8659C83.6528 75.4701 82.6029 74.4704 81.3749 73.8669C80.1419 73.2386 78.82 73.0657 77.4091 73.3484C75.9983 73.6311 74.845 74.2999 73.9493 75.3547C73.0486 76.3848 72.4525 77.7142 72.161 79.3431C71.8942 80.9671 71.9617 82.7815 72.3634 84.7864C72.7651 86.7913 73.4019 88.4916 74.2737 89.8875C75.1703 91.2783 76.235 92.2879 77.468 92.9162C78.696 93.5197 80.0154 93.6802 81.4263 93.3975ZM82.0167 82.8522L79.9384 85.9719L76.8188 83.8937L78.897 80.774L82.0167 82.8522ZM99.6426 92.8371L92.9596 94.1761L92.915 93.9533L95.1483 88.331L95.371 88.2864L99.598 92.6143L99.6426 92.8371ZM106.947 63.9544L111.559 86.9737L116.98 85.8876L117.65 89.2291L102.799 92.2047L102.129 88.8632L107.921 87.7027L104.581 71.0323L101.396 74.6054L99.0266 72.4155L106.65 64.0139L106.947 63.9544ZM129.593 87.2222C127.489 87.6437 125.509 87.4612 123.652 86.6747C121.791 85.8635 120.198 84.5347 118.876 82.6886C117.578 80.8375 116.669 78.6124 116.148 76.0135C115.627 73.4145 115.609 71.0109 116.094 68.8028C116.603 66.5896 117.563 64.7624 118.973 63.3213C120.379 61.8554 122.133 60.9116 124.237 60.4901C126.341 60.0685 128.312 60.2659 130.149 61.0821C132.005 61.8686 133.595 63.185 134.918 65.0311C136.24 66.8773 137.162 69.0998 137.682 71.6988C138.203 74.2977 138.209 76.7038 137.7 78.917C137.191 81.1301 136.233 82.9696 134.828 84.4356C133.442 85.8718 131.697 86.8006 129.593 87.2222ZM128.924 83.8807C130.335 83.598 131.49 82.9416 132.391 81.9115C133.287 80.8567 133.868 79.5173 134.135 77.8934C134.426 76.2645 134.371 74.4476 133.97 72.4427C133.568 70.4378 132.919 68.7399 132.022 67.3491C131.15 65.9533 130.1 64.9536 128.872 64.35C127.64 63.7217 126.318 63.5489 124.907 63.8316C123.496 64.1143 122.343 64.783 121.447 65.8379C120.546 66.8679 119.95 68.1974 119.659 69.8263C119.392 71.4502 119.459 73.2647 119.861 75.2696C120.263 77.2745 120.899 78.9748 121.771 80.3706C122.668 81.7615 123.733 82.771 124.966 83.3994C126.194 84.0029 127.513 84.1634 128.924 83.8807ZM129.514 73.3354L127.436 76.4551L124.316 74.3769L126.395 71.2572L129.514 73.3354ZM161.137 72.2127L142.017 76.0439L141.421 73.0736L160.542 69.2425L161.137 72.2127ZM169.481 75.3682L180.063 73.2481L180.732 76.5896L163.282 80.086L163.223 79.7889L170.941 65.6915C171.747 64.1911 172.289 62.9112 172.566 61.8516C172.867 60.7871 172.927 59.797 172.743 58.8811C172.475 57.5445 171.802 56.5596 170.722 55.9263C169.667 55.288 168.385 55.1201 166.875 55.4226C165.687 55.6607 164.593 56.1759 163.593 56.9684C162.618 57.7559 161.683 58.8702 160.788 60.3111L160.49 60.3706L160.452 55.9373C161.961 53.8327 163.978 52.5275 166.503 52.0216C168.112 51.6992 169.614 51.7457 171.01 52.1611C172.431 52.5715 173.62 53.2989 174.576 54.3431C175.527 55.3627 176.148 56.6026 176.441 58.063C176.694 59.3253 176.618 60.6794 176.212 62.1251C175.827 63.5412 175.057 65.2915 173.904 67.3762L169.481 75.3682ZM188.079 58.3185C189.762 57.9813 191.329 58.0278 192.78 58.458C194.255 58.8832 195.491 59.6526 196.486 60.7662C197.477 61.855 198.133 63.2038 198.456 64.8127C198.783 66.4463 198.702 67.9687 198.212 69.3799C197.718 70.7662 196.872 71.9399 195.674 72.9007C194.476 73.8616 193.011 74.5156 191.278 74.8627C188.58 75.4033 186.204 75.2358 184.149 74.3603L183.368 70.4618L183.665 70.4023C184.744 71.0356 185.844 71.4462 186.963 71.6339C188.106 71.8167 189.322 71.7791 190.609 71.5212C192.168 71.2088 193.316 70.5153 194.054 69.4407C194.816 68.3612 195.045 67.0665 194.743 65.5566C194.435 64.022 193.712 62.9182 192.573 62.2453C191.434 61.5724 189.999 61.4096 188.266 61.7567C186.36 62.1386 184.776 62.8422 183.514 63.8674L183.217 63.9269L180.91 49.5211L193.719 46.9546L194.389 50.2961L184.587 52.26L185.718 59.0619C186.376 58.7498 187.163 58.502 188.079 58.3185ZM208.778 70.9702L202.095 72.3092L202.051 72.0864L204.284 66.4641L204.507 66.4195L208.734 70.7474L208.778 70.9702ZM216.083 42.0875L220.695 65.1068L226.116 64.0207L226.785 67.3622L211.934 70.3378L211.265 66.9963L217.057 65.8358L213.717 49.1654L210.532 52.7385L208.162 50.5486L215.786 42.147L216.083 42.0875ZM238.729 65.3553C236.625 65.7768 234.645 65.5943 232.788 64.8078C230.926 63.9966 229.334 62.6678 228.012 60.8217C226.714 58.9706 225.805 56.7455 225.284 54.1466C224.763 51.5476 224.745 49.144 225.229 46.9358C225.739 44.7227 226.698 42.8955 228.109 41.4544C229.514 39.9885 231.269 39.0447 233.373 38.6232C235.477 38.2016 237.447 38.399 239.284 39.2152C241.141 40.0017 242.731 41.3181 244.053 43.1642C245.376 45.0104 246.297 47.2329 246.818 49.8319C247.339 52.4308 247.345 54.8369 246.836 57.0501C246.326 59.2632 245.369 61.1027 243.964 62.5687C242.578 64.0049 240.833 64.9337 238.729 65.3553ZM238.06 62.0138C239.47 61.7311 240.626 61.0747 241.527 60.0446C242.423 58.9898 243.004 57.6504 243.271 56.0265C243.562 54.3976 243.507 52.5807 243.105 50.5758C242.704 48.5709 242.054 46.873 241.158 45.4822C240.286 44.0864 239.236 43.0867 238.008 42.4831C236.775 41.8548 235.453 41.682 234.042 41.9647C232.632 42.2474 231.478 42.9161 230.583 43.971C229.682 45.001 229.086 46.3305 228.794 47.9594C228.528 49.5833 228.595 51.3978 228.997 53.4027C229.398 55.4076 230.035 57.1079 230.907 58.5037C231.804 59.8946 232.868 60.9041 234.101 61.5325C235.329 62.136 236.649 62.2965 238.06 62.0138ZM238.65 51.4685L236.572 54.5882L233.452 52.51L235.53 49.3903L238.65 51.4685Z" fill="black"/>
</svg>
