<svg width="313" height="185" viewBox="0 0 313 185" fill="none" xmlns="http://www.w3.org/2000/svg">
<rect x="37.9718" y="2.45703" width="284.195" height="87.542" rx="43.771" transform="rotate(20.0364 37.9718 2.45703)" fill="#AEF261"/>
<path d="M81.654 72.2698L78.5373 73.6319L73.6086 62.2815L73.6735 62.1037L84.7657 56.5568L86.2734 59.6058L77.9163 63.7319L81.654 72.2698ZM89.8359 75.2542L86.7191 76.6164L81.7904 65.266L81.8553 65.0881L92.9475 59.5412L94.4552 62.5902L86.0981 66.7163L89.8359 75.2542ZM113.091 57.82L115.262 83.8033L118.357 84.9322L115.178 93.6476L111.799 92.4149L113.81 86.9011L93.711 79.5698L91.6997 85.0836L88.3203 83.8509L91.4993 75.1355L94.5942 76.2644L112.807 57.7162L113.091 57.82ZM98.2582 77.6009L111.456 82.4149L110.202 65.19L98.2582 77.6009ZM125.56 83.9319L142.897 76.9548L143.182 77.0586L136.564 95.201L133.185 93.9683L137.337 82.5849L120 89.5619L119.715 89.4581L126.333 71.3158L129.712 72.5485L125.56 83.9319ZM154.464 91.2506C155.988 92.7467 156.373 94.5264 155.62 96.5897C155.093 98.0363 154.067 99.0058 152.544 99.4982C151.03 99.9669 149.371 99.8725 147.569 99.215L141.557 97.0221L148.045 79.2355L154.057 81.4284C155.812 82.0686 157.074 83.0263 157.845 84.3017C158.625 85.5534 158.755 86.8907 158.236 88.3137C157.951 89.0963 157.465 89.7654 156.778 90.3212C156.124 90.8619 155.353 91.1717 154.464 91.2506ZM150.451 83.1362L148.699 87.9386L151.332 88.8988C152.067 89.167 152.75 89.1741 153.38 88.9203C154.018 88.6427 154.467 88.1482 154.727 87.4367C154.986 86.7252 154.961 86.0577 154.651 85.4341C154.341 84.8105 153.819 84.3646 153.083 84.0964L150.451 83.1362ZM148.542 96.547C149.396 96.8585 150.17 96.8722 150.865 96.5882C151.583 96.3128 152.085 95.7839 152.371 95.0012C152.656 94.2186 152.608 93.5025 152.227 92.853C151.878 92.1884 151.277 91.7004 150.423 91.3889L147.791 90.4287L145.91 95.5868L148.542 96.547ZM173.753 108.202L170.347 107.927L170.553 105.261C169.222 105.743 167.989 105.992 166.855 106.008C165.72 106.024 164.536 105.807 163.303 105.357C161.999 104.882 160.924 104.181 160.08 103.255C159.259 102.337 158.733 101.312 158.501 100.18C158.278 99.0235 158.383 97.8525 158.815 96.6667C159.222 95.5521 159.866 94.6318 160.749 93.9059C161.632 93.18 162.667 92.7378 163.853 92.5794C165.048 92.3972 166.298 92.544 167.602 93.0198C168.408 93.3139 169.106 93.6489 169.694 94.0248C170.291 94.3769 170.853 94.8638 171.378 95.4855C171.464 93.8508 171.198 92.5176 170.58 91.4861C169.986 90.4632 168.941 89.6793 167.447 89.1343C166.119 88.6499 164.782 88.6324 163.436 89.0818L163.151 88.978L165.451 85.9878C166.62 85.8768 167.833 86.0506 169.09 86.509C171.153 87.2616 172.65 88.4256 173.58 90.0009C174.534 91.5849 174.915 93.5242 174.723 95.8188L173.753 108.202ZM164.839 102.693C166.689 103.368 168.672 103.272 170.789 102.405L171.077 98.9629C170.627 98.2076 170.109 97.6021 169.523 97.1465C168.945 96.6671 168.265 96.2847 167.483 95.9992C166.273 95.558 165.176 95.5074 164.193 95.8471C163.233 96.1956 162.567 96.8797 162.195 97.8994C161.823 98.9192 161.88 99.8671 162.366 100.743C162.853 101.619 163.677 102.269 164.839 102.693ZM190.831 94.4392L194.13 114.788L190.593 115.312L188.421 100.493L177.182 110.42L174.881 107.888L190.546 94.3354L190.831 94.4392ZM201.882 111.771L219.22 104.794L219.504 104.898L212.887 123.041L209.507 121.808L213.659 110.424L196.322 117.401L196.038 117.298L202.655 99.1553L206.035 100.388L201.882 111.771ZM230.156 119.384L219.076 124.895L217.569 121.846L225.926 117.72L222.188 109.182L225.305 107.82L230.221 119.206L230.156 119.384ZM238.337 122.368L227.258 127.88L225.75 124.831L234.108 120.705L230.37 112.167L233.487 110.805L238.402 122.19L238.337 122.368Z" fill="black"/>
</svg>
