<svg width="266" height="266" viewBox="0 0 266 266" fill="none" xmlns="http://www.w3.org/2000/svg">
<path d="M101.712 41.5291C105.813 32.3772 117.658 29.9048 125.077 36.6523V36.6523C130.544 41.6243 138.848 41.779 144.496 37.0142V37.0142C152.161 30.5479 163.907 33.4599 167.663 42.7582V42.7582C170.431 49.6097 177.846 53.352 185.002 51.5097V51.5097C194.714 49.0096 204.032 56.7293 203.383 66.7367V66.7367C202.904 74.1108 207.96 80.6993 215.207 82.1445V82.1445C225.042 84.1058 230.088 95.1042 225.161 103.839V103.839C221.53 110.275 223.227 118.405 229.129 122.851V122.851C237.139 128.885 236.914 140.984 228.684 146.716V146.716C222.621 150.939 220.622 159 224.01 165.567V165.567C228.609 174.479 223.156 185.282 213.255 186.875V186.875C205.96 188.049 200.661 194.445 200.865 201.832V201.832C201.141 211.856 191.542 219.223 181.93 216.363V216.363C174.847 214.256 167.299 217.719 164.277 224.463V224.463C160.176 233.614 148.331 236.087 140.912 229.339V229.339C135.445 224.367 127.141 224.213 121.493 228.977V228.977C113.828 235.444 102.083 232.532 98.3259 223.233V223.233C95.5578 216.382 88.1435 212.64 80.9873 214.482V214.482C71.2754 216.982 61.9569 209.262 62.6066 199.255V199.255C63.0853 191.881 58.029 185.292 50.7822 183.847V183.847C40.9473 181.886 35.901 170.887 40.8284 162.153V162.153C44.4592 155.717 42.7624 147.587 36.8602 143.141V143.141C28.8502 137.106 29.0757 125.008 37.305 119.276V119.276C43.3687 115.053 45.3673 106.992 41.9788 100.425V100.425C37.3803 91.5127 42.8329 80.71 52.734 79.1165V79.1165C60.0297 77.9424 65.3279 71.5468 65.1243 64.1601V64.1601C64.8479 54.1353 74.4476 46.7682 84.0596 49.6285V49.6285C91.1422 51.7361 98.6907 48.2727 101.712 41.5291V41.5291Z" fill="#AEF261"/>
<path d="M103.576 151.889C98.917 150.579 95.1663 153.346 93.8732 154.893C98.1435 154.948 98.7808 157.388 98.5656 158.601C98.0498 161.514 94.0384 161.15 92.0972 160.604C83.2952 155.07 84.5405 145.737 86.2634 141.763C92.216 142.673 101.681 138.136 105.669 135.754L121.226 185.998L132.545 182.493L124.767 157.371C122.433 149.835 126.162 146.615 128.318 145.948C134.787 143.945 138.349 149.725 139.321 152.865L147.099 177.987L169.739 170.977L161.474 144.285C159.141 136.748 163.194 134.576 165.512 134.431C170.363 132.929 173.439 137.139 174.411 140.279L182.676 166.971L198.847 161.964L178.915 97.5894C163.636 80.2959 142.892 82.3601 134.429 85.5539C126.667 87.9573 118.906 92.6544 115.996 94.7026C111.853 90.4793 103.271 91.7601 99.4973 92.9284C94.3225 94.5307 90.4428 98.0261 89.1498 99.5736C88.245 101.23 84.6788 106.12 83.0088 108.358C68.7782 112.764 67.3835 124.667 68.4649 130.067L77.2156 158.329C80.4539 164.209 86.224 166.437 88.7043 166.816C92.0695 168.528 102.289 164.904 106.979 162.879C107.495 159.966 104.763 153.815 103.576 151.889Z" fill="#EB8FFC"/>
</svg>
