<svg width="193" height="190" viewBox="0 0 193 190" fill="none" xmlns="http://www.w3.org/2000/svg">
<path d="M79.3133 22.6593C83.2617 15.952 92.5713 14.9738 97.8276 20.714V20.714C101.694 24.9359 108.065 25.6983 112.818 22.5077L113.119 22.3052C119.505 18.019 128.215 21.1645 130.388 28.5415V28.5415C131.996 33.9992 137.385 37.4324 143.011 36.5825L143.5 36.5087C151.056 35.367 157.512 41.9614 156.209 49.4918V49.4918C155.243 55.0787 158.699 60.5345 164.131 62.1591V62.1591C171.483 64.3578 174.62 73.1945 170.131 79.4182V79.4182C166.808 84.025 167.477 90.3929 171.685 94.2086V94.2086C177.369 99.3633 176.137 108.659 169.403 112.338V112.338C164.427 115.056 162.181 121.111 164.287 126.375V126.375C167.126 133.47 162.182 141.262 154.554 141.716L154.061 141.745C148.381 142.083 143.823 146.562 143.384 152.235V152.235C142.792 159.902 134.926 164.789 127.789 161.924L127.452 161.788C122.14 159.655 116.066 161.725 113.162 166.659V166.659C109.213 173.366 99.9038 174.344 94.6475 168.604V168.604C90.7815 164.382 84.4103 163.62 79.6573 166.81L79.3557 167.013C72.9705 171.299 64.2604 168.153 62.0872 160.776V160.776C60.4794 155.319 55.0897 151.885 49.4639 152.735L48.9756 152.809C41.4191 153.951 34.9636 147.356 36.2657 139.826V139.826C37.2317 134.239 33.7764 128.783 28.3443 127.159V127.159C20.9925 124.96 17.8553 116.123 22.3441 109.9V109.9C25.6668 105.293 24.9977 98.9249 20.7901 95.1093V95.1093C15.1058 89.9545 16.3378 80.6588 23.072 76.98V76.98C28.0478 74.2619 30.2938 68.2071 28.1876 62.9429V62.9429C25.3488 55.8476 30.2928 48.0555 37.9215 47.6017L38.4145 47.5723C44.0941 47.2345 48.6526 42.756 49.0909 37.0833V37.0833C49.6833 29.4157 57.5495 24.5285 64.6861 27.3941L65.0232 27.5294C70.3355 29.6625 76.4092 27.5925 79.3133 22.6593V22.6593Z" fill="#AEF261"/>
<path d="M72.8398 105.22C69.3533 103.45 65.9462 105.054 64.6784 106.077C68.0541 106.792 68.1761 108.825 67.8151 109.753C66.949 111.98 63.8269 111.062 62.3742 110.325C56.2672 104.557 58.7195 97.3557 60.709 94.4761C65.2838 96.1319 73.497 94.0227 77.0318 92.7611L81.4723 135.023L90.9939 134.023L88.7737 112.892C88.1076 106.552 91.5684 104.587 93.382 104.396C98.823 103.824 100.738 108.964 101.016 111.606L103.236 132.737L122.279 130.736L119.92 108.284C119.254 101.945 122.808 100.859 124.667 101.109C128.748 100.68 130.525 104.499 130.802 107.141L133.161 129.593L146.764 128.163L141.074 74.0147C131.681 57.9101 114.916 56.2888 107.707 57.4913C101.178 58.1773 94.29 60.6814 91.662 61.8477C89.0416 57.8502 82.0387 57.5177 78.8649 57.8512C74.5121 58.3085 70.8885 60.4696 69.6208 61.493C68.6436 62.6639 65.0495 65.9792 63.3746 67.4904C51.4046 68.7481 48.4303 77.9625 48.4395 82.4125L50.9372 106.185C52.5805 111.354 56.8036 114.025 58.7098 114.715C61.1082 116.6 69.7767 115.333 73.8111 114.464C74.6773 112.237 73.4782 106.933 72.8398 105.22Z" fill="#FF801F"/>
</svg>
