<svg width="200" height="203" viewBox="0 0 200 203" fill="none" xmlns="http://www.w3.org/2000/svg">
<path d="M134.856 8.01605C136.603 5.97987 139.937 7.33415 139.769 10.0117L137.707 42.843C137.576 44.9319 139.702 46.419 141.619 45.579L171.75 32.3776C174.208 31.301 176.623 33.9675 175.31 36.3069L159.208 64.9925C158.183 66.8176 159.454 69.08 161.545 69.155L194.42 70.3342C197.101 70.4304 198.121 73.8811 195.923 75.419L168.969 94.2772C167.254 95.4771 167.417 98.0667 169.269 99.0418L198.377 114.368C200.75 115.618 200.172 119.169 197.524 119.601L165.057 124.897C162.991 125.234 162.015 127.638 163.26 129.32L182.836 155.758C184.432 157.914 182.37 160.863 179.797 160.103L148.247 150.787C146.24 150.195 144.317 151.937 144.709 153.993L150.875 186.306C151.378 188.941 148.241 190.703 146.252 188.902L121.869 166.82C120.318 165.415 117.829 166.151 117.291 168.173L108.826 199.961C108.135 202.554 104.544 202.78 103.534 200.295L91.1464 169.82C90.3583 167.881 87.7973 167.464 86.4345 169.053L65.0154 194.02C63.2686 196.056 59.935 194.702 60.1031 192.024L62.1647 159.193C62.2959 157.104 60.1696 155.617 58.2525 156.457L28.1216 169.658C25.6643 170.735 23.2484 168.068 24.5616 165.729L40.6641 137.044C41.6886 135.218 40.418 132.956 38.3263 132.881L5.45147 131.702C2.77041 131.606 1.75077 128.155 3.94896 126.617L30.9029 107.759C32.6179 106.559 32.4548 103.969 30.6028 102.994L1.49518 87.6679C-0.878644 86.4179 -0.300113 82.8666 2.34768 82.4347L34.8146 77.139C36.8804 76.802 37.857 74.3981 36.6115 72.7159L17.0363 46.2781C15.4399 44.122 17.502 41.1733 20.0749 41.9331L51.6244 51.2487C53.6318 51.8414 55.5547 50.0992 55.1624 48.0433L48.9967 15.7302C48.4938 13.095 51.6311 11.3331 53.6197 13.1339L78.0028 35.2158C79.5542 36.6208 82.0426 35.8855 82.5812 33.8629L91.0462 2.07468C91.7366 -0.517757 95.3276 -0.743983 96.3379 1.74132L108.725 32.2158C109.514 34.1548 112.075 34.572 113.437 32.9834L134.856 8.01605Z" fill="#FF801F"/>
</svg>
