<svg width="224" height="224" viewBox="0 0 224 224" fill="none" xmlns="http://www.w3.org/2000/svg">
<circle cx="111.764" cy="111.767" r="80.8047" transform="rotate(32.9663 111.764 111.767)" fill="#048A46"/>
<path d="M146.953 57.8349C158.753 65.4879 167.224 76.3423 171.967 88.5174L172.507 88.6756L172.299 89.3879C179.202 107.889 177.562 129.307 165.992 147.147C161.777 153.646 156.591 159.134 150.748 163.547L150.61 164.019L150.255 163.915C136.022 174.452 117.991 178.671 100.617 175.62C100.107 175.631 99.6204 175.63 99.1587 175.616C97.4222 175.564 96.0392 175.356 95.0964 175.167C94.6251 175.073 94.265 174.983 94.028 174.921C93.9889 174.911 93.9342 174.896 93.8864 174.883L93.8158 174.89L93.6192 174.812C91.6857 174.049 89.9042 173.154 88.2619 172.146C84.2845 170.584 80.4039 168.602 76.6794 166.186C64.7182 158.428 56.1778 147.381 51.4729 135.003L51.3668 134.972L51.4073 134.831C44.4181 116.285 46.0287 94.7775 57.6406 76.8737C62.0311 70.1043 67.4748 64.4299 73.6173 59.9266L73.6347 59.8692L73.6791 59.8817C88.5062 49.0386 107.391 45.0088 125.352 48.8545C127.142 48.8575 128.767 49.0404 130.182 49.3605L130.244 49.3748L130.302 49.3971C132.378 50.1853 134.286 51.1045 136.037 52.139C139.781 53.6587 143.437 55.5543 146.953 57.8349ZM53.637 135.636C58.3038 147.157 66.4289 157.412 77.6497 164.69C79.1747 165.679 80.7274 166.592 82.3019 167.432C75.282 160.366 72.0412 150.538 70.8174 140.664L53.637 135.636ZM72.6836 141.211C74.2621 152.932 78.7874 164.165 89.0934 170.556C90.0189 170.916 90.9494 171.254 91.8848 171.568C90.2235 167.135 89.5709 161.73 89.545 156.021C89.5306 152.855 89.7092 149.575 90.0219 146.285L72.6836 141.211ZM91.7639 146.795C91.4757 149.919 91.3147 153.023 91.3283 156.013C91.3567 162.26 92.1542 167.929 94.0984 172.264C94.4763 172.375 94.8549 172.482 95.2339 172.586C95.9405 172.188 96.8255 171.529 97.8745 170.496C99.7395 168.661 102.015 165.772 104.607 161.515C106.203 158.894 107.914 155.762 109.719 152.051L91.7639 146.795ZM111.455 152.558C109.579 156.435 107.797 159.706 106.131 162.443C103.491 166.779 101.128 169.797 99.1255 171.767C98.5792 172.305 98.0489 172.772 97.5397 173.171C98.6053 173.42 99.6747 173.64 100.747 173.831C103.842 173.743 107.858 173.095 112.387 171.056C117.458 168.772 123.213 164.725 129.059 157.711L111.455 152.558ZM130.921 158.255C124.761 165.815 118.62 170.205 113.12 172.682C111.143 173.572 109.254 174.209 107.485 174.66C121.833 175.639 136.237 171.66 148.089 163.28L130.921 158.255ZM49.1631 107.723C48.5697 116.508 49.8352 125.315 52.8312 133.542L70.6035 138.744C70.3927 136.598 70.2718 134.458 70.2227 132.353C70.0698 125.798 70.6092 119.505 71.3263 114.263L49.1631 107.723ZM73.0577 114.773C72.3697 119.882 71.858 125.976 72.0058 132.312C72.0598 134.623 72.2035 136.959 72.4537 139.285L90.2072 144.481C90.5793 141.082 91.0828 137.693 91.6575 134.429C92.508 129.599 93.5154 125.029 94.4743 121.093L73.0577 114.773ZM96.1877 121.599C95.2428 125.484 94.2519 129.983 93.4145 134.739C92.8267 138.077 92.3164 141.536 91.9467 144.99L110.498 150.42C113.278 144.533 116.266 137.289 119.388 128.445L96.1877 121.599ZM121.101 128.95C117.997 137.752 115.017 145.002 112.232 150.927L130.276 156.209C134.438 150.926 138.622 144.1 142.616 135.299L121.101 128.95ZM56.0217 83.2033C52.2704 90.4477 50.064 98.153 49.3132 105.907L71.5828 112.478C72.6508 105.39 73.9575 100.611 74.0282 100.407C75.3495 96.5983 76.7503 93.0524 78.2145 89.7529L56.0217 83.2033ZM144.343 135.809C140.407 144.522 136.268 151.373 132.117 156.748L149.898 161.951C155.487 157.69 160.452 152.412 164.496 146.177C165.296 144.942 166.047 143.689 166.751 142.421L144.343 135.809ZM79.9405 90.2612C78.464 93.5734 77.0488 97.1438 75.7139 100.992C75.7123 100.999 75.6494 101.218 75.5306 101.682C75.4134 102.139 75.2499 102.799 75.0582 103.636C74.6748 105.31 74.1757 107.69 73.6913 110.575C73.562 111.345 73.4344 112.151 73.3098 112.988L94.9034 119.36C96.5469 112.827 97.9532 108.4 98.0481 108.068C99.2106 104 100.38 100.195 101.551 96.6384L79.9405 90.2612ZM103.264 97.1447C102.095 100.691 100.926 104.491 99.7637 108.558C99.6615 108.916 98.2537 113.345 96.6152 119.865L119.978 126.759C120.992 123.835 122.022 120.744 123.061 117.475C123.118 117.297 124.794 111.838 126.779 104.083L103.264 97.1447ZM128.492 104.589C126.503 112.353 124.824 117.815 124.761 118.015C123.727 121.268 122.702 124.348 121.691 127.264L143.35 133.655C144.863 130.206 146.349 126.465 147.791 122.409L147.797 122.393L147.803 122.377C147.806 122.369 147.881 122.147 148.022 121.68C148.159 121.225 148.35 120.572 148.575 119.745C149.024 118.092 149.611 115.746 150.194 112.906C150.313 112.323 150.431 111.719 150.549 111.097L128.492 104.589ZM74.0313 61.8421C68.3207 66.1424 63.2532 71.4988 59.1375 77.8445C58.3371 79.0787 57.5857 80.3306 56.8825 81.5978L78.9569 88.1113C82.9655 79.4287 87.4214 72.5246 92.027 67.085L74.0313 61.8421ZM152.268 111.604C152.159 112.174 152.051 112.728 151.941 113.264C150.801 118.826 149.631 122.559 149.471 123.006L149.472 123.006C148.045 127.018 146.575 130.73 145.074 134.164L167.611 140.815C171.362 133.57 173.57 125.865 174.32 118.111L152.268 111.604ZM93.9016 67.6315C89.2684 72.9768 84.7559 79.8534 80.6869 88.6222L102.116 94.9456C105.147 85.9475 108.176 78.5989 111.08 72.6364L93.9016 67.6315ZM112.817 73.1429C109.919 79.059 106.879 86.4015 103.828 95.4506L127.217 102.352C128.406 97.6072 129.671 92.1443 130.738 86.5674C131.236 83.9624 131.689 81.3373 132.074 78.7532L112.817 73.1429ZM133.804 79.2571C133.422 81.7959 132.975 84.3636 132.49 86.9028C131.41 92.5439 130.131 98.0672 128.93 102.858L150.869 109.332C151.762 104.193 152.495 97.9842 152.478 91.5154C152.472 89.2258 152.371 86.9108 152.154 84.6039L133.804 79.2571ZM118.747 49.5924C103.678 47.931 88.3705 51.788 75.8605 60.5167L93.3174 65.6033C102.019 55.8903 111.152 51.2464 118.747 49.5924ZM153.992 85.1397C154.173 87.2791 154.257 89.4121 154.262 91.5107C154.279 98.1929 153.513 104.587 152.592 109.84L174.47 116.295C175.075 107.333 173.744 98.3505 170.617 89.9823L153.992 85.1397ZM126.608 50.9718C126.132 50.8564 125.655 50.7465 125.178 50.6426C117.448 50.6927 106.087 54.3366 95.2159 66.156L111.884 71.0127C113.42 67.9687 114.917 65.3119 116.357 63.0028C119.159 58.5119 121.754 55.3215 124.01 53.1502C124.926 52.2685 125.795 51.5461 126.608 50.9718ZM130.729 52.1219C130.148 51.9382 129.566 51.7641 128.982 51.5981C127.971 52.1257 126.71 53.0262 125.246 54.435C123.121 56.4807 120.614 59.548 117.87 63.9469C116.506 66.1333 115.086 68.6453 113.626 71.5197L132.33 76.9695C132.961 72.3681 133.349 67.9435 133.338 64.0465C133.328 60.7606 133.035 57.8944 132.39 55.6311C131.971 54.157 131.414 52.9877 130.729 52.1219ZM151.945 82.6841C150.521 71.1988 145.978 60.151 135.221 53.735C134.593 53.482 133.962 53.2392 133.329 53.0078C133.633 53.6696 133.891 54.3851 134.106 55.1425C134.814 57.6258 135.112 60.6735 135.122 64.041C135.134 68.1132 134.722 72.7184 134.061 77.4739L151.945 82.6841ZM145.982 59.3318C144.922 58.6442 143.848 57.993 142.764 57.3772C149.643 64.3464 152.738 73.7665 153.803 83.2257L169.789 87.8832C165.09 76.5662 157.039 66.5034 145.982 59.3318Z" fill="#AEF261"/>
</svg>
