<svg width="321" height="244" viewBox="0 0 321 244" fill="none" xmlns="http://www.w3.org/2000/svg">
<rect x="11.7178" y="121.797" width="284.195" height="87.542" rx="43.771" transform="rotate(-17.1404 11.7178 121.797)" fill="#AEF261"/>
<path d="M100.681 139.009C101.231 140.794 101.3 142.516 100.887 144.176C100.499 145.828 99.683 147.295 98.4403 148.576C97.2217 149.85 95.6791 150.801 93.8124 151.43L96.1556 159.028L92.7181 160.088L90.3749 152.49C88.4709 152.998 86.6484 153.084 84.9073 152.749C83.1829 152.383 81.6828 151.63 80.4071 150.491C79.148 149.321 78.2469 147.856 77.7039 146.095C77.1608 144.334 77.0837 142.627 77.4724 140.975C77.8778 139.291 78.6935 137.825 79.9195 136.575C81.1622 135.293 82.7132 134.326 84.5725 133.674L82.2292 126.075L85.6668 125.015L88.01 132.614C89.9065 132.082 91.7169 131.999 93.4414 132.365C95.1899 132.724 96.6937 133.489 97.9528 134.659C99.2285 135.798 100.138 137.248 100.681 139.009ZM92.9197 148.535C94.7474 147.866 96.0737 146.77 96.8987 145.247C97.7162 143.701 97.8311 141.975 97.2435 140.069C96.6484 138.139 95.5813 136.778 94.0422 135.984C92.5272 135.183 90.814 135.025 88.9027 135.509L92.9197 148.535ZM81.1414 145.034C81.7216 146.916 82.785 148.266 84.3316 149.083C85.8706 149.877 87.5875 150.047 89.4822 149.595L85.4652 136.569C83.6449 137.262 82.326 138.382 81.5085 139.928C80.6835 141.451 80.5612 143.153 81.1414 145.034ZM114.931 141.549C116.836 140.961 118.153 139.961 118.879 138.548L119.169 138.459L119.4 142.549C118.645 143.442 117.471 144.134 115.879 144.625C114.094 145.175 112.355 145.276 110.662 144.926C108.986 144.545 107.518 143.769 106.259 142.599C105.024 141.421 104.128 139.927 103.57 138.118C103.012 136.309 102.912 134.57 103.269 132.901C103.643 131.201 104.419 129.733 105.596 128.498C106.798 127.256 108.292 126.359 110.077 125.809C111.621 125.333 113.164 125.24 114.706 125.53C116.266 125.789 117.578 126.362 118.644 127.248L111.003 141.532C112.246 141.967 113.556 141.973 114.931 141.549ZM111.025 128.885C109.964 129.212 109.057 129.782 108.304 130.596C107.575 131.402 107.082 132.373 106.824 133.509C106.567 134.645 106.628 135.828 107.008 137.058C107.335 138.119 107.829 139.037 108.49 139.81L114.444 128.663C113.419 128.424 112.28 128.498 111.025 128.885ZM134.582 138.857C132.677 139.445 130.853 139.571 129.112 139.236C127.364 138.878 125.848 138.117 124.564 136.954C123.305 135.783 122.397 134.294 121.839 132.484C121.281 130.675 121.193 128.932 121.574 127.256C121.979 125.573 122.807 124.102 124.057 122.845C125.3 121.564 126.874 120.629 128.78 120.041C129.745 119.744 130.687 119.585 131.605 119.566C132.517 119.523 133.309 119.609 133.983 119.824L135.043 123.261L134.754 123.351C134.091 123 133.317 122.803 132.431 122.759C131.57 122.708 130.669 122.827 129.728 123.117C127.871 123.69 126.514 124.729 125.657 126.235C124.793 127.716 124.667 129.446 125.276 131.424C125.886 133.402 126.969 134.772 128.525 135.534C130.073 136.272 131.776 136.354 133.634 135.782C135.54 135.194 136.849 134.13 137.563 132.589L137.852 132.499L138.103 136.781C137.276 137.697 136.102 138.389 134.582 138.857ZM149.975 133.714L146.537 134.774L141.906 119.758L136.479 121.432L135.53 118.356L149.823 113.948L150.772 117.024L145.344 118.698L149.975 133.714ZM159.9 123.521L169.497 107.485L169.787 107.396L175.478 125.85L172.04 126.91L168.469 115.331L158.872 131.367L158.582 131.456L152.892 113.002L156.329 111.942L159.9 123.521ZM187.352 111.885C189.47 112.157 190.853 113.342 191.5 115.441C191.954 116.912 191.723 118.304 190.806 119.617C189.883 120.906 188.505 121.833 186.671 122.398L180.556 124.284L174.977 106.192L181.092 104.306C182.877 103.755 184.462 103.755 185.847 104.306C187.225 104.832 188.136 105.819 188.583 107.266C188.828 108.062 188.845 108.889 188.634 109.747C188.44 110.573 188.013 111.286 187.352 111.885ZM179.251 107.845L180.758 112.73L183.435 111.905C184.183 111.674 184.731 111.267 185.08 110.684C185.421 110.077 185.48 109.412 185.257 108.688C185.034 107.964 184.61 107.448 183.986 107.138C183.363 106.829 182.677 106.789 181.929 107.02L179.251 107.845ZM185.834 119.684C186.703 119.416 187.328 118.959 187.71 118.313C188.116 117.66 188.196 116.935 187.951 116.139C187.705 115.343 187.234 114.801 186.538 114.514C185.859 114.195 185.085 114.17 184.216 114.437L181.539 115.263L183.157 120.51L185.834 119.684ZM212.964 113.735L210.084 115.574L208.638 113.326C207.868 114.514 207.037 115.457 206.142 116.156C205.248 116.854 204.174 117.397 202.92 117.784C201.593 118.193 200.313 118.284 199.081 118.056C197.872 117.821 196.834 117.323 195.965 116.56C195.088 115.774 194.464 114.778 194.092 113.571C193.742 112.438 193.7 111.315 193.965 110.203C194.229 109.091 194.786 108.114 195.636 107.27C196.478 106.403 197.562 105.765 198.889 105.356C199.709 105.103 200.467 104.948 201.163 104.892C201.852 104.812 202.593 104.861 203.388 105.038C202.468 103.684 201.451 102.783 200.335 102.334C199.243 101.878 197.938 101.885 196.418 102.353C195.067 102.77 193.991 103.564 193.19 104.736L192.901 104.825L192.926 101.053C193.79 100.258 194.862 99.6633 196.14 99.2691C198.239 98.6219 200.135 98.6448 201.828 99.3379C203.545 100.024 205.021 101.338 206.254 103.283L212.964 113.735ZM202.534 114.733C204.415 114.152 205.937 112.877 207.1 110.907L205.249 107.991C204.434 107.661 203.656 107.492 202.913 107.483C202.163 107.45 201.39 107.556 200.594 107.802C199.364 108.181 198.46 108.804 197.881 109.669C197.327 110.527 197.21 111.474 197.529 112.511C197.849 113.549 198.468 114.269 199.385 114.673C200.302 115.077 201.352 115.097 202.534 114.733ZM218.255 92.4495L233.18 106.669L230.679 109.223L219.993 98.729L217.037 113.43L213.674 112.803L217.965 92.5388L218.255 92.4495ZM238.104 93.4612C239.261 93.1041 240.417 93.0385 241.569 93.2642C242.715 93.4658 243.718 93.9356 244.58 94.6738C245.434 95.3878 246.036 96.3117 246.385 97.4455C246.735 98.5792 246.762 99.6937 246.466 100.789C246.162 101.86 245.597 102.813 244.772 103.649C243.939 104.461 242.944 105.045 241.786 105.402L236.105 107.154L230.526 89.0617L233.963 88.0017L235.86 94.153L238.104 93.4612ZM240.893 102.507C241.762 102.24 242.388 101.743 242.771 101.017C243.179 100.283 243.238 99.4463 242.948 98.5055C242.658 97.5647 242.138 96.9062 241.388 96.5299C240.662 96.1461 239.865 96.0882 238.996 96.356L236.753 97.0478L238.65 103.199L240.893 102.507Z" fill="black"/>
</svg>
