<svg width="346" height="287" viewBox="0 0 346 287" fill="none" xmlns="http://www.w3.org/2000/svg">
<rect x="32.585" y="93.1336" width="284.195" height="87.542" rx="43.771" transform="rotate(2.55079 32.585 93.1336)" fill="#AEF261"/>
<path d="M128.36 152.189C126.493 152.106 124.81 151.614 123.308 150.713C121.832 149.814 120.686 148.6 119.87 147.073C119.054 145.521 118.689 143.799 118.773 141.907C118.857 140.016 119.374 138.346 120.323 136.897C121.273 135.424 122.523 134.304 124.073 133.539C125.649 132.776 127.369 132.435 129.236 132.519C131.102 132.602 132.772 133.106 134.247 134.03C135.749 134.931 136.907 136.145 137.724 137.672C138.54 139.2 138.906 140.909 138.822 142.8C138.738 144.692 138.221 146.374 137.271 147.848C136.322 149.297 135.06 150.403 133.484 151.167C131.934 151.931 130.226 152.272 128.36 152.189ZM128.503 148.974C129.688 149.027 130.784 148.81 131.791 148.324C132.799 147.839 133.602 147.104 134.202 146.12C134.827 145.137 135.169 143.977 135.228 142.64C135.289 141.278 135.051 140.093 134.515 139.083C134.005 138.05 133.27 137.247 132.31 136.673C131.376 136.101 130.303 135.788 129.092 135.734C127.907 135.681 126.811 135.898 125.804 136.383C124.797 136.869 123.981 137.604 123.356 138.587C122.756 139.571 122.426 140.731 122.367 142.068C122.307 143.404 122.532 144.589 123.042 145.623C123.577 146.657 124.325 147.461 125.285 148.035C126.245 148.608 127.318 148.921 128.503 148.974ZM146.169 152.603L142.575 152.443L143.418 133.529L155.334 134.06L155.19 137.275L146.868 136.905L146.169 152.603ZM171.467 142.359L171.804 134.793L175.397 134.953L174.555 153.867L170.961 153.707L171.324 145.574L161.677 145.145L161.315 153.278L157.722 153.118L158.564 134.204L162.158 134.364L161.821 141.929L171.467 142.359ZM188.677 151.654C190.669 151.742 192.245 151.244 193.405 150.158L193.708 150.172L192.547 154.1C191.536 154.687 190.198 154.943 188.533 154.869C186.667 154.786 184.996 154.294 183.52 153.395C182.07 152.471 180.95 151.246 180.159 149.72C179.393 148.195 179.052 146.487 179.136 144.596C179.22 142.704 179.712 141.033 180.61 139.582C181.535 138.107 182.76 136.987 184.285 136.221C185.835 135.456 187.543 135.115 189.409 135.198C191.023 135.27 192.508 135.703 193.862 136.496C195.243 137.265 196.286 138.246 196.991 139.44L184.984 150.314C186.008 151.143 187.239 151.59 188.677 151.654ZM189.266 138.414C188.156 138.364 187.11 138.596 186.127 139.108C185.169 139.621 184.378 140.369 183.753 141.352C183.128 142.335 182.787 143.469 182.73 144.756C182.68 145.865 182.836 146.896 183.198 147.847L192.56 139.356C191.675 138.786 190.577 138.472 189.266 138.414ZM203.4 148.329L217.838 136.464L218.141 136.478L217.282 155.77L213.688 155.61L214.227 143.505L199.788 155.37L199.486 155.357L200.345 136.064L203.939 136.224L203.4 148.329ZM209.777 133.642C207.104 133.522 205.016 132.166 203.515 129.572L205.974 127.976C206.493 128.808 207.07 129.465 207.705 129.948C208.341 130.432 209.075 130.692 209.907 130.729C210.739 130.766 211.493 130.572 212.169 130.147C212.845 129.722 213.478 129.119 214.069 128.337L216.376 130.145C214.65 132.595 212.45 133.761 209.777 133.642Z" fill="black"/>
</svg>
