<svg width="2507" height="964" viewBox="0 0 2507 964" fill="none" xmlns="http://www.w3.org/2000/svg">
<g clip-path="url(#clip0_278_989)">
<rect width="2507" height="964" fill="#AEF261"/>
<g filter="url(#filter0_f_278_989)">
<path d="M1386.26 1778.79L2507.56 1841.69C2507.56 1634.39 2388.18 942.594 2388.18 945.665C2278.23 906.048 1931.63 971.19 1936.74 1035.94C1887.22 1154.94 1745.95 999.599 1663.8 1048.61C1574.74 1101.74 1617.35 1184.89 1601.61 1247.46C1585.87 1310.03 1572.46 1340.74 1536.35 1414.06C1505.54 1476.64 1386.26 1778.79 1386.26 1778.79Z" fill="#FF801F"/>
</g>
<path d="M1926.06 1289.03C1606.45 1075.91 1468.96 1312.18 1471.48 1298.57C1439.65 1347.29 1475.01 1330.39 1304.11 1377.26C1092.81 1435.21 657.81 1081.05 633.638 1439.26C609.465 1797.47 1043.6 2180.36 1205.81 2197.98C1670.31 2248.42 1936.2 1875.88 1952.82 1855.1C2080.02 1696.08 1920.36 1289.38 1926.06 1289.03Z" fill="#AEF261"/>
<g filter="url(#filter2_f_278_989)">
<path d="M1003.21 1524.7C1132.16 1542.38 1586.74 1593.19 1629.34 1548.76L1690.9 1368.18C1519.18 1147.4 1090.48 987.986 1064.58 981.86C866.419 934.982 802.736 1122.96 799.978 1117.96C744.207 1498.04 1016.59 1521.15 1003.21 1524.7Z" fill="#EB8FFC"/>
</g>
<g filter="url(#filter3_f_278_989)">
<path d="M2562.75 1532.42C2692.96 1546.41 3152.53 1582.59 3197.94 1529.9L3269.16 1321.02C3105.2 1077.46 2677.13 916.186 2651.11 910.44C2451.95 866.465 2378.23 1083.88 2375.67 1078.31C2300.8 1514.41 2576.51 1527.73 2562.75 1532.42Z" fill="#EB8FFC"/>
</g>
<g filter="url(#filter4_f_278_989)">
<path d="M897.098 1091.06C577.485 877.945 439.996 1114.21 442.515 1100.6C410.685 1149.32 446.05 1132.42 275.148 1179.29C63.8443 1237.24 -371.152 883.082 -395.324 1241.29C-419.497 1599.5 248.985 2066.47 411.201 2084.08C875.697 2134.52 1141.59 1761.98 1158.21 1741.2C1285.41 1582.18 891.402 1091.41 897.098 1091.06Z" fill="#048A46"/>
</g>
<g filter="url(#filter5_f_278_989)">
<path d="M960.942 507.761C963.405 377.628 960.635 -79.7811 911.53 -116.877L724.979 -156.877C525.823 39.5189 417.706 483.935 414.655 510.371C391.302 712.662 585.44 753.896 580.801 757.22C964.796 768.102 955.85 494.89 960.942 507.761Z" fill="#EB8FFC"/>
</g>
<g filter="url(#filter6_f_278_989)">
<path d="M573.315 995.959C892.928 1209.07 1030.42 972.807 1027.9 986.417C1059.73 937.693 1024.36 954.595 1195.27 907.727C1406.57 849.78 1841.56 1203.94 1865.74 845.725C1889.91 487.515 1482.54 378.875 1320.32 361.26C855.825 310.819 589.936 683.36 573.314 704.141C446.113 863.16 579.01 995.605 573.315 995.959Z" fill="#FF801F"/>
</g>
<g filter="url(#filter7_f_278_989)">
<path d="M242.502 726.506C562.116 513.392 699.605 749.658 697.086 736.048C728.916 784.772 807.877 887.855 978.78 934.723C1190.08 992.67 1625.08 638.514 1649.25 996.724C1673.42 1354.93 1200.62 1571.38 1038.41 1589C573.91 1639.44 183.978 1152.49 167.356 1131.71C40.1549 972.694 248.198 726.86 242.502 726.506Z" fill="#AEF261"/>
</g>
<g filter="url(#filter8_f_278_989)">
<path d="M2323.3 668.962C2608.72 941.492 2927.68 767.126 2927.64 770.965C2936.53 425.431 2596.95 146.499 2541.9 111.162C2541.87 111.143 2541.84 111.128 2541.81 111.116C2534.85 107.396 2107.99 -118.82 1782.62 103.109C1454.56 326.87 1745.75 638.371 1745.67 646.344C2073.55 896.458 2327.06 676.68 2323.3 668.962Z" fill="#EB8FFC"/>
</g>
<g filter="url(#filter9_f_278_989)">
<path d="M397.396 1120.71C666.883 1409 489.144 1726.09 492.983 1726.09C147.375 1731.31 -127.941 1388.8 -162.692 1333.38C-162.8 1333.21 -162.798 1333.03 -162.692 1332.87V574.055C17.6908 574.055 381.774 574.055 499.331 574.055L536.746 574.055C268.794 972.143 405.073 1124.55 397.396 1120.71Z" fill="#EB8FFC"/>
</g>
<g filter="url(#filter10_f_278_989)">
<path d="M2710.39 373.616C2727.08 221.07 2585.81 84.459 2524.13 29.4668H3130.75V1185.45H2483.39C2193.71 847.061 2442.89 695.512 2498.06 636.811C2643.07 541.278 2687.17 459.557 2710.39 373.616Z" fill="#048A46"/>
</g>
<g filter="url(#filter11_f_278_989)">
<path d="M2636.83 913.274C2569.76 1060.4 2298.48 1075.3 2178.64 960.564C2129.24 913.274 2138 870.524 1967.1 823.657C1755.8 765.709 1320.8 1119.87 1296.63 761.655C1272.46 403.445 1679.83 294.805 1842.04 277.19C2306.54 226.749 2570.81 458.472 2587.43 479.253C2714.64 638.272 2716.95 737.491 2636.83 913.274Z" fill="#AEF261"/>
</g>
<g filter="url(#filter12_f_278_989)">
<path d="M696.332 875.298L-198.503 886.047C-198.503 678.749 -79.1149 112.904 -79.1149 115.975C30.8297 76.3577 150.96 193.647 145.841 258.396C195.363 377.4 336.632 222.056 418.783 271.064C507.845 324.194 465.233 407.343 480.973 469.916C496.712 532.489 510.127 563.2 546.233 636.522C577.046 699.095 696.332 875.298 696.332 875.298Z" fill="#FF801F"/>
</g>
</g>
<defs>
<filter id="filter0_f_278_989" x="1166.62" y="713.954" width="1560.58" height="1347.37" filterUnits="userSpaceOnUse" color-interpolation-filters="sRGB">
<feFlood flood-opacity="0" result="BackgroundImageFix"/>
<feBlend mode="normal" in="SourceGraphic" in2="BackgroundImageFix" result="shape"/>
<feGaussianBlur stdDeviation="109.819" result="effect1_foregroundBlur_278_989"/>
</filter>
<filter id="filter2_f_278_989" x="572.801" y="754.708" width="1337.74" height="1031.45" filterUnits="userSpaceOnUse" color-interpolation-filters="sRGB">
<feFlood flood-opacity="0" result="BackgroundImageFix"/>
<feBlend mode="normal" in="SourceGraphic" in2="BackgroundImageFix" result="shape"/>
<feGaussianBlur stdDeviation="109.819" result="effect1_foregroundBlur_278_989"/>
</filter>
<filter id="filter3_f_278_989" x="2143.12" y="684.925" width="1345.68" height="1092.3" filterUnits="userSpaceOnUse" color-interpolation-filters="sRGB">
<feFlood flood-opacity="0" result="BackgroundImageFix"/>
<feBlend mode="normal" in="SourceGraphic" in2="BackgroundImageFix" result="shape"/>
<feGaussianBlur stdDeviation="109.819" result="effect1_foregroundBlur_278_989"/>
</filter>
<filter id="filter4_f_278_989" x="-615.602" y="781.94" width="2018.75" height="1526.47" filterUnits="userSpaceOnUse" color-interpolation-filters="sRGB">
<feFlood flood-opacity="0" result="BackgroundImageFix"/>
<feBlend mode="normal" in="SourceGraphic" in2="BackgroundImageFix" result="shape"/>
<feGaussianBlur stdDeviation="109.819" result="effect1_foregroundBlur_278_989"/>
</filter>
<filter id="filter5_f_278_989" x="193.066" y="-376.515" width="988.13" height="1353.69" filterUnits="userSpaceOnUse" color-interpolation-filters="sRGB">
<feFlood flood-opacity="0" result="BackgroundImageFix"/>
<feBlend mode="normal" in="SourceGraphic" in2="BackgroundImageFix" result="shape"/>
<feGaussianBlur stdDeviation="109.819" result="effect1_foregroundBlur_278_989"/>
</filter>
<filter id="filter6_f_278_989" x="298.387" y="136.931" width="1788.02" height="1168.15" filterUnits="userSpaceOnUse" color-interpolation-filters="sRGB">
<feFlood flood-opacity="0" result="BackgroundImageFix"/>
<feBlend mode="normal" in="SourceGraphic" in2="BackgroundImageFix" result="shape"/>
<feGaussianBlur stdDeviation="109.819" result="effect1_foregroundBlur_278_989"/>
</filter>
<filter id="filter7_f_278_989" x="-93.542" y="417.388" width="1963.33" height="1394.91" filterUnits="userSpaceOnUse" color-interpolation-filters="sRGB">
<feFlood flood-opacity="0" result="BackgroundImageFix"/>
<feBlend mode="normal" in="SourceGraphic" in2="BackgroundImageFix" result="shape"/>
<feGaussianBlur stdDeviation="109.819" result="effect1_foregroundBlur_278_989"/>
</filter>
<filter id="filter8_f_278_989" x="1406.96" y="-213.933" width="1740.49" height="1255.96" filterUnits="userSpaceOnUse" color-interpolation-filters="sRGB">
<feFlood flood-opacity="0" result="BackgroundImageFix"/>
<feBlend mode="normal" in="SourceGraphic" in2="BackgroundImageFix" result="shape"/>
<feGaussianBlur stdDeviation="109.819" result="effect1_foregroundBlur_278_989"/>
</filter>
<filter id="filter9_f_278_989" x="-382.41" y="354.417" width="1149.01" height="1591.37" filterUnits="userSpaceOnUse" color-interpolation-filters="sRGB">
<feFlood flood-opacity="0" result="BackgroundImageFix"/>
<feBlend mode="normal" in="SourceGraphic" in2="BackgroundImageFix" result="shape"/>
<feGaussianBlur stdDeviation="109.819" result="effect1_foregroundBlur_278_989"/>
</filter>
<filter id="filter10_f_278_989" x="2126.18" y="-190.171" width="1224.2" height="1595.26" filterUnits="userSpaceOnUse" color-interpolation-filters="sRGB">
<feFlood flood-opacity="0" result="BackgroundImageFix"/>
<feBlend mode="normal" in="SourceGraphic" in2="BackgroundImageFix" result="shape"/>
<feGaussianBlur stdDeviation="109.819" result="effect1_foregroundBlur_278_989"/>
</filter>
<filter id="filter11_f_278_989" x="1075.96" y="50.3877" width="1834.78" height="1205.75" filterUnits="userSpaceOnUse" color-interpolation-filters="sRGB">
<feFlood flood-opacity="0" result="BackgroundImageFix"/>
<feBlend mode="normal" in="SourceGraphic" in2="BackgroundImageFix" result="shape"/>
<feGaussianBlur stdDeviation="109.819" result="effect1_foregroundBlur_278_989"/>
</filter>
<filter id="filter12_f_278_989" x="-418.141" y="-111.651" width="1334.11" height="1217.34" filterUnits="userSpaceOnUse" color-interpolation-filters="sRGB">
<feFlood flood-opacity="0" result="BackgroundImageFix"/>
<feBlend mode="normal" in="SourceGraphic" in2="BackgroundImageFix" result="shape"/>
<feGaussianBlur stdDeviation="109.819" result="effect1_foregroundBlur_278_989"/>
</filter>
<clipPath id="clip0_278_989">
<rect width="2507" height="964" fill="white"/>
</clipPath>
</defs>
</svg>
