<svg width="475" height="178" viewBox="0 0 475 178" fill="none" xmlns="http://www.w3.org/2000/svg">
<path d="M42.5001 4.21224C42.5001 2.8209 43.8516 0.0382019 49.2576 0.0382019H77.885C83.5466 0.0382019 83 3.87468 83 6.03953C89 -2.96016 107 0.539953 109.5 2.53995C112 4.53995 113 5.03985 113 5.03985C114 5.53984 115 6.03984 115.5 6.03984C117.1 6.03984 117.333 4.70728 117.5 4.041C117.667 2.70739 119.2 0.0401551 124 0.0401551C126 -0.125945 130.2 0.441684 131 4.041C131.167 4.70728 132 6.03984 134 6.03984C135.333 6.04056 138.3 5.6418 139.5 4.041C140.333 2.70729 142.5 0.0399034 144.5 0.0400152C146.167 0.0400152 149.7 0.740015 150.5 3.54002C150.833 4.37335 152.6 6.04002 157 6.04002C157.833 6.04002 159.9 5.44002 161.5 3.04002C162 2.04002 163.6 0.0400152 166 0.0400152C167.5 0.0400152 170.7 0.640015 171.5 3.04002C171.833 4.04002 174.1 6.04002 180.5 6.04002C181.833 5.87335 185.1 4.94002 187.5 2.54002C188.833 1.70668 193.2 0.0400152 200 0.0400152C203.167 0.0400152 210.2 0.540015 213 2.54002C213.5 3.70668 215 6.04002 217 6.04002C217.333 6.20668 218.3 5.64002 219.5 2.04002C220 1.37335 221.8 0.0400152 225 0.0400152C226.833 0.0400152 230.9 0.640015 232.5 3.04002C232.667 4.04002 233.5 6.04002 235.5 6.04002C236.167 6.20668 237.7 5.74002 238.5 2.54002C238.833 1.70668 240.6 0.0400152 245 0.0400152C247.167 -0.126651 251.7 0.140015 252.5 2.54002C252.667 3.70668 253.5 6.04002 255.5 6.04002C256.167 6.03968 257.9 5.33921 259.5 2.54002C260.667 1.70668 264.2 0.0400152 269 0.0400152H277.5C278.333 0.207015 280.1 1.04102 280.5 3.04102C280.667 4.04068 281.2 6.04002 282 6.04002C282.333 6.04035 283.1 5.44102 283.5 3.04102C284 2.04068 285.8 0.0400152 289 0.0400152C290.667 0.0406822 294.3 0.641816 295.5 3.04102C296 4.04068 297.5 6.04002 299.5 6.04002C300.333 5.87368 302.6 5.04102 305 3.04102C306.167 2.04068 309.9 0.0400152 315.5 0.0400152C317.5 0.0403487 322.1 0.541016 324.5 2.54102C325.167 3.70768 326.8 6.04102 328 6.04102C328.5 6.04102 329.7 5.34102 330.5 2.54102C330.667 1.70735 331.4 0.0400152 333 0.0400152H355.5C356.667 0.0403487 359.2 0.641016 360 3.04102C360.333 4.04102 361.3 6.04102 362.5 6.04102C363.167 6.04135 364.7 5.44182 365.5 3.04102C366.167 2.04068 369 0.0400152 375 0.0400152C377.833 0.0403487 383.9 0.641016 385.5 3.04102C386 4.04102 387.3 6.04102 388.5 6.04102C389 6.04135 390.3 5.44182 391.5 3.04102C392.167 2.04035 394.4 0.0392149 398 0.0400152H416.359C418.526 -0.126318 422.859 1.84102 422.859 11.041V41.041C422.526 42.3743 420.759 45.041 416.359 45.041C414.136 44.7077 412.626 45.741 412.626 52.541V76.4742C412.626 76.5004 413.118 108.484 413.114 108.541C413.048 109.578 412.515 120.539 422.459 120.539C422.459 120.539 445.093 120.61 468.322 121.342C472.845 121.451 473.974 125.602 474.244 127.784C474.279 127.476 474.303 127.154 474.314 126.817C474.315 126.712 474.316 128.067 474.317 129.652C474.328 134.77 474.435 119.451 474.32 134.311C474.319 134.436 474.318 132.5 474.317 130.564L474.317 130.401L474.317 130.082L474.317 129.51C474.316 129.256 474.316 128.957 474.316 128.609C474.313 128.55 474.309 128.486 474.305 128.418C474.273 135.489 474.358 144.703 474.32 150.412C474.278 156.713 474.251 162.01 474.251 165.4C474.251 168.753 470.073 169.461 467.983 169.396H430.789C429.989 173.793 426.125 174.58 424.292 174.425C421.094 174.425 419.628 171.072 419.295 169.396C417.867 167.255 416.949 169.702 416.359 171.275C416.123 171.904 415.94 172.394 415.797 172.394C412.299 175.391 409.8 174.425 410.3 174.425C405.503 174.425 402.637 172.199 401.805 171.085C401.433 168.601 398.57 166.578 397.336 165.706L397.336 165.706C396.911 165.406 396.679 165.242 396.807 165.242C390.81 165.242 389.811 168.309 389.811 169.396C387.485 174.977 380.828 174.525 379.517 174.436C379.419 174.429 379.351 174.425 379.317 174.425C370.122 174.425 364.491 170.347 362.826 168.309C358.618 165.267 355.118 166.64 353.82 167.149L353.819 167.149C353.576 167.244 353.41 167.31 353.331 167.31C350.133 171.635 344.669 172.742 342.337 172.755C337.539 172.755 333.675 167.746 332.342 165.242C329.144 159.231 324.331 160.511 322.324 161.903C322.324 166.077 319.959 174.425 310.498 174.425C306.838 174.425 298.672 173.757 295.294 171.085C295.012 170.807 294.28 170.585 293.604 171.92C292.337 174.425 286.002 177.096 282.623 171.085C282.409 170.663 282.25 170.081 282.076 169.446C281.562 167.572 280.924 165.242 278.4 165.242C276.992 165.242 274.176 166.244 274.176 170.251C274.176 172.199 272.318 175.593 264.884 173.59C263.758 173.312 253.672 173.089 252.32 174.425C251.476 174.981 249.279 175.593 247.252 173.59C246.126 172.755 239.2 171.753 236.497 174.425C234.526 175.538 227.555 177.548 223.5 173.541C222.951 172.998 221.786 171.243 221 169.541C220.175 167.753 219.346 165.541 219 165.541C218.001 165.541 218.595 172.136 216.5 175.541C214.389 178.973 211 176.168 209.5 174.425C207.776 172.421 204.72 169.102 196.5 168.798C188.203 168.491 192.075 176.249 184.5 176.249C176.925 176.249 179.341 165.33 179.341 165.33H51.7917C48.6945 165.33 42.5001 163.494 42.5001 156.147V115.409C42.5001 113.456 41.4526 111.409 39.5 111.409H7.50005C3.86796 111.409 -2.65263e-05 109.541 4.76408e-05 105.909C0.000139531 101.409 -9.58871e-05 55.5391 4.76408e-05 47.0391C0.000103692 43.7196 4.18059 40.0391 7.50005 40.0391H38.5C40.7092 40.0391 42.5001 38.2482 42.5001 36.0391V4.21224Z" fill="#AEF261"/>
</svg>
