<svg width="487" height="178" viewBox="0 0 487 178" fill="none" xmlns="http://www.w3.org/2000/svg">
<path d="M42.5001 4.21224C42.5001 2.8209 43.8516 0.0382019 49.2576 0.0382019H77.885C83.5466 0.0382019 83 3.87468 83 6.03953C89 -2.96016 107 0.539953 109.5 2.53995C112 4.53995 113 5.03985 113 5.03985C114 5.53984 115 6.03984 115.5 6.03984C117.1 6.03984 117.333 4.70728 117.5 4.041C117.667 2.70739 119.2 0.0401551 124 0.0401551C126 -0.125945 130.2 0.441684 131 4.041C131.167 4.70728 132 6.03984 134 6.03984C135.333 6.04056 138.3 5.6418 139.5 4.041C140.333 2.70729 142.5 0.0399034 144.5 0.0400152C146.167 0.0400152 149.7 0.740015 150.5 3.54002C150.833 4.37335 152.6 6.04002 157 6.04002C157.833 6.04002 159.9 5.44002 161.5 3.04002C162 2.04002 163.6 0.0400152 166 0.0400152C167.5 0.0400152 170.7 0.640015 171.5 3.04002C171.833 4.04002 174.1 6.04002 180.5 6.04002C181.833 5.87335 185.1 4.94002 187.5 2.54002C188.833 1.70668 193.2 0.0400152 200 0.0400152C203.167 0.0400152 210.2 0.540015 213 2.54002C213.5 3.70668 215 6.04002 217 6.04002C217.333 6.20668 218.3 5.64002 219.5 2.04002C220 1.37335 221.8 0.0400152 225 0.0400152C226.833 0.0400152 230.9 0.640015 232.5 3.04002C232.667 4.04002 233.5 6.04002 235.5 6.04002C236.167 6.20668 237.7 5.74002 238.5 2.54002C238.833 1.70668 240.6 0.0400152 245 0.0400152C247.167 -0.126651 251.7 0.140015 252.5 2.54002C252.667 3.70668 253.5 6.04002 255.5 6.04002C256.167 6.03968 257.9 5.33921 259.5 2.54002C260.667 1.70668 264.2 0.0400152 269 0.0400152H277.5C278.333 0.207015 280.1 1.04102 280.5 3.04102C280.667 4.04068 281.2 6.04002 282 6.04002C282.333 6.04035 283.1 5.44102 283.5 3.04102C284 2.04068 285.8 0.0400152 289 0.0400152C290.667 0.0406822 294.3 0.641816 295.5 3.04102C296 4.04068 297.5 6.04002 299.5 6.04002C300.333 5.87368 302.6 5.04102 305 3.04102C306.167 2.04068 309.9 0.0400152 315.5 0.0400152C317.5 0.0403487 322.1 0.541016 324.5 2.54102C325.167 3.70768 326.8 6.04102 328 6.04102C328.5 6.04102 329.7 5.34102 330.5 2.54102C330.667 1.70735 331.4 0.0400152 333 0.0400152H355.5C356.667 0.0403487 359.2 0.641016 360 3.04102C360.333 4.04102 361.3 6.04102 362.5 6.04102C363.167 6.04135 364.7 5.44182 365.5 3.04102C366.167 2.04068 369 0.0400152 375 0.0400152C377.833 0.0403487 383.9 0.641016 385.5 3.04102C386 4.04102 387.3 6.04102 388.5 6.04102C389 6.04135 390.3 5.44182 391.5 3.04102C392.167 2.04035 394.4 0.0392149 398 0.0400152H410.5C412.667 -0.126318 417 1.84102 417 11.041V41.041C416.667 42.3743 414.9 45.041 410.5 45.041H360C357.777 44.7077 353.331 45.741 353.331 52.541V76.4742C353.331 76.5004 353.823 108.484 353.82 108.541C353.753 109.578 353.377 115.409 363.321 115.409C363.321 115.409 457.028 115.48 480.257 116.211C484.78 116.32 485.909 120.472 486.179 122.654C486.215 122.346 486.239 122.023 486.25 121.687C486.251 121.582 486.251 122.936 486.252 124.522C486.264 129.639 486.37 114.321 486.256 129.181C486.255 129.305 486.254 127.37 486.253 125.434L486.253 125.271L486.252 124.952L486.252 124.38C486.251 124.126 486.251 123.827 486.251 123.479C486.248 123.413 486.244 123.341 486.239 123.264C486.187 130.952 486.137 144.679 486.099 150.412C486.057 156.713 486.029 162.01 486.029 165.4C486.029 168.753 481.851 169.461 479.762 169.396H430.789C429.989 173.793 426.125 174.58 424.292 174.425C421.094 174.425 419.628 171.072 419.295 169.396C417.867 167.255 416.949 169.702 416.359 171.275C416.123 171.904 415.94 172.394 415.797 172.394C412.299 175.391 409.8 174.425 410.3 174.425C405.503 174.425 402.637 172.199 401.805 171.085C401.433 168.601 398.57 166.578 397.336 165.706L397.336 165.706C396.911 165.406 396.679 165.242 396.807 165.242C390.81 165.242 389.811 168.309 389.811 169.396C387.485 174.977 380.828 174.525 379.517 174.436C379.419 174.429 379.351 174.425 379.317 174.425C370.122 174.425 364.491 170.347 362.826 168.309C358.618 165.267 355.118 166.64 353.82 167.149L353.819 167.149C353.576 167.244 353.41 167.31 353.331 167.31C350.133 171.635 344.669 172.742 342.337 172.755C337.539 172.755 333.675 167.746 332.342 165.242C329.144 159.231 324.331 160.511 322.324 161.903C322.324 166.077 319.959 174.425 310.498 174.425C306.838 174.425 298.672 173.757 295.294 171.085C295.012 170.807 294.28 170.585 293.604 171.92C292.337 174.425 286.002 177.096 282.623 171.085C282.409 170.663 282.25 170.081 282.076 169.446C281.562 167.572 280.924 165.242 278.4 165.242C276.992 165.242 274.176 166.244 274.176 170.251C274.176 172.199 272.318 175.593 264.884 173.59C263.758 173.312 253.672 173.089 252.32 174.425C251.476 174.981 249.279 175.593 247.252 173.59C246.126 172.755 239.2 171.753 236.497 174.425C234.526 175.538 227.555 177.548 223.5 173.541C222.951 172.998 221.786 171.243 221 169.541C220.175 167.753 219.346 165.541 219 165.541C218.001 165.541 218.595 172.136 216.5 175.541C214.389 178.973 211 176.168 209.5 174.425C207.776 172.421 204.72 169.102 196.5 168.798C188.203 168.491 192.075 176.249 184.5 176.249C176.925 176.249 179.341 165.33 179.341 165.33H51.7917C48.6945 165.33 42.5001 163.494 42.5001 156.147V115.409C42.5001 113.456 41.4526 111.409 39.5 111.409H7.50004C3.86796 111.409 -3.11122e-05 109.541 4.3055e-05 105.909C0.000134945 101.409 -0.000100473 61.041 4.3055e-05 52.541C9.91061e-05 49.2216 4.18058 45.541 7.50004 45.541H38.5C40.7092 45.541 42.5001 43.7502 42.5001 41.541V4.21224Z" fill="#AEF261"/>
</svg>
