<svg width="256" height="256" viewBox="0 0 256 256" fill="none" xmlns="http://www.w3.org/2000/svg">
<g clip-path="url(#clip0_271_592)">
<path d="M64 0C99.346 0 128 28.654 128 64V192C128 227.346 99.346 256 64 256C28.654 256 0 227.346 0 192C0 156.654 28.654 128 64 128C28.654 128 0 99.346 0 64C0 28.654 28.654 0 64 0ZM192 128C156.654 128 128 99.346 128 64C128 28.654 156.654 0 192 0C227.346 0 256 28.654 256 64V192C256 227.346 227.346 256 192 256C156.654 256 128 227.346 128 192C128 156.654 156.654 128 192 128Z" fill="#AEF261"/>
</g>
<defs>
<clipPath id="clip0_271_592">
<rect width="256" height="256" fill="white"/>
</clipPath>
</defs>
</svg>
