<svg width="444" height="191" viewBox="0 0 444 191" fill="none" xmlns="http://www.w3.org/2000/svg">
<path d="M0 4.17404V156.109C0 163.455 6.19445 165.292 9.29167 165.292H136.841C136.841 165.292 136.011 187.343 137.425 188.842C138.84 190.341 169.408 192.838 172.906 188.842C173.905 187.7 173.905 181.812 173.905 176.211C173.905 170.609 173.905 165.292 174.905 165.292C175.251 165.292 176.026 166.972 176.852 168.76C177.637 170.462 178.469 172.262 179.018 172.805C183.072 176.812 192.026 175.5 193.997 174.387C196.7 171.715 203.626 172.717 204.752 173.552C206.779 175.555 208.976 174.943 209.82 174.387C211.172 173.051 221.258 173.273 222.384 173.552C229.818 175.555 231.676 172.16 231.676 170.212C231.676 166.205 234.492 165.204 235.9 165.204C238.424 165.204 239.062 167.533 239.576 169.408C239.75 170.043 239.909 170.625 240.123 171.047C243.502 177.058 249.837 174.387 251.104 171.882C251.78 170.546 252.512 170.769 252.794 171.047C256.172 173.719 264.338 174.387 267.998 174.387C277.459 174.387 279.824 166.038 279.824 161.864C281.831 160.473 286.644 159.193 289.842 165.204C291.175 167.708 295.039 172.717 299.837 172.717C302.169 172.704 307.633 171.597 310.831 167.271C310.91 167.271 311.076 167.206 311.319 167.111C312.618 166.601 316.118 165.229 320.326 168.271C321.991 170.309 327.622 174.387 336.817 174.387C336.851 174.387 336.919 174.391 337.016 174.398C338.328 174.487 344.985 174.939 347.311 169.358C347.311 168.271 348.31 165.204 354.307 165.204C354.179 165.204 354.411 165.368 354.836 165.668C356.07 166.54 358.933 168.563 359.304 171.047C360.137 172.16 363.002 174.387 367.8 174.387C367.3 174.387 369.799 175.353 373.297 172.356C373.44 172.356 373.623 171.866 373.859 171.237C374.449 169.664 375.367 167.217 376.795 169.358C377.128 171.034 378.594 174.387 381.792 174.387C383.625 174.542 387.489 173.754 388.289 169.358H437.262C439.351 169.423 443.529 168.715 443.529 165.361C443.529 161.972 443.557 156.675 443.599 150.374C442.653 149.208 440.06 147.576 437.262 150.374H413.275C408.778 150.374 406.779 147.876 406.779 144.879V133.388C406.779 130.82 409.777 129.142 413.275 129.142H437.262C439.341 129.142 443.55 127.644 443.75 121.649L443.753 125.233L443.753 125.396L443.756 129.142C443.876 113.462 444 97.369 444 89.4251C443.919 87.7465 442.459 84.3579 437.262 84.2326C414.033 83.501 320.326 83.4301 320.326 83.4301C310.382 83.4301 310.758 77.5992 310.824 76.5623C310.828 76.5049 310.831 76.4622 310.831 76.436C310.831 54.854 307.832 39.9665 304.834 35.9699C303.611 34.3395 304.471 31.4055 307.333 29.9749C312.33 27.477 310.165 23.1473 308.832 20.9824C308.832 20.9824 305.334 16.9858 301.836 14.9874C298.338 12.9891 292.516 12.9891 290.157 12.9891C284.495 12.9891 281.468 13.8557 280.552 14.9874C278.934 16.9858 277.307 18.9841 275.497 18.9841C273.868 18.9841 273.27 17.6865 272.797 16.6598C272.683 16.4124 272.576 16.1806 272.464 15.9866C270.847 13.189 268.266 12.292 266.904 13.4887C265.842 14.4217 265 15.2185 264.289 15.8919C261.953 18.1034 261.023 18.9841 258.31 18.9841C256.296 18.9841 255.018 17.3003 253.961 15.9072C253.532 15.3425 253.14 14.8255 252.75 14.4879C249.514 11.6902 245.167 13.4887 244.156 14.9874C241.892 18.3439 240.618 18.9841 239.607 18.9841C238.393 18.9841 236.717 17.6267 236.068 16.9858C232.833 13.7884 227.475 12.9891 224.947 12.9891C218.477 12.9891 214.837 14.4879 213.321 15.9866C207.749 21.4932 207.753 18.2205 207.76 13.483C207.76 13.32 207.76 13.1553 207.76 12.9891H181.98C181.98 23.4803 179.015 17.4611 178.441 15.9866C175.914 9.49205 158.019 14.4879 155.188 17.9849C153.571 19.9833 151.818 18.8176 151.144 17.9849C147.606 13.6136 140.023 12.9891 134.968 12.9891C126.476 12.9891 121.825 15.9866 120.814 17.9849C119.803 20.9824 117.276 19.4837 117.276 18.9841C117.276 13.4887 100.763 12.1565 94.0229 12.9891C89.9789 13.3888 87.9569 17.1523 87.4514 18.9841H69.7589C58.1324 8.99247 45.4949 13.4887 42.4619 18.9841V6.49456C42.4619 4.32971 41.0465 0 35.3849 0H6.75758C1.35152 0 0 2.78269 0 4.17404Z" fill="#AEF261"/>
</svg>
