<svg width="382" height="146" viewBox="0 0 382 146" fill="none" xmlns="http://www.w3.org/2000/svg">
<path d="M0 126.534L0.120669 4.17404C0.120669 2.78269 1.47219 0 6.87825 0C12.2843 0 13.7149 1.3615 16.1207 3.5C20.6207 7.5 19.386 12.9881 22.1207 13C24.6207 13.0109 24.6207 9.5 27.6207 5.5C29.9453 2.40054 30.9591 0 36.6207 0C42.2823 0 44.6207 4.32971 44.6207 6.49456V18.9841C47.6537 13.4887 58.2531 8.99247 69.8796 18.9841H83.1207C83.6262 17.1523 87.1207 13 91.1207 13C94.1207 13 97.5822 14 100.082 18.9841C100.341 19.5 102.08 20.748 103.621 17.9849C106.121 13.5 110.621 13 114.121 13C119.176 13 120.538 13.6136 124.077 17.9849C124.751 18.8176 126.458 19.9457 128.121 17.9849C133.621 11.5 140.593 11.4904 143.121 17.9849C147.287 18.1566 156.321 21.7 159.121 34.5C158.621 34.5 165.121 39 171.621 34.5C172.954 33.5 176.321 32.1 179.121 34.5H197.121C198.787 33.5 202.821 32.1 205.621 34.5C208.287 35.5 214.521 36.9 218.121 34.5H244.621C246.954 34.6667 251.621 36 251.621 40V65C251.287 65.6667 249.421 69 244.621 69C244.554 70.0369 240.677 88.6226 250.621 88.6226C250.621 88.6226 340.68 87.891 363.909 88.6226L364.061 88.6263C369.335 88.7532 381.041 89.035 381.121 90.6975C381.121 98.6414 381.121 83.0845 381 98.7647C380.999 98.8895 380.998 96.9537 380.997 95.0178L380.997 94.8548L380.997 94.5359L380.994 91.271C380.939 98.4954 380.884 113.846 380.843 119.996C380.801 126.297 380.774 131.594 380.774 134.984C380.774 138.337 376.596 139.045 374.506 138.98H260.692C255.895 138.98 250.453 137.794 249.121 135.29C245.922 129.279 243.575 130.898 241.568 132.289C241.568 136.463 239.203 144.811 229.743 144.811C226.082 144.811 217.917 144.143 214.538 141.472C214.256 141.194 213.524 140.971 212.849 142.307C211.582 144.811 205.246 147.483 201.868 141.472C201.654 141.05 201.494 140.467 201.32 139.833L201.32 139.833C200.807 137.958 200.168 135.628 197.644 135.628C196.236 135.628 193.421 136.63 193.421 140.637C193.421 142.585 191.562 145.98 184.129 143.977C183.003 143.698 172.916 143.476 171.565 144.811C170.72 145.368 168.524 145.98 166.497 143.977C165.37 143.142 158.444 142.14 155.741 144.811C153.77 145.924 144.817 147.237 140.762 143.23C140.213 142.687 139.382 140.887 138.596 139.185C137.771 137.397 137.766 135.717 136.841 135.717H9.29167C6.19445 135.717 0 133.88 0 126.534Z" fill="#AEF261"/>
</svg>
