<svg width="355" height="278" viewBox="0 0 355 278" fill="none" xmlns="http://www.w3.org/2000/svg">
<ellipse cx="169.023" cy="160.443" rx="152.234" ry="35.4436" transform="rotate(9.90463 169.023 160.443)" fill="#AEF261"/>
<path d="M189.043 49.5667C162.211 42.4394 138.594 80.6856 130.139 100.7C118.263 121.018 105.336 134.504 98.9329 139.973C123.328 154.376 159.297 164.091 174.232 167.148C196.778 172.611 223.313 168.386 233.762 165.591C229.396 165.54 224.749 119.383 222.971 96.3105C221.574 61.7837 199.771 50.7618 189.043 49.5667Z" fill="#AEF261"/>
<path d="M177.321 132.718C157.634 128.365 133.854 115.845 124.425 110.129C110.646 131.502 99.1093 140.042 99.7047 140.273C119.846 151.929 155.644 162.673 171.025 166.588C190.343 171.894 220.899 168.134 233.763 165.591C229.767 164.588 226.881 142.136 225.937 131.035C203.948 138.258 176.495 133.082 177.321 132.718Z" fill="#EB8FFC"/>
<path d="M112.493 126.748C111.867 131.301 113.096 139.315 121.201 143.146C122.392 143.609 131.919 147.307 137.502 136.456C138.539 134.439 138.72 128.021 134.916 127.23C134.321 126.999 125.425 126.971 128.64 139.868C129.508 143.348 134.308 148.92 143.331 149.681C147.608 150.428 157.618 150.294 163.435 143.782C164.757 141.554 166.328 136.683 162.041 135.019C160.254 134.325 156.2 134.533 154.272 140.91C153.448 145.387 154.512 155.118 165.362 158.234C170.677 159.84 182.892 160.379 189.235 149.686C190.358 147.381 191.533 142.356 187.245 140.692C185.459 139.998 181.788 140.629 179.477 146.583C179.01 147.786 174.161 160.279 193.509 161.623C197.39 162.216 206.314 161.112 210.965 151.955C212.242 149.253 213.798 143.599 209.802 142.596C207.465 142.146 202.976 143.235 203.722 151.199C204.651 157.041 211.106 165.713 229.487 153.663" stroke="#AEF261" stroke-width="3.28852"/>
</svg>
