<svg width="1409" height="525" viewBox="0 0 1409 525" fill="none" xmlns="http://www.w3.org/2000/svg">
<path d="M25.3701 226.309C16.1438 226.317 0.174502 212.524 0.163446 199.104C0.154173 187.848 0.163445 149.216 18.5919 149.216C37.0203 149.216 264.352 149.014 264.352 149.014C262.088 115.465 236.671 88.7631 187.982 124.375C170.379 137.251 141.326 141.988 113.125 119.197C80.9843 93.2227 129.596 -5.15477 224.223 13.5553C252.746 20.5215 310.034 40.274 321.53 148.967C321.53 148.967 358.718 148.925 374.944 148.923C391.171 148.92 406.17 205.797 399.47 217.545C392.611 229.572 360.613 226.465 344.509 226.478C344.581 313.988 355.584 490.862 355.603 513.005C348.899 520.28 285.295 530.008 265.151 512.579C264.312 512.58 264.294 298.244 271.783 226.106L210.18 226.157C233.769 352.789 188.893 342.244 149.767 361.008C162.525 371.734 214.443 442.839 236.927 477.471C235.598 492.234 169.846 517.638 162.857 518.483C121.736 491.677 74.7283 425.506 46.1838 392.818C-2.85408 336.662 18.3895 281.084 32.6441 275.94C74.5692 260.807 99.5401 287.627 100.379 287.626C164.788 279.521 151.555 259.475 138.388 226.216L25.3701 226.309Z" fill="#EB8FFC"/>
<path d="M501.161 292.107C538.426 302.721 558.825 275.197 563.862 261.642C581.88 213.157 509.655 219.87 488.734 204.681C469.712 187.59 484.802 168.57 533.373 168.53C579.942 168.491 624.295 177.958 618.981 256.845C613.348 340.484 510.722 361.478 510.722 360.527C508.812 350.074 499.295 334.51 489.784 325.38C473.615 309.858 424.869 305.475 409.004 330.198C383.987 369.186 424.266 396.714 489.851 406.164C512.691 443.4 567.857 496.386 587.837 522.03C609.696 522.012 653.18 489.395 657.609 481.789C639.533 458.994 550.132 381.136 550.123 370.681C572.929 366.861 664.655 358.175 697.145 316.332C766.555 226.938 696.166 126.882 638.171 102.219C583.029 78.7703 478.268 82.2228 446.997 147.369C410.944 222.481 471.373 280.727 501.161 292.107Z" fill="#EB8FFC"/>
<path fill-rule="evenodd" clip-rule="evenodd" d="M813.711 512.524C826.484 528.553 883.403 524.649 889.678 513.614C901.807 492.286 885.007 316.981 879.232 225.563C974.391 225.134 1036.82 225.197 1131.96 223.108C1132.26 289.15 1129.62 305.414 1129.62 305.414C1129.41 313.166 1130.03 339.16 1129.81 347.192C1128.17 407.82 1120.78 504.718 1131.77 513.416C1142.77 522.113 1189.22 523.586 1197.4 512.543C1203.69 504.047 1191.59 225.302 1191.59 225.302C1222.91 225.161 1247.02 226.398 1280.88 224.834C1278.87 248.162 1277.09 354.585 1275.22 436.777C1274.1 485.897 1273 508.756 1278.1 512.967C1306.62 523.917 1331.32 522.399 1354.35 512.636C1353.53 480.126 1342.11 313.442 1339.17 224.834C1373.88 224.677 1392.17 224.9 1402.67 213.192C1413.17 201.484 1405.17 149.692 1375.67 149.692C1356.55 149.692 1356.17 149.692 1349.67 149.692C1358.64 132.799 1375.08 73.1241 1324.92 27.6288C1278.17 -9.30873 1179.85 -10.4266 1143.46 38.5779C1107.07 87.5824 1122.17 129.691 1129.67 149.692C1098.34 149.834 882.611 149.232 784.679 149.957C754.211 152.804 750.561 201.017 758.966 213.183C770.046 229.221 818.955 225.613 818.955 225.613C813.426 313.695 800.938 496.494 813.711 512.524ZM1202.67 79.1913C1186.67 96.6913 1184.67 125.191 1191.52 149.692L1290.46 149.279C1296.17 125.548 1297.72 96.6913 1279.67 79.1913C1261.62 61.6913 1218.67 61.6913 1202.67 79.1913Z" fill="#EB8FFC"/>
<path d="M1129.62 305.414C1084.76 301.665 978.616 280.63 954.116 292.594C929.616 304.559 917.567 349.488 928.255 378.228C934.46 394.912 969.984 431.382 1015.62 412.548C1034.39 404.801 1033.83 374.233 1033.58 354.343C1033.58 354.343 1127.11 348.559 1129.81 347.192C1130.03 339.16 1129.41 313.166 1129.62 305.414Z" fill="#EB8FFC"/>
</svg>
