<svg width="392" height="565" viewBox="0 0 392 565" fill="none" xmlns="http://www.w3.org/2000/svg">
<path d="M13.6634 115.974C8.69277 115.978 0.0892779 108.547 0.0833217 101.317C0.0783257 95.253 0.0833212 74.4401 10.0117 74.4401C19.94 74.4401 142.416 74.331 142.416 74.331C141.196 56.2569 127.502 41.8709 101.271 61.0571C91.7873 67.9937 76.1349 70.546 60.9417 58.2674C43.6257 44.2735 69.8155 -8.72748 120.796 1.3526C136.163 5.10564 167.026 15.7474 173.22 74.3056C173.22 74.3056 193.255 74.2834 201.997 74.2819C210.739 74.2805 218.82 104.923 215.21 111.252C211.515 117.732 194.276 116.058 185.6 116.065C185.639 163.211 191.567 258.502 191.577 270.432C187.965 274.351 153.699 279.592 142.846 270.202C142.394 270.203 142.384 154.729 146.419 115.865L113.23 115.892C125.939 184.115 101.762 178.434 80.6823 188.543C87.5556 194.322 115.527 232.63 127.64 251.288C126.924 259.242 91.5 272.928 87.7347 273.383C65.5808 258.941 40.2553 223.291 24.8769 205.681C-1.54237 175.427 9.90266 145.484 17.5823 142.713C40.1695 134.56 53.6226 149.009 54.0745 149.009C88.7752 144.642 81.646 133.842 74.5518 115.924L13.6634 115.974Z" fill="#EB8FFC"/>
<path d="M269.996 151.42C290.072 157.138 301.062 142.31 303.776 135.007C313.483 108.886 274.572 112.502 263.301 104.319C253.053 95.1111 261.182 84.8641 287.35 84.8425C312.439 84.8219 336.334 89.9222 333.471 132.423C330.436 177.483 275.147 188.794 275.146 188.282C274.118 182.65 268.991 174.265 263.866 169.346C255.155 160.983 228.893 158.622 220.346 171.942C206.868 192.946 228.568 207.777 263.902 212.868C276.207 232.93 305.928 261.476 316.692 275.292C328.469 275.282 351.896 257.71 354.282 253.611C344.544 241.331 296.379 199.384 296.374 193.752C308.661 191.694 358.078 187.015 375.582 164.471C412.977 116.31 375.055 62.4046 343.81 49.1178C314.102 36.4846 257.662 38.3446 240.815 73.4425C221.391 113.909 253.947 145.289 269.996 151.42Z" fill="#EB8FFC"/>
<path fill-rule="evenodd" clip-rule="evenodd" d="M45.3661 558.71C52.2475 567.346 82.9128 565.243 86.2938 559.297C92.8279 547.807 83.7771 453.361 80.6656 404.11C131.933 403.878 165.567 403.912 216.822 402.787C216.983 438.367 215.564 447.129 215.564 447.129C215.448 451.306 215.782 465.31 215.665 469.637C214.784 502.301 210.798 554.505 216.722 559.191C222.646 563.876 247.67 564.67 252.079 558.72C255.47 554.143 248.947 403.969 248.947 403.969C265.825 403.893 278.813 404.559 297.055 403.717C295.97 416.285 295.012 473.62 294.004 517.901C293.402 544.365 292.811 556.68 295.558 558.949C310.92 564.848 324.227 564.031 336.636 558.771C336.192 541.256 330.115 451.641 328.531 403.904C347.233 403.819 357.398 407.349 361.928 400.486C366.459 393.623 364.153 366.074 352.462 363.207C341.502 360.519 337.768 360.758 328.496 361.408C333.328 352.307 347.806 321.983 320.782 297.472C300.185 282.056 242.624 276.97 223.019 303.371C203.415 329.772 213.349 342.932 215.493 362.083C198.616 362.159 82.4861 362.986 29.7252 363.377C13.3104 364.91 11.3443 390.886 15.8725 397.44C21.8416 406.08 48.1917 404.136 48.1917 404.136C45.2128 451.591 38.4847 550.074 45.3661 558.71ZM256.683 323.738C244.321 335.432 245.01 350.363 248.913 362.234L302.217 362.011C302.147 346.502 304.533 336.067 295.366 326.529C286.2 316.991 263.936 316.876 256.683 323.738Z" fill="#EB8FFC"/>
<path d="M215.564 447.129C191.394 445.11 134.209 433.777 121.01 440.223C107.81 446.669 101.319 470.875 107.077 486.358C110.42 495.347 129.558 514.995 154.145 504.848C164.258 500.674 163.958 484.206 163.819 473.49C163.819 473.49 214.21 470.374 215.665 469.637C215.782 465.31 215.448 451.306 215.564 447.129Z" fill="#EB8FFC"/>
</svg>
