<svg width="296" height="195" viewBox="0 0 296 195" fill="none" xmlns="http://www.w3.org/2000/svg">
<rect y="114.793" width="284.195" height="87.542" rx="43.771" transform="rotate(-23.8237 0 114.793)" fill="#AEF261"/>
<path d="M100.609 122.456L110.133 97.431L110.41 97.3086L121.268 121.903L117.804 123.433L110.264 106.355L100.74 131.379L100.463 131.502L89.6055 106.907L93.0695 105.378L100.609 122.456ZM133.988 103.87L130.929 96.9422L134.22 95.4894L141.867 112.81L138.576 114.262L135.288 106.815L126.455 110.714L129.742 118.162L126.452 119.615L118.805 102.295L122.096 100.842L125.155 107.77L133.988 103.87ZM147.333 89.2865L161.454 100.644L164.294 99.3902L167.658 107.011L164.541 108.387L162.476 103.711L147.581 110.287L149.645 114.963L146.528 116.34L143.163 108.719L146.004 107.465L147.056 89.4088L147.333 89.2865ZM149.302 106.216L158.205 102.286L149.817 95.4749L149.302 106.216ZM168.734 93.4978L176.401 76.4541L176.678 76.3318L184.477 93.9984L181.186 95.4512L176.293 84.3662L168.626 101.41L168.349 101.532L160.55 83.8657L163.841 82.4129L168.734 93.4978ZM192.604 69.7146L200.251 87.0348L196.96 88.4876L194.207 82.2524L192.51 83.0017L190.462 91.7702L187.342 91.0781L189.186 83.7239C187.95 83.8003 186.832 83.5489 185.831 82.9697C184.821 82.3674 184.06 81.4889 183.55 80.3343C183.092 79.295 182.933 78.2476 183.074 77.1919C183.228 76.103 183.66 75.1121 184.369 74.2194C185.079 73.3266 186.023 72.6202 187.2 72.1003L192.604 69.7146ZM192.984 79.4811L190.537 73.9387L188.354 74.9021C187.569 75.2487 187.023 75.7933 186.716 76.5359C186.422 77.2451 186.464 78.027 186.841 78.8815C187.218 79.7359 187.773 80.305 188.506 80.5888C189.228 80.8495 189.993 80.8014 190.801 80.4446L192.984 79.4811Z" fill="black"/>
</svg>
