<svg width="393" height="407" viewBox="0 0 393 407" fill="none" xmlns="http://www.w3.org/2000/svg">
<path d="M193.455 0.00976562C247.512 0.00976562 257.661 40.6478 257.661 46.3037C257.661 47.203 257.643 49.9583 257.616 54.0254C257.513 69.9361 257.281 105.934 257.477 129.528H201.02V114.171H189.581V129.528H133.124C133.124 109.767 133.121 78.223 133.014 60.0762C132.97 52.7485 133.014 47.7816 133.014 46.4805C134.736 32.4624 144.563 0.00980135 193.455 0.00976562ZM189.748 36.6133V77.8281H200.816V36.6133H189.748Z" fill="#EB8FFC"/>
<path d="M193.451 276.979C247.508 276.979 257.657 317.617 257.657 323.272C257.657 324.172 257.639 326.927 257.612 330.994C257.509 346.905 257.277 382.903 257.473 406.497H201.016V391.14H189.577V406.497H133.12C133.12 386.736 133.117 355.192 133.01 337.045C132.966 329.717 133.01 324.75 133.01 323.449C134.732 309.431 144.559 276.979 193.451 276.979ZM189.742 313.58V354.795H200.811V313.58H189.742Z" fill="#EB8FFC"/>
<path d="M377.061 0.0175781H393L392.718 129.546H377.061V129.561H265.979V93.7598H306.995L307.02 82.6523H265.979V46.8516H307.098L307.121 35.8105H265.979V0.00976562H377.061V0.0175781Z" fill="#EB8FFC"/>
<path d="M56.6465 161.575V239.201L70.4736 267.615H39.9326V138.176H70.4736L56.6465 161.575Z" fill="#EB8FFC"/>
<path d="M161.4 192.943L195.342 154.297V154.586L209.312 138.107H257.662V138.458L257.667 138.459V138.461H257.662V267.305L243.462 267.656L229.262 267.305L230.342 198.868L195.342 243.209V243.35L176.224 267.656H133V138.459L147.2 138.107H161.4V192.943Z" fill="#EB8FFC"/>
<path d="M62.6543 0C71.0848 -3.42222e-07 79.4329 1.54202 87.2217 4.53809C95.0105 7.53417 102.088 11.9259 108.049 17.4619C114.01 22.9979 118.326 29.5725 121.552 36.8057C124.059 42.4275 124.589 48.3014 124.82 54.3623H124.986C124.958 55.2418 124.934 56.1178 124.908 56.9902C124.934 57.8627 124.958 58.7387 124.986 59.6182H124.82C124.589 65.6791 124.059 71.553 121.552 77.1748C118.326 84.408 114.01 90.9825 108.049 96.5186C102.088 102.055 95.0105 106.446 87.2217 109.442C79.4329 112.438 71.0848 113.98 62.6543 113.98C56.5175 113.98 48.688 113.98 41.7441 113.98V117.352C41.6821 117.341 41.6198 117.331 41.5576 117.32V129.361H0.207031V74.9619C0.137306 74.786 0.0679304 74.61 0 74.4336V54.3623H0.000976562V39.5449C0.0685464 39.3694 0.137697 39.1945 0.207031 39.0195V0.172852H34.0342C34.1768 0.113446 34.3198 0.0554057 34.4639 0C42.5989 -8.89425e-06 54.2238 3.42126e-07 62.6543 0ZM56.9512 36.6113V77.8262H68.0195V36.6113H56.9512Z" fill="#EB8FFC"/>
<rect x="328.139" y="278.416" width="90.0198" height="90.0198" transform="rotate(44.5331 328.139 278.416)" fill="#EB8FFC"/>
<path d="M328.109 137.441C408.295 137.442 390.82 267.679 390.793 267.877H332.539V227.547H321.471V267.877H265.505C265.477 267.671 247.926 137.442 328.109 137.441Z" fill="#EB8FFC"/>
<path d="M85.2773 138.32C90.6025 138.32 95.8761 139.294 100.796 141.187C105.716 143.079 110.187 145.854 113.952 149.351C117.717 152.847 120.444 157.001 122.481 161.569C124.439 165.959 124.49 170.593 124.634 175.392H124.651C124.648 175.49 124.646 175.588 124.643 175.686C124.646 175.783 124.648 175.882 124.651 175.979H124.634C124.49 180.778 124.439 185.412 122.481 189.802C120.444 194.371 117.718 198.524 113.952 202.021C113.559 202.386 113.156 202.741 112.747 203.091C113.156 203.44 113.559 203.796 113.952 204.161C117.718 207.658 120.444 211.811 122.481 216.38C124.439 220.768 124.49 225.399 124.634 230.196H124.651C124.648 230.295 124.645 230.394 124.642 230.493C124.645 230.592 124.648 230.691 124.651 230.79H124.634C124.49 235.587 124.439 240.218 122.481 244.606C120.444 249.175 117.718 253.328 113.952 256.825C110.187 260.322 105.716 263.097 100.796 264.989C95.876 266.882 90.6026 267.855 85.2773 267.855C79.952 267.855 72.6085 267.855 67.4697 267.855C62.5497 265.963 58.9746 260.322 55.209 256.825C51.4435 253.328 48.4568 249.176 46.4189 244.607C46.1569 244.02 45.9118 243.427 45.6826 242.829V218.157C45.9118 217.56 46.1569 216.966 46.4189 216.379C48.4569 211.81 51.4443 207.658 55.21 204.161C55.5735 203.823 55.9325 203.463 56.2939 203.091C55.9324 202.718 55.5727 202.358 55.209 202.021C51.4435 198.524 48.4568 194.372 46.4189 189.803C46.1569 189.215 45.9118 188.622 45.6826 188.024V163.346C45.9117 162.748 46.1571 162.156 46.4189 161.568C48.4568 156.999 51.4436 152.848 55.209 149.351C58.9746 145.854 62.5498 140.213 67.4697 138.32C72.6085 138.32 79.9521 138.32 85.2773 138.32ZM41.541 148.177C41.6071 148.164 41.6732 148.151 41.7393 148.139V255.674C41.6733 255.662 41.6071 255.652 41.541 255.641V267.682H0.19043V138.493H41.541V148.177ZM58.0518 237.424H99.2666V226.355H58.0518V237.424ZM58.0518 167.199V178.268H99.2666V167.199H58.0518Z" fill="#EB8FFC"/>
<path d="M56.7129 318.127H67.7812V302.717H67.8027V276.973H124.683V406.524H67.8027V364.923H56.7549V406.457H0.00976562V276.973H56.7129V318.127ZM85.4336 341.904L124.647 358.275V325.532L85.4336 341.904Z" fill="#EB8FFC"/>
</svg>
