<svg width="1068" height="1105" viewBox="0 0 1068 1105" fill="none" xmlns="http://www.w3.org/2000/svg">
<path d="M525.723 0.0292969C672.629 0.0294713 700.205 110.471 700.205 125.837C700.205 128.281 700.157 135.767 700.085 146.819C699.805 190.057 699.172 287.883 699.704 352.003H546.279V310.269H515.193V352.003H361.769C361.769 298.3 361.761 212.579 361.468 163.264C361.35 143.351 361.468 129.854 361.468 126.317C366.147 88.2229 392.855 0.0292969 525.723 0.0292969ZM515.65 99.5039V211.51H545.73V99.5039H515.65Z" fill="#EB8FFC"/>
<path d="M525.712 752.713C672.618 752.713 700.194 863.154 700.194 878.521C700.194 880.964 700.146 888.45 700.074 899.503C699.794 942.741 699.161 1040.57 699.693 1104.69H546.269V1062.95H515.183V1104.69H361.758C361.758 1050.98 361.75 965.263 361.457 915.948C361.339 896.035 361.457 882.537 361.457 879.001C366.137 840.906 392.844 752.713 525.712 752.713ZM515.634 852.181V964.186H545.714V852.181H515.634Z" fill="#EB8FFC"/>
<path d="M1024.68 0.0488281H1068V352.049H1024.68V352.095H722.81V254.804H834.276L834.342 224.612H722.81V127.322H834.554L834.618 97.3193H722.81V0.0292969H1024.68V0.0488281Z" fill="#EB8FFC"/>
<path d="M153.938 439.099V650.054L191.513 727.27H108.517V375.51H191.513L153.938 439.099Z" fill="#EB8FFC"/>
<path d="M700.211 375.326L700.21 376.286L700.222 376.287V376.293H700.211L700.21 726.426L661.621 727.382L623.031 726.426L625.966 540.445L530.851 660.943V661.333L478.895 727.389H361.432V376.287L400.021 375.331H438.612V524.351L530.851 419.327V420.105L568.813 375.324H659.617L700.211 375.326Z" fill="#EB8FFC"/>
<path d="M170.265 0C193.175 6.15509e-05 215.861 4.19014 237.027 12.332C258.194 20.4741 277.427 32.4088 293.627 47.4531C309.827 62.4974 321.554 80.3644 330.321 100.021C337.138 115.305 338.578 131.276 339.207 147.755L339.655 147.756C339.579 150.141 339.511 152.518 339.441 154.885C339.511 157.252 339.579 159.63 339.655 162.016H339.208C338.579 178.494 337.139 194.466 330.321 209.75C321.554 229.406 309.827 247.273 293.627 262.317C277.427 277.362 258.194 289.297 237.027 297.438C215.861 305.58 193.175 309.771 170.265 309.771C153.588 309.771 132.312 309.771 113.442 309.771V318.92C113.273 318.891 113.103 318.864 112.934 318.834V351.555H0.560547V203.737C0.372199 203.262 0.183468 202.787 0 202.311V107.459C0.183645 106.982 0.371998 106.506 0.560547 106.03V0.477539H92.4668C92.8607 0.313221 93.2563 0.153088 93.6543 0C115.762 -2.41711e-05 147.354 9.30007e-07 170.265 0ZM154.767 99.4961V211.502H184.847V99.4961H154.767Z" fill="#EB8FFC"/>
<rect x="892.733" y="756.623" width="244.635" height="244.635" transform="rotate(44.5331 892.733 756.623)" fill="#EB8FFC"/>
<path d="M893.153 373.506C1111.1 373.506 1063.56 727.551 1063.5 727.973H908.08V618.372H878V727.973H721.521C721.469 727.57 675.199 373.506 893.153 373.506Z" fill="#EB8FFC"/>
<path d="M231.741 375.9C246.213 375.9 260.544 378.548 273.914 383.691C287.284 388.835 299.434 396.373 309.667 405.876C319.9 415.379 327.308 426.666 332.847 439.082C338.167 451.011 338.305 463.601 338.694 476.641H338.742C338.734 476.907 338.726 477.175 338.718 477.441C338.726 477.708 338.734 477.976 338.742 478.243H338.694C338.305 491.283 338.167 503.873 332.847 515.802C327.309 528.218 319.9 539.505 309.667 549.008C308.6 549.999 307.51 550.967 306.402 551.915C307.51 552.863 308.6 553.831 309.667 554.822C319.9 564.325 327.308 575.612 332.847 588.028C338.165 599.952 338.305 612.538 338.694 625.572H338.742C338.734 625.842 338.726 626.112 338.718 626.381C338.726 626.65 338.734 626.92 338.742 627.189H338.694C338.305 640.224 338.165 652.81 332.847 664.733C327.309 677.15 319.9 688.436 309.667 697.939C299.434 707.442 287.284 714.981 273.914 720.124C260.544 725.267 246.213 727.915 231.741 727.915C217.269 727.915 197.313 727.915 183.348 727.915C169.978 722.772 160.263 707.443 150.03 697.939C139.797 688.436 131.679 677.154 126.141 664.737C125.429 663.142 124.762 661.53 124.14 659.906V592.855C124.762 591.232 125.429 589.62 126.141 588.024C131.679 575.608 139.797 564.325 150.03 554.822C151.02 553.903 152.005 552.929 152.988 551.915C152.004 550.901 151.02 549.927 150.03 549.008C139.797 539.505 131.679 528.221 126.141 515.805C125.429 514.209 124.762 512.598 124.14 510.975V443.909C124.762 442.286 125.429 440.674 126.141 439.078C131.679 426.662 139.797 415.379 150.03 405.876C160.263 396.373 169.978 381.043 183.348 375.9C197.313 375.9 217.269 375.9 231.741 375.9ZM112.884 402.693C113.064 402.658 113.244 402.624 113.424 402.59V694.824C113.244 694.793 113.063 694.765 112.884 694.733V727.454H0.510742V376.377H112.884V402.693ZM157.753 645.227H269.758V615.146H157.753V645.227ZM157.753 454.389V484.469H269.758V454.389H157.753Z" fill="#EB8FFC"/>
<path d="M154.113 864.536H184.193V822.661H184.252V752.701H338.826V1104.76H184.252V991.709H154.231V1104.58H0.0214844V752.701H154.113V864.536ZM232.167 929.157L338.732 973.646V884.666L232.167 929.157Z" fill="#EB8FFC"/>
</svg>
