<svg width="1388" height="236" viewBox="0 0 1388 236" fill="none" xmlns="http://www.w3.org/2000/svg">
<path d="M951.036 0.449454L982.665 32.2963L951.036 62.8346L919.844 32.2963L951.036 0.449454Z" fill="#EB8FFC"/>
<path d="M951.035 62.9434C1057.82 62.9436 1034.39 235.058 1034.34 235.382H958.314V180.489H943.571V235.382H867.469C867.428 235.079 844.246 62.9438 951.035 62.9434Z" fill="#EB8FFC"/>
<path d="M259.32 62.7793C331.322 62.7793 344.838 116.909 344.838 124.44C344.838 125.638 344.814 129.307 344.779 134.724C344.642 155.915 344.331 203.862 344.592 235.288H269.396V214.833H254.16V235.288H178.964C178.964 208.967 178.961 166.954 178.817 142.784C178.759 133.024 178.816 126.409 178.816 124.676C181.11 106.005 194.2 62.7795 259.32 62.7793ZM254.373 111.533V166.43H269.115V111.533H254.373Z" fill="#EB8FFC"/>
<path d="M1302.48 62.7793C1374.49 62.7793 1388 116.909 1388 124.44C1388 125.638 1387.98 129.307 1387.94 134.724C1387.81 155.915 1387.49 203.862 1387.76 235.288H1312.56V214.833H1297.32V235.288H1222.13C1222.13 208.967 1222.12 166.954 1221.98 142.784C1221.92 133.024 1221.98 126.409 1221.98 124.676C1224.27 106.005 1237.36 62.7794 1302.48 62.7793ZM1297.54 111.533V166.43H1312.28V111.533H1297.54Z" fill="#EB8FFC"/>
<path d="M502.774 62.7793V235.333H354.82V187.648H409.724V172.854H354.82V125.17H409.724V110.463H354.82V62.7793H502.774Z" fill="#EB8FFC"/>
<path d="M587.691 101.748L597.76 150.501L582.392 197.135L609.418 235.378H567.019V62.8242H604.648L587.691 101.748Z" fill="#EB8FFC"/>
<path d="M569.43 71.7207H569.429V235.377H513.826V62.7812H569.43V71.7207ZM627.412 62.8242C634.504 62.8243 641.529 64.1222 648.082 66.6426C654.634 69.1631 660.589 72.8586 665.604 77.5156C670.62 82.173 674.252 87.706 676.966 93.791C679.573 99.6371 679.641 105.808 679.832 112.199H679.855C679.851 112.33 679.848 112.461 679.844 112.592C679.848 112.722 679.851 112.854 679.855 112.984H679.832C679.641 119.375 679.573 125.546 676.966 131.393C674.252 137.478 670.62 143.01 665.604 147.668C665.082 148.153 664.548 148.628 664.006 149.092C664.548 149.556 665.082 150.03 665.604 150.516C670.62 155.173 674.252 160.706 676.966 166.791C679.573 172.637 679.641 178.808 679.832 185.199H679.855C679.851 185.33 679.848 185.461 679.844 185.592C679.848 185.722 679.851 185.854 679.855 185.984H679.832C679.641 192.375 679.573 198.546 676.966 204.393C674.252 210.478 670.62 216.01 665.604 220.668C660.589 225.325 654.634 229.02 648.082 231.541C641.529 234.061 634.505 235.359 627.412 235.359C620.319 235.359 610.537 235.359 603.693 235.359C597.141 232.838 592.379 225.326 587.364 220.668C582.349 216.01 578.37 210.48 575.655 204.395C575.31 203.62 574.985 202.837 574.683 202.049V169.135C574.985 168.347 575.31 167.564 575.655 166.789C578.37 160.704 582.349 155.173 587.364 150.516C587.849 150.066 588.331 149.588 588.812 149.092C588.331 148.596 587.849 148.118 587.364 147.668C582.349 143.01 578.37 137.48 575.655 131.395C575.31 130.62 574.985 129.837 574.683 129.049V112.199H574.684V96.1318C574.986 95.3447 575.31 94.5628 575.655 93.7891C578.37 87.7038 582.349 82.1731 587.364 77.5156C592.379 72.8579 597.141 65.3451 603.693 62.8242C610.538 62.8242 620.319 62.8242 627.412 62.8242ZM591.128 194.817H646.023V180.074H591.128V194.817ZM591.128 101.285V116.027H646.023V101.285H591.128Z" fill="#EB8FFC"/>
<path d="M856.08 62.7803L856.079 234.86L837.166 235.329L818.253 234.86L819.691 143.708L773.057 202.788V202.971L747.603 235.332H690.033V63.251L708.946 62.7822H727.86V135.819L773.057 84.3574V84.7471L791.68 62.7793H836.185L856.08 62.7803Z" fill="#EB8FFC"/>
<path d="M1153.36 235.326H1138.62V180.43H1153.36V235.326Z" fill="white"/>
<path d="M1121.41 117.9H1136.12V62.7812H1211.88V127.209L1159.65 149.015L1211.88 170.817V235.336H1136.12V180.432H1121.41V235.245H1045.83V62.7812H1121.41V117.9Z" fill="#EB8FFC"/>
<path d="M57.9268 62.7744H85.7783C97.0068 62.7744 108.127 64.829 118.501 68.8193C128.874 72.8098 138.302 78.6591 146.241 86.0322C154.181 93.4055 159.929 102.163 164.226 111.797C167.565 119.284 168.271 127.108 168.579 135.18H168.8C168.762 136.351 168.73 137.519 168.695 138.681C168.73 139.843 168.762 141.01 168.8 142.182H168.579C168.271 150.254 167.565 158.077 164.226 165.564C159.929 175.198 154.181 183.955 146.241 191.328C138.301 198.702 128.875 204.551 118.501 208.542C108.127 212.532 97.007 214.586 85.7783 214.586C77.6041 214.586 67.1748 214.586 57.9258 214.586V235.328H2.32324V161.901C2.31729 161.886 2.31062 161.87 2.30469 161.854V115.508C2.31079 115.492 2.31713 115.476 2.32324 115.46V62.7324H57.9268V62.7744ZM78.167 111.53V166.427H92.9102V111.53H78.167Z" fill="#EB8FFC"/>
<rect x="31.751" y="0.388672" width="44.1215" height="44.1215" transform="rotate(46.023 31.751 0.388672)" fill="#EB8FFC"/>
</svg>
