<svg width="235" height="235" viewBox="0 0 235 235" fill="none" xmlns="http://www.w3.org/2000/svg">
<circle cx="117.188" cy="117.189" r="93" transform="rotate(-15.1146 117.188 117.189)" fill="#FF801F"/>
<path d="M113.832 101.399C119.763 100.35 124.114 103.539 125.703 105.667C126.781 106.685 127.094 109.224 127.054 111.938C126.544 114.242 126.329 116.584 126.354 118.924C126.478 130.396 132.398 141.863 137.872 148.966C124.208 114.92 137.016 98.8616 145.128 95.0881C165.873 88.746 180.188 102.941 184.753 110.831C167.553 111.569 165.499 127.335 166.622 135.126C170.125 156.385 146.928 168.245 133.656 171.934L133.699 172.089L132.939 172.328C126.44 174.368 116.19 176.283 106.474 175.078C96.745 173.871 87.4115 169.507 83.0773 158.87C81.5749 155.384 78.3964 150.673 73.793 147.86C69.2494 145.085 63.2576 144.116 55.911 148.145L54.7227 148.796L54.6959 147.442C54.5128 138.185 59.5506 118.209 81.2775 112.624L81.3313 112.61L81.3873 112.603C90.3612 111.566 108.364 118.046 115.466 149.074C115.68 141.163 114.557 131.876 110.05 124.375C108.854 122.385 108.623 121.892 107.053 120.28L106.993 120.219L106.947 120.147C106.247 119.046 105.296 117.66 104.595 116.407C104.241 115.775 103.926 115.137 103.728 114.544C103.549 114.007 103.429 113.398 103.555 112.83C103.861 109.837 105.813 103.368 112.968 101.358L113.758 101.136L113.832 101.399ZM66.1752 86.987C69.9683 85.2764 74.5919 83.7084 79.2802 82.9194C83.9591 82.1321 88.7709 82.1097 92.8966 83.5589C97.0597 85.0212 100.485 87.9716 102.333 93.0086C104.166 98.0044 104.425 104.989 102.458 114.515L102.21 115.717L101.193 115.028C94.8704 110.74 85.8634 109.104 73.1261 111.528L72.6967 111.61L72.3891 111.298C70.4279 109.315 67.3631 103.813 70.557 97.4708L70.6578 97.27C70.6592 97.262 70.6613 97.253 70.6628 97.2443C70.6975 97.0279 70.7219 96.6896 70.7187 96.2558C70.7122 95.392 70.5983 94.2379 70.3112 93.0806C70.0222 91.9163 69.5712 90.8024 68.9253 89.9724C68.2931 89.1602 67.4922 88.6375 66.4471 88.5539L66.1752 86.987ZM128.768 106.725C102.506 78.2675 128.254 67.1908 144.411 65.2097C140.166 68.3228 145.04 76.5525 145.633 76.3858C151.237 79.9303 151.487 85.8332 150.912 88.3418C138.77 92.9299 131.996 99.483 128.768 106.725ZM107.45 58.9584C120.929 57.7302 118.156 68.9633 115.084 74.7332C111.139 78.9139 114.895 92.2791 117.266 98.4391C117.4 98.9136 113.763 99.637 111.928 99.9394C111.44 100.023 108.561 100.863 107.183 101.273L104.183 90.5968C102.924 84.2949 97.1478 79.9874 94.4172 78.6215C87.9976 75.8179 88.0488 70.3851 88.877 68.0189C91.0728 61.258 98.269 61.9659 101.593 63.165C102.142 61.4748 105.727 59.6562 107.45 58.9584Z" fill="#AEF261"/>
</svg>
