<svg width="284" height="282" viewBox="0 0 284 282" fill="none" xmlns="http://www.w3.org/2000/svg">
<path d="M188.991 46.0021L147.421 86.4216L140.232 37.7657L133.839 34.8905L115.868 91.936L82.8262 54.6976L70.1304 64.3511L83.7807 114.243L36.6074 111.396L33.7337 117.785L72.5666 146.606L36.8784 164.288L39.0638 174.289L84.4471 183.345L59.183 209.055L68.0951 223.417L116.37 200.04L129.242 250.918L142.359 251.474L157.331 201.096L194.055 238.32L203.278 230.444L186.443 172.774L235.917 195.025L238.54 189.192L201.538 151.842L249.4 138.299L248.757 129.327L202.706 117.298L235.097 89.1158L230.953 81.2403L183.831 102.797L204.446 56.9611L188.991 46.0021Z" fill="#FF801F"/>
</svg>
