<svg width="302" height="182" viewBox="0 0 302 182" fill="none" xmlns="http://www.w3.org/2000/svg">
<path d="M43.667 162.14V119.64C43.667 117.807 45.067 114.14 50.667 114.14H112.167V83.1403L21.1677 83.1389C18.8344 83.4722 14.1677 82.5389 14.1677 76.1389V34.6389C9.50103 34.8055 0.167701 33.5389 0.167701 27.1389V10.6389C-0.498966 6.9722 0.467701 -0.261132 9.6677 0.138868C9.6677 -0.361132 16.6677 0.139171 18.1677 7.63887C18.6677 7.63887 20.6677 11.6389 26.6677 8.63887C29.1677 7.63887 32.6677 4.13867 37.6677 4.13867C42.6677 4.13867 45.3344 7.80554 47.6677 8.63887C50.0011 9.4722 52.2809 10.6403 56.6677 7.63887C59.8344 5.4722 68.0677 2.43887 75.6677 7.63887C75.1677 7.63887 76.6677 11.1386 82.6677 9.13862C82.6677 5.93862 86.8344 4.47201 88.6677 4.13867H95.1677C98.3677 4.13867 100.501 7.47201 101.168 9.13867C102.368 11.1387 104.334 11.6387 105.168 11.6387C106.768 11.6387 108.501 10.972 109.168 10.6387C109.968 9.83867 110.834 7.97201 111.168 7.13867C112.768 4.73867 116.834 4.13867 118.668 4.13867C122.268 4.13867 124.501 5.47201 125.168 6.13867C126.768 7.73867 129.168 10.1002 132.668 10.6387C137.721 11.416 136.932 9.87696 136.409 9.30969C136.321 9.26723 136.24 9.21081 136.168 9.13867C136.131 9.06446 136.259 9.14722 136.409 9.30969C137.296 9.73807 138.91 8.74522 139.668 8.13867C140.068 7.33867 142.168 6.13867 143.168 5.63867C149.568 3.63871 154.668 9.63862 156.668 9.63862C156.668 17.2384 160.001 19.473 161.668 19.6403H251.168C261.968 19.6403 265 24.6393 265.167 27.1389V42.6403H292.167C295.333 42.6403 301.667 44.4403 301.667 51.6403V152.64C301.667 157.64 297.367 161.14 292.167 161.14C290.5 162.64 288.167 166.04 292.167 167.64V178.64C292 179.64 290.667 181.64 286.667 181.64H173.167V162.14H43.667Z" fill="#FF801F"/>
</svg>
