<svg width="489" height="218" viewBox="0 0 489 218" fill="none" xmlns="http://www.w3.org/2000/svg">
<path d="M0.0220617 72.1267V10.6966C-0.304251 8.69893 2.86099 4.70348 18.1324 4.70348C17.1535 4.70348 23.9169 6.2018 27.9218 10.6966C29.3902 12.0285 33.208 13.893 36.7322 10.6966C36.2427 10.6966 38.6901 4.70348 50.9268 4.70348C51.4163 4.70348 62.3054 4.20409 65.1818 10.6966C66.6155 11.8623 114.116 13.4943 120.025 10.6966C120.052 8.69893 122.252 4.70348 130.834 4.70348C132.778 5.20327 136.96 7.10163 138.135 10.6966C136.213 10.6966 144.551 12.196 147.951 10.6966C148.921 7.8662 152.623 2.20527 159.672 2.20527C159.672 1.70585 204.213 0.707168 205.192 8.69694C206.824 10.6946 235.735 13.4934 240.434 8.6989C241.576 7.20063 244.5 3.6631 247 3.49609C250.14 3.28637 252.063 4.20405 255 8.6989C257.787 11.4892 276.165 9.69665 278.123 9.69665C279.428 10.6955 283.409 12.0939 288.891 9.69665C290.034 9.03114 292.514 6.60125 293.297 2.20582C294.112 0.541256 296.821 -1.78913 301.128 2.20582C301.291 4.70276 302.303 9.69665 305.044 9.69665C307.818 10.8616 416.952 11.4928 424 8.69694C430.363 7.86496 443.089 7.89907 443.089 14.6913V45.9964L442.993 57.5198V64.0123C443.156 65.3443 443.972 71.5037 450.825 71.5037H471.683C484.605 71.5037 488.162 75.0004 488.325 78.4964V133.056V173.496C482.843 173.496 481.472 175.161 481.472 175.993V199.953C480.689 203.549 474.343 203.948 471.683 203.948C467.278 203.948 464.341 202.45 463.362 201.451C459.446 198.255 456.999 199.453 455.53 200.452C453.181 202.45 448.025 203.948 445.741 203.948C439.867 204.448 311.407 204.21 309.939 203.363C307.491 201.951 305.697 201.394 304.554 201.452C301.813 201.452 300.149 202.726 299.66 203.363C299.268 204.492 295.255 204.89 293.297 204.948C290.164 204.948 288.076 203.891 287.423 203.363C287.031 202.095 284.649 201.561 283.507 201.452C280.766 201.452 278.776 202.726 278.123 203.363L269.802 216.435C265.495 218.832 262.134 217.434 260.992 216.435C256.293 213.638 256.423 210.608 257.076 209.443C261.383 205.048 259.197 202.284 257.566 201.452C255.999 201.052 252.997 202.559 251.692 203.363H240.434C240.434 202.095 238.476 201.561 237.497 201.452C235.148 201.452 234.561 202.726 234.561 203.363H224.282C224.282 205.291 223.303 208.22 222.813 209.443C221.639 212.24 217.755 212.939 215.961 212.939C210.087 212.939 208.619 210.608 208.619 209.443C208.619 205.447 208.292 203.725 208.129 203.363H195.403C193.054 203.363 193.119 207.416 193.445 209.443C192.606 212.639 188.201 213.105 186.103 212.939C181.013 212.939 179.74 210.608 179.74 209.443C179.74 203.45 178.761 202.607 178.272 202.934C175.142 206.02 170.773 206.506 168.98 206.363C165.85 206.363 162.785 204.363 161.644 203.363C160.47 201.992 159.199 202.506 158.71 202.934C158.318 205.677 155.938 206.363 154.797 206.363C151.667 206.363 150.233 204.934 149.907 204.22C149.124 202.506 148.277 202.934 147.951 203.363C144.527 206.791 138.659 206.669 136.213 206.363C134.746 206.179 132.301 205.077 130.834 204.22C130.1 203.791 128.389 202.934 127.411 202.934C124.476 202.934 123.987 204.22 123.498 204.649C122.031 206.363 118.445 206.857 116.162 206.791C109.903 206.791 65.1818 208.22 65.1818 208.934V213.219C65.1818 217.333 60.2913 217.933 56.379 217.933C51.2929 217.933 48.2282 214.648 48.0651 213.219C48.0651 208.42 45.7829 206.934 44.6418 206.791H22.1456C14.3209 206.791 13.3428 203.649 13.8318 202.077V110.005C13.8318 102.805 21.3306 97.0059 25.0799 95.0061C29.3836 95.0061 31.4376 92.4349 31.9266 91.1493V84.7214C31.9266 80.9503 27.3622 79.4361 25.0799 79.1504C18.0376 79.1504 0.837141 74.2693 0.0220617 72.1267Z" fill="#FF801F"/>
</svg>
