<svg width="329" height="184" viewBox="0 0 329 184" fill="none" xmlns="http://www.w3.org/2000/svg">
<path d="M0.0225363 70.2094V8.70886C-0.310797 6.70886 2.92254 2.70886 18.5225 2.70886C17.5225 2.70886 24.4315 4.20886 28.5225 8.70886C30.0225 10.0422 33.9225 11.9089 37.5225 8.70886C37.0225 8.70886 39.5225 2.70886 52.0225 2.70886C52.5225 2.70886 63.6458 2.20886 66.5841 8.70886C68.0486 9.87589 72.4866 11.5097 78.5225 8.70886C78.5504 6.70886 80.7978 2.70886 89.5643 2.70886C91.5504 3.20922 95.8225 5.10972 97.0225 8.70886C95.0596 8.70886 103.576 10.2099 107.049 8.70886C108.04 5.87517 111.822 0.207788 119.022 0.207788C119.022 -0.292212 127.522 0.70994 128.522 8.70886C130.189 10.7089 134.722 13.5089 139.522 8.70886C140.689 7.20888 143.022 3.8088 143.022 2.20835C143.022 1.70835 147.023 -2.29165 150.023 2.20835C150.523 4.70815 152.022 9.70776 154.022 9.70776C155.356 10.7078 159.422 12.1078 165.022 9.70776C166.189 9.04149 168.722 6.60882 169.522 2.20835C170.356 0.541877 173.122 -1.79118 177.522 2.20835C177.689 4.70815 178.722 9.70776 181.522 9.70776C184.356 10.874 191.822 12.5068 199.022 9.70776C205.522 8.87484 218.522 8.90898 218.522 15.709V52.209C218.689 54.0423 216.622 57.709 207.022 57.709H155.523C152.856 57.5423 147.522 58.509 147.522 63.709V70.209C147.689 71.5425 148.522 77.709 155.523 77.709H311.023C324.223 77.709 327.856 81.2096 328.023 84.7096V132.21V147.21C322.423 147.21 321.023 148.877 321.023 149.71V166.21C320.223 169.81 313.74 170.21 311.023 170.21C306.523 170.21 303.523 168.71 302.523 167.71C298.523 164.51 296.023 165.71 294.523 166.71C292.123 168.71 286.856 170.21 284.523 170.21C278.523 170.71 274.023 169.471 272.523 168.623C270.023 167.21 268.189 166.652 267.023 166.71C264.223 166.71 262.523 167.986 262.023 168.623C261.623 169.754 257.523 170.152 255.523 170.21C252.323 170.21 250.189 169.152 249.523 168.623C249.123 167.354 246.689 166.819 245.523 166.71C242.723 166.71 240.689 167.986 240.023 168.623L231.523 181.71C227.123 184.11 223.689 182.71 222.523 181.71C217.723 178.91 217.856 175.877 218.523 174.71C222.923 170.31 220.689 167.543 219.023 166.71C217.423 166.31 214.356 167.819 213.023 168.623H201.523C201.523 167.354 199.523 166.819 198.523 166.71C196.123 166.71 195.523 167.986 195.523 168.623H185.023C185.023 170.554 184.023 173.486 183.523 174.71C182.323 177.51 178.356 178.21 176.523 178.21C170.523 178.21 169.023 175.877 169.023 174.71C169.023 170.71 168.689 168.986 168.523 168.623H155.523C153.123 168.623 153.189 172.681 153.523 174.71C152.665 177.91 148.165 178.377 146.023 178.21C140.823 178.21 139.523 175.877 139.523 174.71C139.523 168.71 138.523 167.866 138.023 168.194C134.825 171.283 130.362 171.769 128.531 171.626C125.333 171.626 122.203 169.624 121.037 168.623C119.838 167.25 118.539 167.765 118.04 168.194C117.64 170.94 115.209 171.626 114.043 171.626C110.846 171.626 109.381 170.196 109.048 169.481C108.248 167.765 107.382 168.194 107.049 168.623C103.552 172.055 97.5574 171.933 95.0596 171.626C93.5609 171.443 91.063 170.339 89.5643 169.481C88.815 169.052 87.0665 168.194 86.0673 168.194C83.0699 168.194 82.5704 169.481 82.0708 169.91C80.5721 171.626 76.9086 172.122 74.5772 172.055C68.1828 172.055 66.5841 173.486 66.5841 174.201V178.491C66.5841 182.609 61.5884 183.21 57.5919 183.21C52.3964 183.21 49.2657 179.921 49.0992 178.491C49.0992 173.686 46.7679 172.198 45.6022 172.055H22.6221C14.629 172.055 13.6298 168.909 14.1294 167.336V108.131C14.1294 100.923 21.7895 95.1171 25.6195 93.115C30.0157 93.115 32.1139 90.5409 32.6135 89.2538V82.8185C32.6135 79.0431 27.9508 77.5272 25.6195 77.2412C18.4257 77.2412 0.855152 72.3545 0.0225363 70.2094Z" fill="#FF801F"/>
</svg>
