<svg width="278" height="242" viewBox="0 0 278 242" fill="none" xmlns="http://www.w3.org/2000/svg">
<path d="M0.0234481 135.421L0.022583 8.70886C-0.31075 6.70886 2.92258 2.70886 18.5226 2.70886C17.5226 2.70886 24.4315 4.20886 28.5225 8.70886C30.0225 10.0422 33.9225 11.9089 37.5225 8.70886C37.0225 8.70886 39.5225 2.70886 52.0225 2.70886C52.5225 2.70886 63.6459 2.20886 66.5842 8.70886C68.0487 9.87589 72.4866 11.5097 78.5225 8.70886C78.5504 6.70886 80.7979 2.70886 89.5644 2.70886C91.5504 3.20922 95.8225 5.10972 97.0225 8.70886C95.0596 8.70886 103.576 10.2099 107.049 8.70886C108.04 5.87517 111.823 0.207795 119.023 0.207795C119.023 -0.292205 127.523 0.70994 128.523 8.70886C130.189 10.7089 134.723 13.5089 139.523 8.70886C140.689 7.20888 143.023 3.8088 143.023 2.20835C143.023 1.70835 147.023 -2.29165 150.023 2.20835C150.523 4.70815 152.023 9.70776 154.023 9.70776C155.356 10.7078 159.423 12.1078 165.023 9.70776C166.189 9.04149 168.723 6.60882 169.523 2.20835C170.356 0.541877 173.123 -1.79118 177.523 2.20835C177.689 4.70815 178.723 9.70776 181.523 9.70776C184.356 10.874 191.823 12.5068 199.023 9.70776C205.523 8.87484 218.523 8.90898 218.523 15.709L218.523 117.42C218.69 119.254 216.623 122.92 207.023 122.92H155.523C152.857 122.754 147.523 123.72 147.523 128.92V135.42C147.69 136.754 200.546 135.428 207.546 135.428H277.524V236.219C277.524 239.819 271.191 240.386 268.024 240.219H251.023C247.023 243.019 242.69 241.219 241.523 240.219C239.523 238.619 239.023 236.553 239.023 235.719C238.223 234.919 235.357 237.053 234.023 238.219C228.824 238.219 227.19 234.886 227.023 233.219C226.624 230.019 221.19 229.219 218.523 229.219C212.523 229.219 210.69 231.886 210.023 233.219C209.624 237.619 205.19 238.386 203.023 238.219C197.824 238.219 196.857 233.886 197.023 231.719C197.423 228.919 195.857 229.553 195.023 230.219C189.423 233.419 182.023 231.553 178.523 230.219C174.523 227.019 170.857 228.886 169.523 230.219C162.023 234.719 154.523 234.219 155.023 234.219C148.624 234.219 143.023 232.219 141.023 231.219C136.624 229.219 134.19 230.386 133.523 231.219C132.523 232.719 123.52 234.219 119.523 234.219C114.328 234.219 109.523 233 105.523 231.219C101.755 229.542 98.7914 229.918 97.6257 229.775H74.6456C66.6525 229.775 65.6533 226.628 66.1529 225.055V189.711H10.5234C7.0234 189.711 0.0234481 188.511 0.0234481 183.711V169.711C0.856731 168.424 4.12331 165.85 10.5234 165.85H66.1529C66.1529 158.642 73.813 152.836 77.643 150.834C82.0392 150.834 84.1374 148.26 84.637 146.973V140.538C84.637 136.762 79.9743 135.246 77.643 134.96C70.4492 134.96 0.856063 137.566 0.0234481 135.421Z" fill="#FF801F"/>
</svg>
