<svg width="212" height="218" viewBox="0 0 212 218" fill="none" xmlns="http://www.w3.org/2000/svg">
<path d="M149.738 11.4024C151.747 9.34146 155.225 11.0197 154.862 13.8754L150.409 48.892C150.125 51.12 152.301 52.8578 154.411 52.0895L187.58 40.0132C190.285 39.0284 192.689 42.0491 191.123 44.4644L171.918 74.0812C170.696 75.9657 171.902 78.4752 174.137 78.6986L209.26 82.2096C212.125 82.496 212.98 86.2609 210.521 87.7575L180.368 106.109C178.449 107.276 178.447 110.06 180.364 111.231L210.485 129.634C212.942 131.135 212.08 134.898 209.215 135.18L174.085 138.63C171.85 138.85 170.64 141.357 171.858 143.244L191.013 172.894C192.575 175.312 190.165 178.328 187.461 177.339L154.314 165.206C152.205 164.434 150.026 166.168 150.306 168.396L154.698 203.42C155.057 206.277 151.577 207.949 149.57 205.884L124.97 180.57C123.404 178.96 120.689 179.577 119.974 181.706L108.736 215.168C107.819 217.897 103.958 217.893 103.046 215.163L91.8651 181.682C91.1537 179.552 88.4398 178.93 86.8718 180.538L62.2275 205.809C60.2177 207.87 56.7405 206.192 57.1037 203.336L61.5567 168.32C61.84 166.092 59.6647 164.354 57.5543 165.122L24.3857 177.199C21.6806 178.183 19.276 175.163 20.8422 172.747L40.0473 143.131C41.2693 141.246 40.0634 138.737 37.8286 138.513L2.70505 135.002C-0.159394 134.716 -1.0153 130.951 1.44382 129.454L31.5973 111.103C33.5158 109.936 33.5182 107.151 31.6017 105.981L1.47983 87.5777C-0.976715 86.0769 -0.114323 82.3134 2.75061 82.032L37.8802 78.5814C40.1153 78.3619 41.3255 75.8544 40.1068 73.9679L20.9527 44.3181C19.3906 41.9 21.8005 38.8835 24.5038 39.873L57.6516 52.0062C59.7606 52.7782 61.9389 51.0441 61.6595 48.8157L57.2667 13.7915C56.9085 10.9351 60.3885 9.26289 62.3948 11.3273L86.9955 36.6413C88.5608 38.2519 91.2757 37.6347 91.9908 35.5057L103.23 2.04401C104.146 -0.684903 108.007 -0.681575 108.919 2.04891L120.1 35.5299C120.812 37.6601 123.525 38.282 125.093 36.6741L149.738 11.4024Z" fill="#FF801F"/>
</svg>
