<svg width="258" height="176" viewBox="0 0 258 176" fill="none" xmlns="http://www.w3.org/2000/svg">
<path d="M0 114V156.5H129.5V176H243C247 176 248.333 174 248.5 173V162C244.5 160.4 246.833 157 248.5 155.5C253.7 155.5 258 152 258 147V46C258 38.8 251.667 37 248.5 37H221.5V22C221.5 19.3949 220.5 16.6667 220 15.5C217.6 10.7 212 11 210.293 11C204.293 11 202.256 12.2391 200.793 14.5C199.5 16.5 198.5 17 197 17C195 17 194.5 16 192.5 13.5C191.802 12.627 188.5 11.5 188 11.5H179.5C175.5 11.5 173.5 12 173.5 12.5C171.5 14.5 169.5 16.2 167.5 17C162.5 19 158 15.5 157.5 15.5C145.1 6.29991 139 15.5 133.5 15.5C131.5 15.5 126.4 9.50004 120 11.5C119 12 116.9 13.2 116.5 14C115.667 14.6667 113.8 15.8 113 15C112.833 14.6667 112.5 13.2 112.5 10C112.667 8 112.6 3.6 111 2C110.333 1.33333 108.1 0 104.5 0C102.667 0 98.6 0.6 97 3C96.6667 3.83333 95.8 5.7 95 6.5C94.3333 6.83333 92.6 7.5 91 7.5C90.1667 7.5 88.2 7 87 5C86.3333 3.33333 84.2 0 81 0H74.5C72.6667 0.333333 68.5 1.79995 68.5 4.99995V14V108.5H7C1.4 108.5 0 112.167 0 114Z" fill="#FF801F"/>
</svg>
