<svg width="494" height="154" viewBox="0 0 494 154" fill="none" xmlns="http://www.w3.org/2000/svg">
<path d="M49.5005 4.21224C49.5005 2.8209 50.852 0.0382019 56.2581 0.0382019H84.8854C90.547 0.0382019 90.0005 3.87468 90.0005 6.03953C96.0005 -2.96016 114 0.539953 116.5 2.53995C119 4.53995 120 5.03985 120 5.03985C121 5.53984 122 6.03984 122.5 6.03984C124.1 6.03984 124.334 4.70728 124.5 4.041C124.667 2.70739 126.2 0.0401551 131 0.0401551C133 -0.125945 137.2 0.441684 138 4.041C138.167 4.70728 139 6.03984 141 6.03984C142.334 6.04056 145.3 5.6418 146.5 4.041C147.334 2.70729 149.5 0.0399034 151.5 0.0400152C153.167 0.0400152 156.7 0.740015 157.5 3.54002C157.834 4.37335 159.6 6.04002 164 6.04002C164.834 6.04002 166.9 5.44002 168.5 3.04002C169 2.04002 170.6 0.0400152 173 0.0400152C174.5 0.0400152 177.7 0.640015 178.5 3.04002C178.834 4.04002 181.1 6.04002 187.5 6.04002C188.834 5.87335 192.1 4.94002 194.5 2.54002C195.834 1.70668 200.2 0.0400152 207 0.0400152C210.167 0.0400152 217.2 0.540015 220 2.54002C220.5 3.70668 222 6.04002 224 6.04002C224.334 6.20668 225.3 5.64002 226.5 2.04002C227 1.37335 228.8 0.0400152 232 0.0400152C233.834 0.0400152 237.9 0.640015 239.5 3.04002C239.667 4.04002 240.5 6.04002 242.5 6.04002C243.167 6.20668 244.7 5.74002 245.5 2.54002C245.834 1.70668 247.6 0.0400152 252 0.0400152C254.167 -0.126651 258.701 0.140015 259.501 2.54002C259.667 3.70668 260.501 6.04002 262.501 6.04002C263.167 6.03968 264.901 5.33921 266.501 2.54002C267.667 1.70668 271.201 0.0400152 276.001 0.0400152H284.501C285.334 0.207015 287.101 1.04102 287.501 3.04102C287.667 4.04068 288.201 6.04002 289.001 6.04002C289.334 6.04035 290.101 5.44102 290.501 3.04102C291.001 2.04068 292.801 0.0400152 296.001 0.0400152C297.667 0.0406822 301.301 0.641816 302.501 3.04102C303.001 4.04068 304.501 6.04002 306.501 6.04002C307.334 5.87368 309.601 5.04102 312.001 3.04102C313.167 2.04068 316.901 0.0400152 322.501 0.0400152C324.501 0.0403487 329.101 0.541016 331.501 2.54102C332.167 3.70768 333.801 6.04102 335.001 6.04102C335.501 6.04102 336.701 5.34102 337.501 2.54102C337.667 1.70735 338.401 0.0400152 340.001 0.0400152H362.501C363.667 0.0403487 366.201 0.641016 367.001 3.04102C367.334 4.04102 368.301 6.04102 369.501 6.04102C370.167 6.04135 371.701 5.44182 372.501 3.04102C373.167 2.04068 376.001 0.0400152 382.001 0.0400152C384.834 0.0403487 390.901 0.641016 392.501 3.04102C393.001 4.04102 394.301 6.04102 395.501 6.04102C396.001 6.04135 397.301 5.44182 398.501 3.04102C399.167 2.04035 401.401 0.0392149 405.001 0.0400152C407.167 -0.126318 411.501 1.84102 411.501 11.041V41.041C411.167 42.3743 409.401 45.041 405.001 45.041C402.778 44.7077 398.332 45.741 398.332 52.541C398.332 52.5672 402.312 52.541 402.312 54.541V89C402.312 89 463.54 90.5675 486.769 91.2991C491.292 91.4081 492.421 95.56 492.691 97.742C492.727 97.4333 492.751 97.1111 492.762 96.7747C492.763 96.6695 492.763 98.0316 492.764 99.6228C492.776 104.701 492.882 89.4214 492.768 104.268C492.767 104.393 492.766 102.457 492.765 100.522L492.765 100.359L492.764 99.4676C492.763 99.2137 492.763 98.915 492.763 98.5666C492.76 98.5007 492.756 98.4289 492.75 98.3518C492.699 106.04 492.649 119.766 492.611 125.5C492.569 131.801 493.03 138.261 493.03 141.651C493.03 145.004 488.852 145.713 486.763 145.648H437.789C436.99 150.044 433.125 150.832 431.293 150.676C428.095 150.676 426.629 147.324 426.296 145.648C424.868 143.507 423.95 145.953 423.36 147.527C423.124 148.156 422.94 148.645 422.798 148.645C419.299 151.643 416.801 150.676 417.301 150.676C412.503 150.676 409.638 148.45 408.805 147.337C408.433 144.852 405.571 142.829 404.337 141.957L404.336 141.957C403.912 141.657 403.68 141.493 403.808 141.493C397.811 141.493 396.812 144.56 396.812 145.648C394.486 151.228 387.829 150.776 386.517 150.687C386.42 150.681 386.352 150.676 386.317 150.676C377.122 150.676 371.492 146.599 369.826 144.56C365.618 141.519 362.119 142.891 360.82 143.4L360.819 143.4C360.576 143.496 360.41 143.561 360.332 143.561C357.133 147.886 351.67 148.994 349.337 149.006C344.54 149.006 340.676 143.998 339.343 141.493C336.145 135.482 331.331 136.763 329.325 138.154C329.325 142.328 326.959 150.676 317.499 150.676C313.838 150.676 305.673 150.008 302.294 147.337C302.013 147.059 301.281 146.836 300.605 148.172C299.338 150.676 293.003 153.347 289.624 147.337C289.41 146.915 289.25 146.332 289.077 145.697C288.563 143.823 287.925 141.493 285.4 141.493C283.992 141.493 281.177 142.495 281.177 146.502C281.177 148.45 279.318 151.845 271.885 149.841C270.759 149.563 260.672 149.34 259.321 150.676C258.476 151.233 256.28 151.845 254.253 149.841C253.126 149.006 246.2 148.005 243.497 150.676C241.526 151.789 234.555 153.799 230.5 149.792C229.951 149.249 228.786 147.495 228 145.792C227.175 144.004 226.347 141.792 226 141.792C225.001 141.792 225.595 148.387 223.5 151.792C221.389 155.225 218 152.419 216.5 150.676C214.776 148.673 211.72 145.354 203.5 145.049C195.204 144.742 199.075 152.5 191.5 152.5C183.926 152.5 186.341 141.582 186.341 141.582H45.5005C42.4032 141.582 36.2088 139.745 36.2088 132.399V110C36.2088 108.047 35.4526 106 33.5 106H7.5C3.86791 106 -7.23027e-05 104.132 0 100.5C9.37544e-05 96 -0.000141664 57 0 48.5C5.79156e-05 45.1805 4.18054 41.5 7.5 41.5H45.5005C47.7096 41.5 49.5005 39.7092 49.5005 37.5V4.21224Z" fill="#EB8FFC"/>
</svg>
