<svg width="287" height="287" viewBox="0 0 287 287" fill="none" xmlns="http://www.w3.org/2000/svg">
<path d="M179.863 61.431C188.432 57.8382 198.009 63.6672 198.753 72.9286V72.9286C199.302 79.7529 204.82 85.1158 211.657 85.4701V85.4701C220.936 85.9509 227.035 95.3579 223.688 104.025V104.025C221.221 110.412 223.866 117.638 229.872 120.923V120.923C238.023 125.382 239.437 136.504 232.661 142.861V142.861C227.667 147.545 226.915 155.202 230.901 160.769V160.769C236.31 168.323 232.758 178.957 223.895 181.744V181.744C217.364 183.797 213.363 190.37 214.539 197.115V197.115C216.135 206.268 208.321 214.307 199.126 212.973V212.973C192.351 211.989 185.895 216.175 184.028 222.762V222.762C181.494 231.701 170.966 235.554 163.261 230.362V230.362C157.583 226.536 149.95 227.506 145.41 232.631V232.631C139.249 239.586 128.092 238.489 123.402 230.468V230.468C119.947 224.558 112.649 222.12 106.335 224.767V224.767C97.7664 228.36 88.1896 222.531 87.4449 213.27V213.27C86.8962 206.445 81.3784 201.083 74.5412 200.728V200.728C65.2624 200.247 59.1631 190.841 62.5105 182.173V182.173C64.9771 175.787 62.3326 168.561 56.3263 165.275V165.275C48.1749 160.816 46.7612 149.694 53.5378 143.338V143.338C58.5311 138.654 59.2837 130.996 55.2978 125.43V125.43C49.8884 117.875 53.4402 107.242 62.3037 104.455V104.455C68.8348 102.401 72.8354 95.8284 71.6594 89.0838V89.0838C70.0634 79.9306 77.8773 71.891 87.0722 73.2258V73.2258C93.8475 74.2094 100.304 70.0233 102.171 63.4364V63.4364C104.704 54.4972 115.232 50.6441 122.938 55.8363V55.8363C128.615 59.6621 136.248 58.6919 140.788 53.5673V53.5673C146.949 46.6125 158.107 47.7091 162.796 55.7302V55.7302C166.251 61.6406 173.55 64.0783 179.863 61.431V61.431Z" fill="#EB8FFC"/>
</svg>
