<svg width="316" height="164" viewBox="0 0 316 164" fill="none" xmlns="http://www.w3.org/2000/svg">
<path d="M42.7614 0.226369C37.3524 0.226369 36.0002 2.33405 36.0002 3.72656L36.004 66.2285H8.00018C4.31598 66.2285 -1.71529e-05 67.0443 7.80821e-05 70.7285C0.000323653 80.2285 -0.00018561 94.7285 7.80821e-05 102.729C0.000215612 106.901 3.82774 108.532 8.00018 108.532H36.003L36.004 143.468C36.004 150.82 42.2018 152.658 45.3007 152.658H172.92L174.611 161.013C181.372 165.024 187.006 162.684 188.978 161.013C191.683 157.671 194.049 156.836 194.894 156.836C195.571 156.836 197.993 159.064 199.12 160.178C203.177 164.188 208.135 162.963 210.107 161.849C212.812 159.175 215.742 160.178 216.869 161.013C218.897 163.019 221.094 162.406 221.939 161.849C223.292 160.512 225.884 160.735 227.01 161.013C234.448 163.019 236.307 159.621 236.307 157.671C236.307 153.661 239.124 152.658 240.533 152.658C243.914 152.658 243.914 156.836 244.759 158.507C248.139 164.523 254.478 161.849 255.746 159.342C256.422 158.006 257.154 158.228 257.436 158.507C260.817 161.18 299.838 161.013 303.5 161.013C312.966 161.013 315.332 152.658 315.332 148.481V135.948C315.332 124.585 307.851 112.055 307.851 108.393V98.2285C307.851 91.064 307.167 88.8952 304.5 86.7285C300.876 85.1285 302.99 82.3952 304.5 81.2285C312.1 78.0285 306.833 72.3952 305.5 68.7285C295 68.7285 276.5 68.2285 271.5 68.2285C268.14 68.2285 269 49.2285 271.5 49.2285C280 49.2285 299 50.1448 299 46.2285C299 42.2247 300 21.2285 300 18.7285C300 16.7285 302 15.2285 303.5 14.2285C307.9 10.6285 306.667 6.39518 305.5 4.72852C303.1 1.12852 300.167 0.228516 299 0.228516C296.2 0.228516 293.874 3.85322 292.5 5.22778C291 6.72852 288.5 6.22926 287.5 5.22852C284.339 2.06469 282.5 0.228516 279.5 0.229124C275.5 0.229124 274.5 3.72852 273.5 5.22778C272.715 6.40516 272 6.22852 271.5 5.22778C270.361 2.94774 269.5 0.228516 267.5 0.228516C265.1 0.228516 262.5 3.56156 261 5.22778C257.4 7.62718 253.167 6.22753 251.5 5.22778C248.7 0.827183 245 0.0617606 243.5 0.229124C239.9 0.229124 238 3.56156 237.5 5.22778C236.7 6.42718 235.167 5.72753 234.5 5.22778C232.1 1.22718 229.5 0.228427 228.5 0.229124C224.9 0.229124 221.667 3.56156 220.5 5.22778C218.5 6.02718 216.667 5.56086 216 5.22778C213.2 0.827183 209.167 0.0617606 207.5 0.229124C204.3 0.229124 200.167 3.56156 198.5 5.22778C195.3 6.82718 192.167 5.8942 191 5.22778C187.8 1.22718 183 0.228427 181 0.229124C178.318 0.229919 173.833 1.72778 171 5.22778C169.382 7.22778 164.675 6.06111 164 5.22778C160.46 0.852775 152.873 0.227775 147.815 0.227775C139.318 0.227775 139.012 3.22778 138 5.22778C136.989 8.22778 134.46 6.72778 134.46 6.22778C134.46 0.727777 120.819 -0.605558 114.075 0.227775C110.029 0.627775 108.006 4.39444 107.5 6.22778L105.801 6.22778C94.1677 -3.77222 72.6194 0.22656 69.5847 5.72656C69.5847 3.55989 68.1649 0.226564 62.5002 0.226564L42.7614 0.226369Z" fill="#EB8FFC"/>
</svg>
