<svg width="351" height="164" viewBox="0 0 351 164" fill="none" xmlns="http://www.w3.org/2000/svg">
<path d="M36.0039 3.72656C36.0039 2.33405 37.3561 0.226369 42.7651 0.226369L62.5039 0.226564C68.1686 0.226564 69.5884 3.55989 69.5884 5.72656C72.6231 0.22656 94.1714 -3.77222 105.804 6.22778L107.504 6.22778C108.01 4.39444 110.033 0.627775 114.079 0.227775C120.823 -0.605558 134.463 0.727777 134.463 6.22778C134.463 6.72778 136.992 8.22778 138.004 5.22778C139.015 3.22778 139.322 0.227775 147.819 0.227775C152.877 0.227775 160.463 0.852775 164.004 5.22778C164.678 6.06111 169.385 7.22778 171.004 5.22778C173.836 1.72778 178.321 0.229919 181.004 0.229124C183.004 0.228427 187.804 1.22718 191.004 5.22778C192.171 5.8942 195.304 6.82718 198.504 5.22778C200.171 3.56156 204.304 0.229124 207.504 0.229124C209.171 0.0617606 213.204 0.827183 216.004 5.22778C216.671 5.56086 218.504 6.02718 220.504 5.22778C221.671 3.56156 224.904 0.229124 228.504 0.229124C229.504 0.228427 232.104 1.22718 234.504 5.22778C235.171 5.72753 236.704 6.42718 237.504 5.22778C238.004 3.56156 239.904 0.229124 243.504 0.229124C245.004 0.0617606 248.704 0.827183 251.504 5.22778C253.171 6.22753 257.404 7.62718 261.004 5.22778C262.504 3.56156 265.104 0.228516 267.504 0.228516C269.504 0.228516 270.365 2.94774 271.504 5.22778C272.004 6.22852 272.719 6.40516 273.504 5.22778C274.504 3.72852 275.504 0.229124 279.504 0.229124C282.504 0.228516 284.342 2.06469 287.504 5.22852C288.504 6.22926 291.004 6.72852 292.504 5.22778C293.878 3.85322 296.204 0.228516 299.004 0.228516C300.171 0.228516 303.104 1.12852 305.504 4.72852C306.671 6.39518 307.904 10.6285 303.504 14.2285C302.004 15.2285 322.004 13.7285 322.004 15.7285V40.7266C322.004 44.6428 338.504 43.2266 338.504 47.7266V66.7266C338.504 70.0933 333.312 71.135 329.766 71.3569C331.207 74.9485 335.048 78.9481 327.653 82.0621C326.143 83.2287 324.029 85.9621 327.652 87.5621C330.319 89.7287 331.004 91.8976 331.004 99.0621V116.227C331.004 119.888 350.336 113.864 350.336 125.227V146.81C350.336 150.987 347.969 159.342 338.504 159.342C334.841 159.342 260.82 161.18 257.44 158.507C257.158 158.228 256.426 158.006 255.75 159.342C254.482 161.849 248.143 164.523 244.762 158.507C243.917 156.836 243.917 152.658 240.537 152.658C239.128 152.658 236.311 153.661 236.311 157.671C236.311 159.621 234.452 163.019 227.014 161.013C225.887 160.735 223.295 160.512 221.943 161.849C221.098 162.406 218.901 163.019 216.872 161.013C215.745 160.178 212.815 159.175 210.111 161.849C208.139 162.963 203.181 164.188 199.124 160.178C197.997 159.064 195.574 156.836 194.898 156.836C194.053 156.836 191.687 157.671 188.982 161.013C187.01 162.684 181.376 165.024 174.614 161.013L172.924 152.658H45.3044C42.2055 152.658 36.0077 150.82 36.0077 143.468L36.0031 118.53H8.0003C3.82786 118.53 0.000337683 116.899 0.000200152 112.727C-6.35401e-05 104.727 0.000445724 64.7266 0.000200152 55.2266C0.000104917 51.5424 4.3161 50.7266 8.0003 50.7266H36.0041L36.0039 3.72656Z" fill="#EB8FFC"/>
</svg>
