<svg width="406" height="176" viewBox="0 0 406 176" fill="none" xmlns="http://www.w3.org/2000/svg">
<path d="M405.148 4.17754V156.24C405.148 163.592 398.951 165.431 395.852 165.431H268.233L266.543 173.786C259.781 177.796 254.147 175.457 252.175 173.786C249.471 170.444 247.104 169.608 246.259 169.608C245.583 169.608 243.16 171.836 242.033 172.95C237.976 176.961 233.018 175.735 231.046 174.621C228.342 171.948 225.412 172.95 224.285 173.786C222.256 175.791 220.059 175.178 219.214 174.621C217.862 173.284 215.27 173.507 214.143 173.786C206.706 175.791 204.846 172.393 204.846 170.444C204.846 166.433 202.029 165.431 200.62 165.431C197.24 165.431 197.24 169.608 196.395 171.279C193.014 177.295 186.675 174.621 185.408 172.115C184.732 170.778 183.999 171.001 183.717 171.279C180.337 173.953 172.167 174.621 168.505 174.621C159.039 174.621 156.672 166.266 156.672 162.089V149.556C156.672 138.193 162.307 132.01 165.124 130.339H13.1484C4.62579 130.339 0.148438 126.5 0.148438 121.5C0.148438 111.5 -0.18576 94.5131 0.148438 89.5C0.648438 82 5.14844 83.5 10.1484 83.5H19.1484C19.1484 83.5 22.6412 73 26.6484 73C30.6484 73 35.1484 83.5 35.1484 83.5H84.6484C95.1484 83.5 94.1484 77 94.1484 76.5C94.1484 54.9 97.1484 40 100.148 36C101.372 34.3683 100.512 31.4318 97.6484 30C92.6484 27.5 94.8151 23.1667 96.1484 21C96.1484 21 99.6484 17 103.148 15C106.648 13 112.474 13 114.834 13C120.499 13 123.527 13.8673 124.444 15C126.062 17 127.691 19 129.501 19C131.525 19 131.958 17 132.536 16C134.155 13.2 136.737 12.3023 138.1 13.5C142.652 17.5 143.157 19 146.698 19C149.53 19 150.907 15.6714 152.261 14.5C155.498 11.7 159.848 13.5 160.859 15C163.125 18.3593 164.4 19 165.411 19C166.625 19 168.303 17.6414 168.952 17C172.189 13.8 177.55 13 180.079 13C186.553 13 190.194 14.5 191.712 16C197.478 21.7009 197.275 18 197.275 13H223.07C223.07 23.5 226.036 17.4757 226.61 16C229.139 9.5 247.043 14.5 249.876 18C251.494 20 253.248 18.8333 253.922 18C257.462 13.625 265.049 13 270.107 13C278.604 13 283.257 16 284.268 18C285.28 21 287.809 19.5 287.809 19C287.809 13.5 304.331 12.1667 311.074 13C315.121 13.4 317.144 17.1667 317.649 19H335.352C346.984 9 359.629 13.5 362.663 19V6.5C362.663 4.33333 364.08 0 369.744 0H398.387C403.796 0 405.148 2.78503 405.148 4.17754Z" fill="#EB8FFC"/>
</svg>
