<svg width="256" height="256" viewBox="0 0 256 256" fill="none" xmlns="http://www.w3.org/2000/svg">
<g clip-path="url(#clip0_271_596)">
<path d="M108 0C119.046 0 128 8.954 128 20L128.007 19.483C128.281 8.676 137.127 0 148 0H236C247.046 0 256 8.954 256 20V108C256 119.046 247.046 128 236 128C247.046 128 256 136.954 256 148V236C256 247.046 247.046 256 236 256H148C136.954 256 128 247.046 128 236C128 247.046 119.046 256 108 256H20C8.954 256 0 247.046 0 236V148C0 137.127 8.676 128.281 19.483 128.007L20 128C8.954 128 0 119.046 0 108V20C0 8.954 8.954 0 20 0H108ZM128 64C128 99.346 99.346 128 64 128C99.346 128 128 156.654 128 192C128 156.654 156.654 128 192 128C156.654 128 128 99.346 128 64Z" fill="#EB8FFC"/>
</g>
<defs>
<clipPath id="clip0_271_596">
<rect width="256" height="256" fill="white"/>
</clipPath>
</defs>
</svg>
