<svg width="487" height="154" viewBox="0 0 487 154" fill="none" xmlns="http://www.w3.org/2000/svg">
<path d="M42.5001 4.21224C42.5001 2.8209 43.8516 0.0382019 49.2576 0.0382019H77.885C83.5466 0.0382019 83 3.87468 83 6.03953C89 -2.96016 107 0.539953 109.5 2.53995C112 4.53995 113 5.03985 113 5.03985C114 5.53984 115 6.03984 115.5 6.03984C117.1 6.03984 117.333 4.70728 117.5 4.041C117.667 2.70739 119.2 0.0401551 124 0.0401551C126 -0.125945 130.2 0.441684 131 4.041C131.167 4.70728 132 6.03984 134 6.03984C135.333 6.04056 138.3 5.6418 139.5 4.041C140.333 2.70729 142.5 0.0399034 144.5 0.0400152C146.167 0.0400152 149.7 0.740015 150.5 3.54002C150.833 4.37335 152.6 6.04002 157 6.04002C157.833 6.04002 159.9 5.44002 161.5 3.04002C162 2.04002 163.6 0.0400152 166 0.0400152C167.5 0.0400152 170.7 0.640015 171.5 3.04002C171.833 4.04002 174.1 6.04002 180.5 6.04002C181.833 5.87335 185.1 4.94002 187.5 2.54002C188.833 1.70668 193.2 0.0400152 200 0.0400152C203.167 0.0400152 210.2 0.540015 213 2.54002C213.5 3.70668 215 6.04002 217 6.04002C217.333 6.20668 218.3 5.64002 219.5 2.04002C220 1.37335 221.8 0.0400152 225 0.0400152C226.833 0.0400152 230.9 0.640015 232.5 3.04002C232.667 4.04002 233.5 6.04002 235.5 6.04002C236.167 6.20668 237.7 5.74002 238.5 2.54002C238.833 1.70668 240.6 0.0400152 245 0.0400152C247.167 -0.126651 251.7 0.140015 252.5 2.54002C252.667 3.70668 253.5 6.04002 255.5 6.04002C256.167 6.03968 257.9 5.33921 259.5 2.54002C260.667 1.70668 264.2 0.0400152 269 0.0400152H277.5C278.333 0.207015 280.1 1.04102 280.5 3.04102C280.667 4.04068 281.2 6.04002 282 6.04002C282.333 6.04035 283.1 5.44102 283.5 3.04102C284 2.04068 285.8 0.0400152 289 0.0400152C290.667 0.0406822 294.3 0.641816 295.5 3.04102C296 4.04068 297.5 6.04002 299.5 6.04002C300.333 5.87368 302.6 5.04102 305 3.04102C306.167 2.04068 309.9 0.0400152 315.5 0.0400152C317.5 0.0403487 322.1 0.541016 324.5 2.54102C325.167 3.70768 326.8 6.04102 328 6.04102C328.5 6.04102 329.7 5.34102 330.5 2.54102C330.667 1.70735 331.4 0.0400152 333 0.0400152H355.5C356.667 0.0403487 359.2 0.641016 360 3.04102C360.333 4.04102 361.3 6.04102 362.5 6.04102C363.167 6.04135 364.7 5.44182 365.5 3.04102C366.167 2.04068 369 0.0400152 375 0.0400152C377.833 0.0403487 383.9 0.641016 385.5 3.04102C386 4.04102 387.3 6.04102 388.5 6.04102C389 6.04135 390.3 5.44182 391.5 3.04102C392.167 2.04035 394.4 0.0392149 398 0.0400152C400.167 -0.126318 404.5 1.84102 404.5 11.041V41.041C404.167 42.3743 402.4 45.041 398 45.041H360C357.777 44.7077 353.331 45.741 353.331 52.541C353.331 52.5672 365.5 52.541 365.5 54.541V89C365.5 89 456.54 90.5675 479.769 91.2991C484.291 91.4081 485.421 95.56 485.691 97.742C485.726 97.4333 485.75 97.1111 485.761 96.7747C485.762 96.6698 485.763 98.0241 485.764 99.6096C485.775 104.727 485.881 89.4086 485.767 104.268C485.766 104.393 485.765 102.457 485.764 100.522L485.764 100.359L485.764 100.04L485.763 99.4676C485.763 99.2137 485.763 98.915 485.763 98.5666C485.759 98.5007 485.755 98.4289 485.75 98.3518C485.698 106.04 485.648 119.766 485.61 125.5C485.568 131.801 486.029 138.261 486.029 141.651C486.029 145.004 481.851 145.713 479.762 145.648H430.789C429.989 150.044 426.125 150.832 424.292 150.676C421.094 150.676 419.628 147.324 419.295 145.648C417.867 143.507 416.949 145.953 416.359 147.527C416.123 148.156 415.94 148.645 415.797 148.645C412.299 151.643 409.8 150.676 410.3 150.676C405.503 150.676 402.637 148.45 401.805 147.337C401.433 144.852 398.57 142.829 397.336 141.957L397.336 141.957C396.911 141.657 396.679 141.493 396.807 141.493C390.81 141.493 389.811 144.56 389.811 145.648C387.485 151.228 380.828 150.776 379.517 150.687C379.419 150.681 379.351 150.676 379.317 150.676C370.122 150.676 364.491 146.599 362.826 144.56C358.618 141.519 355.118 142.891 353.82 143.4C353.576 143.496 353.41 143.561 353.331 143.561C350.133 147.886 344.669 148.994 342.337 149.006C337.539 149.006 333.675 143.998 332.342 141.493C329.144 135.482 324.331 136.763 322.324 138.154C322.324 142.328 319.959 150.676 310.498 150.676C306.838 150.676 298.672 150.008 295.294 147.337C295.012 147.059 294.28 146.836 293.604 148.172C292.337 150.676 286.002 153.347 282.623 147.337C282.409 146.915 282.25 146.332 282.076 145.697C281.562 143.823 280.924 141.493 278.4 141.493C276.992 141.493 274.176 142.495 274.176 146.502C274.176 148.45 272.318 151.845 264.884 149.841C263.758 149.563 253.672 149.34 252.32 150.676C251.476 151.233 249.279 151.845 247.252 149.841C246.126 149.006 239.2 148.005 236.497 150.676C234.526 151.789 227.555 153.799 223.5 149.792C222.951 149.249 221.786 147.495 221 145.792C220.175 144.004 219.346 141.792 219 141.792C218.001 141.792 218.595 148.387 216.5 151.792C214.389 155.225 211 152.419 209.5 150.676C207.776 148.673 204.72 145.354 196.5 145.049C188.203 144.742 192.075 152.5 184.5 152.5C176.925 152.5 179.341 141.582 179.341 141.582H51.7917C48.6945 141.582 42.5001 139.745 42.5001 132.399V99.9966C42.5001 98.044 41.4526 95.9966 39.5 95.9966H7.50005C3.86796 95.9966 -2.65263e-05 94.1287 4.76408e-05 90.4966C0.000139531 85.9966 -9.58871e-05 61.041 4.76408e-05 52.541C0.000103692 49.2216 4.18059 45.541 7.50005 45.541H38.5C40.7092 45.541 42.5001 43.7502 42.5001 41.541V4.21224Z" fill="#EB8FFC"/>
</svg>
