<svg width="421" height="173" viewBox="0 0 421 173" fill="none" xmlns="http://www.w3.org/2000/svg">
<path d="M0 4.17754V156.24C0 163.592 6.19782 165.431 9.29673 165.431C12.0312 165.287 17.9 164.3 19.5 161.5C20.6667 161.167 23.4 160.7 25 161.5C26.6667 162.81 31.3 165.431 36.5 165.431C38.5 165.287 42.7 164.3 43.5 161.5C44.1667 160.833 45.9 159.9 47.5 161.5C48.6667 162.81 52.5 165.431 58.5 165.431C59.6667 165.287 62.6 164.6 65 163C66.1667 163.833 69.5 165.375 73 164.5C74.3333 164.167 77.6735 162.827 79 161.5C80.5 160 85 159.5 87.5 161.5C89.3333 162.5 94.3 165.431 99.5 165.431C102.167 165.431 108.3 163.9 111.5 161.5C112.833 160.833 115.9 159.9 117.5 161.5C118.833 162.81 122.5 165.431 126.5 165.431C128.333 165.62 132.7 165.4 135.5 163C136.833 163.81 140.4 165.431 144 165.431C145.333 165.12 148 164.2 148 163C148.667 163.81 150.7 165.431 153.5 165.431C155.5 165.454 159.7 165 160.5 163C161.833 162.333 165 161.4 167 163C168 163.81 170.8 165.431 174 165.431C175.833 165.454 179.8 165 181 163C182 162.333 184.6 161.4 187 163C188.5 163.856 192.8 165.556 198 165.5C198 165.431 201.5 165 203.5 163C204.667 163.667 207.7 164.7 210.5 163.5C210.333 166.333 211 172.5 217 172.5C219 172.5 222 172 225.5 168C228.125 165 236.5 164.5 240 168C241.409 169.409 244 172.5 248 172.5C250 172.5 254.4 171.6 256 168C256.167 166.97 256.8 164.629 258 163.5C258.333 163.167 259.7 162.8 262.5 164C265 165.167 271.6 166.6 278 163C279.5 161.833 282 159.5 282 155.5C282 151.5 278 150.236 278 148C278 145.5 280 144.224 281.5 143C282.825 141.919 284.976 140.405 284.976 139V135C284.976 131 288.5 130.339 292 130.339H408C414.126 130.339 418 126.5 418 122C418 117.5 419.1 109.8 415.5 109C411.9 108.2 413.5 105.5 415.5 104C420.501 100.249 420.501 97.2756 420.5 90.7316V90.5C420.32 88.1067 419.535 83.5 415 83.5H298.5C288 83.5 284 83.5 284 76.5C284 54.9 282 41.5 277.5 35.5C276.276 33.8683 281.097 30.4558 282.5 28C284.5 24.5 283.5 20 279 16.5C274.5 13 266.961 12.3798 262 13C254 14 252 17 251 19C247 21.4 242 20 240 19C238 14.2 233.5 13 231.5 13C225.026 13 225.017 17.5 223.5 19C221 21.5 210 21 208 18.5C204.648 14.3094 197.167 13 193.5 13C185.9 13 183.667 17 183.5 19C182.3 20.6 180.667 19.6667 180 19C178.4 15 173.667 13.3333 171.5 13H153.5C148.352 13 146.879 15.5 144.046 19C142.428 21 140.674 19.8333 140 19C136.46 14.625 132.058 13 127 13C119.5 13 117 16.5 115.5 19C114 21.5 112.186 19.4642 112 19C110 14 106.5 13 100 13C91.5 13 88.5 16 87.499 19H69.7969C58.1641 9 45.5197 13.5 42.485 19V6.5C42.485 4.33333 41.0689 0 35.4042 0H6.76126C1.35225 0 0 2.78503 0 4.17754Z" fill="#EB8FFC"/>
</svg>
