<svg width="35" height="35" viewBox="0 0 35 35" fill="none" xmlns="http://www.w3.org/2000/svg">
<path d="M15.4426 0.110005C16.7365 -0.0357869 18.0428 -0.0357869 19.3367 0.110005V0.110005C20.6307 0.255798 21.9041 0.546461 23.1332 0.976528V0.976528C24.3623 1.4066 25.5391 1.97335 26.6417 2.66612V2.66612C27.7442 3.3589 28.7655 4.17332 29.6862 5.09406V5.09406C30.607 6.01481 31.4214 7.03606 32.1142 8.13861V8.13861C32.8069 9.24115 33.3737 10.418 33.8037 11.6471V11.6471C34.2338 12.8761 34.5245 14.1496 34.6703 15.4436V15.4436C34.8161 16.7375 34.8161 18.0437 34.6703 19.3377V19.3377C34.5245 20.6316 34.2338 21.9051 33.8037 23.1342V23.1342C33.3737 24.3632 32.8069 25.5401 32.1142 26.6426V26.6426C31.4214 27.7452 30.607 28.7664 29.6862 29.6872V29.6872C28.7655 30.6079 27.7442 31.4224 26.6417 32.1151V32.1151C25.5391 32.8079 24.3623 33.3747 23.1332 33.8047V33.8047C21.9041 34.2348 20.6306 34.5255 19.3367 34.6712V34.6712C18.0428 34.817 16.7365 34.817 15.4426 34.6712V34.6712C14.1487 34.5255 12.8752 34.2348 11.6461 33.8047V33.8047C10.417 33.3747 9.24017 32.8079 8.13763 32.1151V32.1151C7.03508 31.4224 6.01383 30.6079 5.09309 29.6872V29.6872C4.17234 28.7664 3.35792 27.7452 2.66515 26.6426V26.6426C1.97237 25.5401 1.40562 24.3632 0.975551 23.1342V23.1342C0.545484 21.9051 0.254821 20.6316 0.109029 19.3377V19.3377C-0.0367634 18.0437 -0.0367634 16.7375 0.109029 15.4436V15.4436C0.254821 14.1496 0.545484 12.8761 0.975552 11.6471V11.6471C1.40562 10.418 1.97237 9.24115 2.66515 8.13861V8.13861C3.35792 7.03606 4.17234 6.01481 5.09309 5.09406V5.09406C6.01383 4.17332 7.03508 3.3589 8.13763 2.66612V2.66612C9.24018 1.97335 10.417 1.40659 11.6461 0.976528V0.976528C12.8752 0.546461 14.1486 0.255798 15.4426 0.110005V0.110005Z" fill="black"/>
</svg>
