<svg width="28" height="28" viewBox="0 0 28 28" fill="none" xmlns="http://www.w3.org/2000/svg">
<path d="M12.1166 0.0861842C13.1318 -0.0282017 14.1567 -0.0282017 15.1719 0.0861842C16.1871 0.20057 17.1862 0.42862 18.1505 0.766044C19.1148 1.10347 20.0382 1.54813 20.9032 2.09167C21.7683 2.63521 22.5695 3.27419 23.2919 3.99659C24.0143 4.71899 24.6533 5.52024 25.1968 6.38528C25.7404 7.25032 26.185 8.17367 26.5225 9.13797C26.8599 10.1023 27.0879 11.1014 27.2023 12.1166C27.3167 13.1318 27.3167 14.1567 27.2023 15.1719C27.0879 16.1871 26.8599 17.1862 26.5225 18.1505C26.185 19.1148 25.7404 20.0382 25.1968 20.9032C24.6533 21.7683 24.0143 22.5695 23.2919 23.2919C22.5695 24.0143 21.7683 24.6533 20.9032 25.1968C20.0382 25.7404 19.1148 26.185 18.1505 26.5225C17.1862 26.8599 16.1871 27.0879 15.1719 27.2023C14.1567 27.3167 13.1318 27.3167 12.1166 27.2023C11.1014 27.0879 10.1023 26.8599 9.13797 26.5225C8.17367 26.185 7.25032 25.7404 6.38528 25.1968C5.52024 24.6533 4.71899 24.0143 3.99659 23.2919C3.27419 22.5695 2.63521 21.7683 2.09167 20.9032C1.54813 20.0382 1.10347 19.1148 0.766044 18.1505C0.42862 17.1862 0.20057 16.1871 0.0861842 15.1719C-0.0282017 14.1567 -0.0282017 13.1318 0.0861842 12.1166C0.200571 11.1014 0.42862 10.1023 0.766044 9.13797C1.10347 8.17367 1.54813 7.25032 2.09167 6.38528C2.63521 5.52024 3.27419 4.71899 3.99659 3.99659C4.71899 3.27419 5.52024 2.63521 6.38528 2.09167C7.25032 1.54813 8.17367 1.10347 9.13797 0.766043C10.1023 0.42862 11.1014 0.200571 12.1166 0.0861842Z" fill="black"/>
</svg>
