<svg width="767" height="256" viewBox="0 0 767 256" fill="none" xmlns="http://www.w3.org/2000/svg">
<g clip-path="url(#clip0_292_1015)">
<path d="M256 256C220.654 256 192 227.346 192 192C192 227.346 163.346 256 128 256C92.654 256 64 227.346 64 192C64 227.346 35.346 256 0 256V0C35.346 0 64 28.654 64 64C64 28.654 92.654 0 128 0C163.346 0 192 28.654 192 64C192 28.654 220.654 0 256 0V256Z" fill="#EB8FFC"/>
</g>
<g clip-path="url(#clip1_292_1015)">
<path d="M511 256C475.654 256 447 227.346 447 192C447 227.346 418.346 256 383 256C347.654 256 319 227.346 319 192C319 227.346 290.346 256 255 256V0C290.346 0 319 28.654 319 64C319 28.654 347.654 0 383 0C418.346 0 447 28.654 447 64C447 28.654 475.654 0 511 0V256Z" fill="#EB8FFC"/>
</g>
<g clip-path="url(#clip2_292_1015)">
<path d="M767 256C731.654 256 703 227.346 703 192C703 227.346 674.346 256 639 256C603.654 256 575 227.346 575 192C575 227.346 546.346 256 511 256V0C546.346 0 575 28.654 575 64C575 28.654 603.654 0 639 0C674.346 0 703 28.654 703 64C703 28.654 731.654 0 767 0V256Z" fill="#EB8FFC"/>
</g>
<defs>
<clipPath id="clip0_292_1015">
<rect width="256" height="256" fill="white" transform="matrix(0 1 -1 0 256 0)"/>
</clipPath>
<clipPath id="clip1_292_1015">
<rect width="256" height="256" fill="white" transform="matrix(0 1 -1 0 511 0)"/>
</clipPath>
<clipPath id="clip2_292_1015">
<rect width="256" height="256" fill="white" transform="matrix(0 1 -1 0 767 0)"/>
</clipPath>
</defs>
</svg>
