<svg width="196" height="192" viewBox="0 0 196 192" fill="none" xmlns="http://www.w3.org/2000/svg">
<path d="M110.246 9.75868L88.0825 52.0577L69.9724 15.8233L64.2317 15.2134L64.804 64.469L29.3901 43.8036L21.931 54.616L45.4152 90.1599L7.76612 100.035L7.15651 105.773L44.9426 118.365L21.5492 141.36L25.8255 148.626L63.6667 144.069L50.4913 170.672L61.151 179.626L92.9334 148.944L116.062 185.46L126.47 182.529L125.261 139.261L163.553 158.97L168.751 150.44L140.778 109.626L185.206 114.347L185.763 109.108L147.221 89.3715L181.204 66.4925L178.398 59.6352L139.272 62.0374L157.39 31.6705L152.127 26.5702L120.779 55.5316L125.153 14.3699L110.246 9.75868Z" fill="#FF801F"/>
<circle cx="97.2216" cy="99.344" r="29.3632" transform="rotate(6.06472 97.2216 99.344)" fill="#AEF261"/>
</svg>
