<svg width="322" height="307" viewBox="0 0 322 307" fill="none" xmlns="http://www.w3.org/2000/svg">
<path d="M262.888 163.676C277.937 184.251 275.987 213.922 257.017 233.744C240.996 250.484 217.425 255.404 197.704 248.018L187.161 261.66L49.5838 155.333L59.4565 142.558C44.1169 121.97 45.9763 92.0658 65.0584 72.1267C81.1943 55.2661 104.99 50.3957 124.797 58.0132L134.69 45.2134L272.267 151.541L262.888 163.676Z" fill="#EB8FFC"/>
<path d="M91.1981 144.885C87.1099 145.421 82.7969 142.57 82.868 138.444C82.9214 135.35 84.6424 131.954 87.7245 132.163C89.7792 132.302 90.9635 135.504 91.8896 135.383C95.5892 134.898 110.087 111.845 111.241 106.047C112.395 100.249 113.78 81.2466 128.586 79.3125C132.751 82.5324 132.227 96.5229 133.887 99.5997C135.04 101.739 136.629 104.315 140.612 105.337C150.297 107.824 158.39 100.243 163.988 106.684C165.686 110.227 162.833 115.284 150.892 120.335C138.441 129.37 116.807 150.495 132.311 169.174C138.019 174.702 151.225 185.361 164.481 169.741C175.184 157.13 166.541 142.112 168.853 130.517C170.13 124.114 176.067 116.022 182.731 121.175C185.419 122.349 188.343 127.18 189.879 132.472C189.953 132.693 190.005 132.911 190.038 133.128C190.942 136.526 194.037 144.423 194.982 145.83C200.152 152.291 205.23 156.289 212.073 160.587C216.818 163.568 222.648 164.755 226.985 168.771C228.737 170.731 232.381 175.5 227.636 179.67C224.239 182.654 221.986 185.804 223.365 187.776C224.917 189.995 232.488 190.3 237.771 186.049C239.175 184.92 243.037 184.168 244.54 189.034C245.745 192.94 226.593 204.499 216.154 194.521C214.17 192.625 207.522 185.492 215.413 175.286C212.141 168.952 195.986 169.858 184.899 149.614C181.242 156.776 178.235 177.341 163.477 186.578C148.719 195.816 137.343 191.004 129.597 185.015C117.233 175.456 114.212 160.271 116.807 150.495C118.859 142.761 128.884 126.039 144.79 118.604C140.934 117.853 136.177 118.635 129.058 113.131C124.892 109.911 122.886 103.899 121.883 100.893L121.883 100.893C121.883 100.893 120.361 105.767 119.109 108.785C113.17 123.099 94.8978 144.399 91.1981 144.885Z" fill="#AEF261"/>
</svg>
