<svg width="277" height="228" viewBox="0 0 277 228" fill="none" xmlns="http://www.w3.org/2000/svg">
<path d="M227.252 91.2587C246.231 103.956 253.696 129.524 243.814 152.028C235.469 171.033 217.142 182.405 198.278 182.241L193.59 196.964L45.1758 149.702L49.5652 135.917C30.3367 123.299 22.7238 97.56 32.664 74.9231C41.0696 55.7812 59.6015 44.3818 78.6085 44.7144L83.0052 30.9078L231.421 78.1701L227.252 91.2587Z" fill="#AEF261"/>
<path d="M76.9906 128.136C73.7146 129.842 69.2098 128.767 68.0036 125.273C67.0989 122.652 67.5051 119.266 70.163 118.496C71.935 117.982 73.9144 120.314 74.6565 119.928C77.6212 118.384 82.7476 94.5343 81.9392 89.3002C81.1308 84.0661 76.4648 67.6493 88.332 61.4776C92.8253 62.9092 96.6784 74.8441 99.0191 76.9243C100.647 78.3707 102.774 80.051 106.44 79.6891C115.354 78.8092 119.838 69.9458 126.527 73.6482C129.042 76.1087 128.194 81.2405 119.694 89.1565C111.989 100.581 100.264 124.999 119.045 135.96C125.546 138.861 139.931 143.779 146.293 126.565C151.43 112.667 139.548 102.68 137.935 92.2134C137.044 86.4321 139.558 77.8006 146.747 80.0915C149.37 80.2549 153.313 83.423 156.23 87.4058C156.36 87.5684 156.471 87.7363 156.565 87.9092C158.369 90.491 163.397 96.1869 164.624 97.081C170.958 100.933 176.459 102.739 183.537 104.256C188.445 105.308 193.715 104.518 198.598 106.567C200.675 107.678 205.205 110.574 202.49 115.539C200.548 119.093 199.618 122.435 201.384 123.672C203.371 125.063 209.836 122.996 212.978 117.798C213.813 116.416 216.833 114.598 219.591 118.233C221.804 121.15 209.233 136.755 197.385 131.562C195.134 130.575 187.35 126.612 190.859 115.601C186.161 111.275 172.844 116.995 157.3 103.36C156.421 110.51 160.201 128.74 150.616 141.043C141.03 153.347 129.979 152.788 121.622 150.125C108.284 145.875 101.081 134.023 100.264 124.999C99.6184 117.86 102.923 100.711 114.028 89.5719C110.552 90.1233 106.789 92.2417 99.1078 89.7943C94.6142 88.3624 91.0805 83.9186 89.3136 81.6967C89.3136 81.6967 89.5285 86.2655 89.4009 89.1895C88.7959 103.059 79.9553 126.593 76.9906 128.136Z" fill="#FF801F"/>
</svg>
