<svg width="1265" height="328" viewBox="0 0 1265 328" fill="none" xmlns="http://www.w3.org/2000/svg">
<path d="M1.5 267.16H91.4999C93.4999 267.273 98.1999 266.3 101 261.5C103 256.667 109.5 247.5 120.5 247.5C129.5 247.5 137 251 142.5 261.5C145.465 267.16 152.5 277.5 165 277.5C179.5 277.5 185 266.5 187.5 261.5C189.667 256.833 195 247.5 209 247.5C213.972 247.5 224.534 250.3 231 261.5C236.5 271.026 242.6 277.5 253 277.5C263.4 277.5 271.5 263.5 274.5 253.5" stroke="black" stroke-width="3" stroke-linecap="round"/>
<path d="M1.5 110.398C13.1723 109.75 24.5 111 56 132C62 136 76 147.443 87.0966 147.364C93.5812 147.317 106.828 147.364 114.332 129.855C126.004 102.62 137.712 58 159.5 58C176 58 190 100 196.038 118.183C200.337 131.13 210 157 226 157C235.5 157 246.059 149.309 254.399 118.183C264.775 79.2754 289.027 1.5 310.815 1.5C324.433 1.49835 338 55.8008 349 95.8008C364.125 150.801 385.5 147.364 390.576 147.364C395.651 147.364 411 147.5 422.5 120.5" stroke="black" stroke-width="3" stroke-linecap="round"/>
<path d="M418 129.5C431.168 104.645 445.178 57.8762 466.966 57.8762C474.748 58.5246 492.256 71.4938 500.038 118.183C501.983 131.152 510.154 157.09 527.273 157.09C534.173 157.09 550.059 149.309 558.399 118.183C568.775 79.2754 593.027 1.5 614.815 1.5C628.433 1.49835 642 55.8008 653 95.8008C668.125 150.801 689.5 147.364 694.576 147.364C699.651 147.364 718.309 143.088 727.647 118.183C730.889 106.509 743.599 83.1602 768.5 83.1602H852C854 83.2735 858.7 82.3 861.5 77.5C863.5 72.6667 870 63.5 881 63.5C890 63.5 897.5 67 903 77.5C905.965 83.1602 910.5 93.5 923 93.5C937.5 93.5 940.5 82.5 943 77.5C945.167 72.8333 950.5 63.5 964.5 63.5C969.472 63.5 980.034 66.3 986.5 77.5C992 87.0263 998.6 93.5 1009 93.5C1017.5 93.5 1021 90 1025 87C1029 84 1034.5 83 1038.5 83H1157C1199.33 82.6667 1263.5 117.7 1263.5 208.5C1263.5 293.5 1215.5 326.5 1164.5 326.5" stroke="black" stroke-width="3" stroke-linecap="round"/>
<path d="M1165 326.5C1132.5 326.5 1124 291.789 1120.54 282.955C1114.15 266.651 1101.37 186.956 1084.75 186.956C1068.14 186.956 1056.41 244.522 1046.5 278.955C1036 315.455 1028.5 324.372 1017.01 324.372C997.842 324.372 989.746 295.258 985.061 282.451C973.559 251.006 956.943 186.956 945.441 186.956C930.104 186.956 910.677 251.006 896.874 282.451C882.559 315.06 875.147 324.372 863.644 324.372C845.751 324.372 836.011 302.246 825.302 282.451C808.29 251.006 781.848 186.956 772.901 186.956C753.304 186.956 752.396 224.221 723 282.451C717.39 293.563 709.472 308 703 314.064C696.528 320.129 686.5 326.5 670.5 326.5C657 326.5 640.355 324.372 617 289.918C610 279.592 601.7 258.938 558.5 258.938H444C433.98 259.698 403.252 266.957 396.5 289.918C393 301.403 382.5 323.632 362.5 323.632C342.5 323.632 332.963 299.057 330.5 289.918C323.5 263.95 319 186.5 302 186.5C288 186.5 287.5 205.208 274.5 253.5" stroke="black" stroke-width="3"/>
</svg>
