<svg width="265" height="265" viewBox="0 0 265 265" fill="none" xmlns="http://www.w3.org/2000/svg">
<circle cx="132.017" cy="132.015" r="95.4473" transform="rotate(32.9663 132.017 132.015)" fill="#048A46"/>
<path d="M173.582 68.3131C187.52 77.3535 197.526 90.1757 203.129 104.558L203.766 104.744L203.521 105.584C211.675 127.437 209.738 152.737 196.07 173.81C191.092 181.486 184.964 187.969 178.062 193.182L177.9 193.739L177.481 193.616C160.669 206.063 139.372 211.045 118.849 207.441C118.247 207.455 117.672 207.454 117.127 207.437C115.076 207.375 113.442 207.13 112.328 206.908C111.771 206.796 111.345 206.69 111.065 206.617C111.018 206.605 110.953 206.587 110.896 206.572L110.815 206.579L110.583 206.487C108.299 205.586 106.195 204.529 104.255 203.338C99.5568 201.492 94.9729 199.152 90.5738 196.298C76.4453 187.135 66.3567 174.086 60.7992 159.465L60.6727 159.428L60.7215 159.26C52.4665 137.354 54.3693 111.949 68.085 90.8019C73.2715 82.8051 79.7024 76.1018 86.9589 70.7823L86.9775 70.7176L87.0278 70.7316C104.544 57.9212 126.855 53.1611 148.073 57.7065C150.185 57.7105 152.101 57.9259 153.771 58.3035L153.845 58.3197L153.914 58.3459C156.366 59.2765 158.618 60.3627 160.685 61.5842C165.109 63.3794 169.427 65.6188 173.582 68.3131ZM63.3564 160.213C68.869 173.822 78.4663 185.935 91.72 194.531C93.5204 195.699 95.3534 196.777 97.2122 197.77C88.9213 189.423 85.0946 177.814 83.649 166.152L63.3564 160.213ZM85.8547 166.798C87.7192 180.642 93.0624 193.911 105.234 201.459C106.328 201.885 107.428 202.284 108.533 202.655C106.571 197.419 105.801 191.035 105.77 184.291C105.753 180.552 105.964 176.678 106.334 172.793L85.8547 166.798ZM108.392 173.394C108.052 177.084 107.86 180.749 107.876 184.282C107.91 191.66 108.852 198.357 111.148 203.477C111.596 203.609 112.044 203.735 112.493 203.858C113.328 203.388 114.371 202.608 115.609 201.389C117.812 199.221 120.5 195.809 123.562 190.782C125.448 187.685 127.468 183.986 129.6 179.602L108.392 173.394ZM131.65 180.202C129.435 184.781 127.331 188.645 125.362 191.877C122.244 196.998 119.453 200.563 117.088 202.891C116.442 203.526 115.815 204.076 115.213 204.548C116.471 204.841 117.733 205.103 118.999 205.329C122.656 205.226 127.4 204.46 132.752 202.05C138.741 199.353 145.54 194.573 152.445 186.288L131.65 180.202ZM154.644 186.932C147.368 195.86 140.113 201.046 133.617 203.971C131.286 205.021 129.058 205.775 126.972 206.308C143.916 207.461 160.926 202.763 174.922 192.867L154.644 186.932ZM58.0715 127.241C57.3706 137.619 58.8655 148.021 62.4047 157.74L83.3969 163.883C83.1478 161.349 83.0044 158.821 82.9464 156.335C82.7658 148.592 83.4037 141.158 84.2508 134.966L58.0715 127.241ZM86.2956 135.57C85.483 141.604 84.8788 148.802 85.0534 156.286C85.1171 159.016 85.2845 161.775 85.58 164.523L106.552 170.661C106.992 166.646 107.587 162.643 108.266 158.787C109.27 153.081 110.46 147.684 111.593 143.034L86.2956 135.57ZM113.616 143.631C112.5 148.22 111.33 153.534 110.341 159.152C109.646 163.096 109.042 167.181 108.606 171.262L130.521 177.676C133.804 170.722 137.334 162.165 141.022 151.718L113.616 143.631ZM143.046 152.315C139.378 162.712 135.859 171.275 132.568 178.275L153.882 184.513C158.798 178.273 163.741 170.211 168.459 159.815L143.046 152.315ZM66.1731 98.2777C61.7416 106.835 59.1346 115.938 58.2479 125.097L84.5527 132.858C85.8144 124.486 87.3583 118.84 87.4418 118.6C89.0028 114.1 90.6579 109.911 92.3877 106.013L66.1731 98.2777ZM170.499 160.416C165.85 170.709 160.961 178.802 156.058 185.15L177.061 191.297C183.662 186.263 189.526 180.028 194.303 172.663C195.249 171.205 196.136 169.724 196.967 168.227L170.499 160.416ZM94.4241 106.614C92.6799 110.526 91.0094 114.744 89.4325 119.29C89.4315 119.296 89.3566 119.555 89.2153 120.106C89.0769 120.646 88.8857 121.425 88.6594 122.413C88.2065 124.39 87.6167 127.202 87.0445 130.61C86.8918 131.52 86.7409 132.471 86.5937 133.461L112.1 140.987C114.042 133.269 115.703 128.039 115.815 127.649C117.188 122.843 118.571 118.348 119.954 114.147L94.4241 106.614ZM121.974 114.743C120.594 118.933 119.213 123.422 117.84 128.228C117.719 128.652 116.057 133.883 114.122 141.584L141.719 149.727C142.917 146.274 144.133 142.622 145.36 138.761C145.426 138.554 147.407 132.105 149.753 122.94L121.974 114.743ZM151.775 123.537C149.424 132.713 147.442 139.168 147.368 139.399C146.147 143.242 144.936 146.88 143.742 150.324L169.326 157.873C171.114 153.798 172.868 149.38 174.572 144.589L174.578 144.57L174.586 144.551C174.585 144.551 174.674 144.29 174.844 143.727C175.006 143.19 175.231 142.418 175.496 141.442C176.028 139.489 176.721 136.718 177.409 133.362C177.55 132.674 177.689 131.96 177.828 131.225L151.775 123.537ZM87.4444 73.0469C80.6995 78.1262 74.7144 84.4534 69.8531 91.9486C68.9078 93.4062 68.0206 94.8848 67.1901 96.3812L93.2644 104.075C97.9989 93.8201 103.261 85.6653 108.701 79.2405L87.4444 73.0469ZM179.859 131.824C179.731 132.497 179.603 133.152 179.473 133.785C178.126 140.355 176.743 144.765 176.555 145.293L176.557 145.295C174.872 150.034 173.135 154.418 171.362 158.475L197.984 166.33C202.415 157.772 205.022 148.67 205.908 139.51L179.859 131.824ZM110.912 79.8841C105.439 86.1976 100.111 94.3212 95.3049 104.678L120.62 112.148C124.199 101.52 127.777 92.8403 131.207 85.7976L110.912 79.8841ZM133.259 86.3958C129.836 93.3836 126.244 102.056 122.641 112.744L150.27 120.896C151.674 115.292 153.168 108.84 154.428 102.253C155.017 99.1761 155.552 96.0756 156.007 93.0235L133.259 86.3958ZM158.048 93.6177C157.597 96.6163 157.071 99.6493 156.497 102.648C155.222 109.311 153.712 115.835 152.293 121.494L178.207 129.14C179.261 123.07 180.128 115.738 180.108 108.097C180.101 105.393 179.983 102.658 179.726 99.9334L158.048 93.6177ZM140.268 58.5773C122.466 56.6136 104.383 61.1701 89.6046 71.4821L110.225 77.4901C120.505 66.0145 131.296 60.5302 140.268 58.5773ZM181.896 100.565C182.109 103.093 182.209 105.612 182.215 108.091C182.235 115.984 181.33 123.535 180.241 129.74L206.084 137.367C206.798 126.781 205.228 116.171 201.534 106.287L181.896 100.565ZM149.551 60.2064C148.988 60.0697 148.423 59.9407 147.857 59.8177C138.726 59.8778 125.307 64.1822 112.467 78.1433L132.156 83.8795C133.971 80.2835 135.739 77.1451 137.441 74.4173C140.75 69.1125 143.815 65.3434 146.481 62.7786C147.563 61.7367 148.591 60.8846 149.551 60.2064ZM154.416 61.5643C153.731 61.3473 153.043 61.1409 152.354 60.9448C151.159 61.5681 149.671 62.6325 147.942 64.2965C145.431 66.7129 142.47 70.336 139.228 75.5324C137.617 78.1155 135.939 81.0834 134.214 84.4795L156.308 90.9166C157.054 85.481 157.513 80.2542 157.499 75.6507C157.488 71.7693 157.141 68.3829 156.38 65.7095C155.884 63.968 155.226 62.5869 154.416 61.5643ZM179.479 97.6674C177.798 84.1021 172.433 71.0522 159.729 63.4726C158.985 63.1728 158.238 62.8858 157.488 62.6117C157.847 63.3933 158.152 64.2381 158.407 65.1327C159.242 68.066 159.594 71.6659 159.606 75.6436C159.62 80.4542 159.133 85.8945 158.352 91.5125L179.479 97.6674ZM172.435 70.0812C171.184 69.2696 169.916 68.5013 168.636 67.7745C176.76 76.0069 180.415 87.134 181.673 98.3068L200.557 103.809C195.008 90.4397 185.497 78.5529 172.435 70.0812Z" fill="#AEF261"/>
</svg>
